<?xml version="1.0" standalone="no"?>
<!DOCTYPE svg PUBLIC "-//W3C//DTD SVG 1.1//EN" "http://www.w3.org/Graphics/SVG/1.1/DTD/svg11.dtd" >
<svg xmlns="http://www.w3.org/2000/svg" xmlns:xlink="http://www.w3.org/1999/xlink" version="1.1">
<metadata>
Created by FontForge 20200427 at Thu Nov  7 21:41:21 2019
 By www
Copyright (c) 2016 by THOMAS GILLETT. All rights reserved.
</metadata>
<defs>
<font id="Gordita-Medium" horiz-adv-x="680" >
  <font-face 
    font-family="Gordita-Medium"
    font-weight="400"
    font-stretch="normal"
    units-per-em="1000"
    panose-1="0 0 0 0 0 0 0 0 0 0"
    ascent="754"
    descent="-246"
    x-height="534"
    cap-height="783"
    bbox="-218 -356 1265 1131"
    underline-thickness="50"
    underline-position="-100"
    unicode-range="U+0020-FB04"
  />
<missing-glyph horiz-adv-x="799" 
d="M750 0h-660v783h660v-783zM706 739h-577l577 -699v699z" />
    <glyph glyph-name=".notdef" horiz-adv-x="799" 
d="M750 0h-660v783h660v-783zM706 739h-577l577 -699v699z" />
    <glyph glyph-name=".null" horiz-adv-x="0" 
 />
    <glyph glyph-name="nonmarkingreturn" horiz-adv-x="333" 
 />
    <glyph glyph-name="space" unicode=" " horiz-adv-x="264" 
 />
    <glyph glyph-name="exclam" unicode="!" horiz-adv-x="312" 
d="M92 664v119h128v-119l-10 -434h-108zM77 71q0 -33 23 -55.5t55 -22.5q33 0 56 22.5t23 55.5t-23 56t-56 23q-32 0 -55 -23t-23 -56z" />
    <glyph glyph-name="quotedbl" unicode="&#x22;" horiz-adv-x="454" 
d="M158 444h-62q-40 225 -40 254q0 36 19 58t52 22t52 -22t19 -58q0 -13 -10 -76.5t-20 -120.5zM358 444h-62q-40 225 -40 254q0 36 19 58t52 22t52 -22t19 -58q0 -13 -10 -76.5t-20 -120.5z" />
    <glyph glyph-name="numbersign" unicode="#" horiz-adv-x="829" 
d="M529 0h-104l45 207h-196l-45 -207h-104l45 207h-131v97h152l42 191h-131v97h152l42 191h104l-42 -191h196l42 191h104l-42 -191h132v-97h-153l-42 -191h131l1 -97h-153zM294 304h198l42 191h-198z" />
    <glyph glyph-name="dollar" unicode="$" horiz-adv-x="635" 
d="M587 219q0 -82 -60 -146t-164 -76l1 -99h-80l-1 99q-88 9 -151.5 56.5t-92.5 127.5l103 54q41 -106 143 -125v233q-109 35 -161 83q-60 51 -60 141q0 84 62 146.5t157 74.5l1 103h80l-1 -103q81 -10 135 -54.5t78 -107.5l-101 -55q-35 87 -113 104v-229q117 -36 170 -89
q55 -53 55 -138zM189 574q0 -36 24 -60t72 -43v206q-43 -8 -69.5 -36t-26.5 -67zM361 317v-208q45 8 72.5 35.5t27.5 67.5q0 35 -23.5 59.5t-76.5 45.5z" />
    <glyph glyph-name="percent" unicode="%" horiz-adv-x="875" 
d="M390 614q0 -73 -52 -125t-125 -52t-124.5 52t-51.5 125t51.5 125t124.5 52t125 -51.5t52 -125.5zM242 0h-118l510 783h117zM290 614q0 31 -22.5 53.5t-54.5 22.5q-31 0 -53.5 -22t-22.5 -54t22.5 -54t53.5 -22q32 0 54.5 22.5t22.5 53.5zM838 171q0 -73 -51.5 -124.5
t-124.5 -51.5t-125 51.5t-52 124.5t51.5 125t125.5 52q73 0 124.5 -52t51.5 -125zM738 171q0 31 -22 53.5t-54 22.5t-54.5 -22.5t-22.5 -53.5t22.5 -53.5t54.5 -22.5t54 22.5t22 53.5z" />
    <glyph glyph-name="ampersand" unicode="&#x26;" horiz-adv-x="729" 
d="M557 0l-60 70q-95 -79 -205 -79q-105 0 -174.5 52.5t-69.5 152.5q0 63 38.5 113.5t117.5 100.5l-45 52q-57 66 -57 133q0 81 61 140t153 59q87 0 152 -57.5t65 -136.5q0 -109 -122 -180l-50 -29l135 -157q51 79 76 173l109 -26q-30 -128 -110 -233l128 -148h-142z
M319 690q-43 0 -72 -28.5t-29 -66.5t35 -79l43 -50l73 44q50 30 50 85q0 38 -28.5 66.5t-71.5 28.5zM293 100q67 0 132 54l-157 181q-98 -60 -98 -123q0 -33 12.5 -57t33 -35t39.5 -15.5t38 -4.5z" />
    <glyph glyph-name="quotesingle" unicode="'" horiz-adv-x="254" 
d="M158 444h-62q-40 225 -40 254q0 36 19 58t52 22t52 -22t19 -58q0 -13 -10 -76.5t-20 -120.5z" />
    <glyph glyph-name="parenleft" unicode="(" horiz-adv-x="400" 
d="M379 -70l-51 -66q-133 75 -206 201t-73 289v29q0 164 73.5 292t205.5 202l51 -65q-103 -76 -160 -185.5t-57 -244.5v-28q0 -266 217 -424z" />
    <glyph glyph-name="parenright" unicode=")" horiz-adv-x="400" 
d="M72 -136l-51 66q216 158 216 424v28q0 135 -56.5 244.5t-159.5 185.5l51 65q132 -74 205.5 -202t73.5 -292v-29q0 -163 -73 -289t-206 -201z" />
    <glyph glyph-name="asterisk" unicode="*" horiz-adv-x="499" 
d="M95 436l85 118l-139 46l26 79l139 -45v149h86v-149l139 45l27 -79l-139 -46l85 -118l-67 -49l-88 118l-87 -118z" />
    <glyph glyph-name="plus" unicode="+" horiz-adv-x="620" 
d="M45 311v109h209v202h112v-202h209v-109h-209v-205h-112v205h-209z" />
    <glyph glyph-name="comma" unicode="," horiz-adv-x="307" 
d="M124 -162l-54 48q67 47 99 121q-14 -6 -30 -6q-31 0 -54 23.5t-23 58.5q0 37 25 62t65 25q39 0 66 -32t27 -82v-5q0 -60 -33 -117t-88 -96z" />
    <glyph glyph-name="hyphen" unicode="-" horiz-adv-x="464" 
d="M69 385h326v-121h-326v121z" />
    <glyph glyph-name="period" unicode="." horiz-adv-x="292" 
d="M59 82q0 37 25.5 62.5t61.5 25.5q37 0 62 -25.5t25 -62.5q0 -36 -25.5 -61.5t-61.5 -25.5t-61.5 26t-25.5 61z" />
    <glyph glyph-name="slash" unicode="/" horiz-adv-x="540" 
d="M32 -5l358 820h119l-358 -820h-119z" />
    <glyph glyph-name="zero" unicode="0" horiz-adv-x="764" 
d="M381 -9q-146 0 -237 114.5t-91 286.5q0 171 92.5 286.5t237.5 115.5q146 0 237 -114.5t91 -285.5q0 -172 -92 -287.5t-238 -115.5zM381 681q-91 0 -145.5 -82.5t-54.5 -204.5t55.5 -206t146.5 -84t146 83t55 205q0 121 -56 205t-147 84z" />
    <glyph glyph-name="one" unicode="1" horiz-adv-x="462" 
d="M246 783h117v-783h-123v651l-176 -106l-57 94z" />
    <glyph glyph-name="two" unicode="2" horiz-adv-x="657" 
d="M48 107l280 239q80 68 110 109.5t30 93.5q0 56 -37.5 94t-102.5 38q-112 0 -159 -123l-110 46q24 86 96.5 138t173.5 52q116 0 191 -65.5t75 -170.5q0 -86 -44 -148.5t-147 -147.5l-182 -151h377v-111h-551v107z" />
    <glyph glyph-name="three" unicode="3" horiz-adv-x="647" 
d="M592 220q0 -96 -78.5 -162.5t-199.5 -66.5q-204 0 -274 176l106 52q51 -116 170 -116q63 0 106 35.5t43 83.5q0 50 -41.5 85.5t-105.5 35.5h-84v111h77q60 0 99.5 34.5t39.5 82.5t-36.5 79.5t-102.5 31.5q-105 0 -153 -113l-107 49q27 78 94.5 127t167.5 49
q120 0 191 -61t71 -149q0 -122 -118 -179v-1q135 -52 135 -184z" />
    <glyph glyph-name="four" unicode="4" horiz-adv-x="712" 
d="M555 783v-499h116v-111h-116v-173h-121v173h-403v124l373 486h151zM157 284h277v360z" />
    <glyph glyph-name="five" unicode="5" horiz-adv-x="639" 
d="M307 -9q-90 0 -160 42.5t-106 125.5l106 59q49 -114 162 -114q66 0 111.5 39t45.5 105q0 69 -44.5 107.5t-109.5 38.5q-88 0 -148 -67l-105 43l59 413h437v-111h-344l-31 -224q63 53 155 53q116 0 187 -70.5t71 -180.5q0 -119 -83 -189t-203 -70z" />
    <glyph glyph-name="six" unicode="6" horiz-adv-x="685" 
d="M401 686q-104 0 -161.5 -80t-64.5 -197h1q33 47 88.5 73t114.5 26q113 0 186.5 -70.5t73.5 -183.5q0 -116 -83.5 -190t-201.5 -74q-128 0 -213 85q-88 88 -88 289q0 85 21 160.5t62 137t109 97t156 35.5q118 0 218 -84l-62 -90q-28 22 -45.5 33.5t-47.5 22t-63 10.5z
M352 401q-66 0 -115 -42t-49 -106q0 -69 47 -110t117 -41q69 0 114.5 41t45.5 107q0 68 -45 109.5t-115 41.5z" />
    <glyph glyph-name="seven" unicode="7" horiz-adv-x="615" 
d="M588 783v-101l-359 -682h-142l360 672h-418v111h559z" />
    <glyph glyph-name="eight" unicode="8" horiz-adv-x="679" 
d="M339 -9q-122 0 -204.5 62t-82.5 160q0 139 150 194v1q-60 17 -95 64t-35 110q0 96 80 154t187 58q109 0 188.5 -57.5t79.5 -154.5q0 -63 -34 -108.5t-95 -65.5v-1q149 -54 149 -189q0 -102 -82.5 -164.5t-205.5 -62.5zM194 570q0 -51 42.5 -84.5t102.5 -33.5
q63 0 104.5 33.5t41.5 84.5t-41.5 84.5t-104.5 33.5q-64 0 -104.5 -33t-40.5 -85zM175 223q0 -53 47.5 -89t116.5 -36t117.5 35.5t48.5 89.5q0 53 -48.5 88.5t-117.5 35.5q-71 0 -117.5 -34.5t-46.5 -89.5z" />
    <glyph glyph-name="nine" unicode="9" horiz-adv-x="686" 
d="M284 98q72 0 123.5 41.5t75.5 100.5t29 130h-2q-34 -47 -89 -73.5t-113 -26.5q-114 0 -188 71t-74 184q0 118 83.5 193.5t201.5 75.5q128 0 213 -85q88 -88 88 -289q0 -86 -20.5 -161t-61 -136.5t-109 -97t-157.5 -35.5q-124 0 -225 87l64 89q81 -68 161 -68zM333 377
q66 0 115 42.5t49 108.5q0 72 -46 113t-118 41q-70 0 -115 -41t-45 -110q0 -70 44.5 -112t115.5 -42z" />
    <glyph glyph-name="colon" unicode=":" horiz-adv-x="313" 
d="M69 454q0 37 26 62.5t62 25.5q37 0 62 -25.5t25 -62.5q0 -36 -25 -61t-62 -25q-36 0 -62 25.5t-26 60.5zM69 82q0 37 26 62.5t62 25.5q37 0 62 -25.5t25 -62.5q0 -36 -25.5 -61.5t-61.5 -25.5t-62 26t-26 61z" />
    <glyph glyph-name="semicolon" unicode=";" horiz-adv-x="317" 
d="M73 454q0 37 25.5 62.5t61.5 25.5q37 0 62.5 -25.5t25.5 -62.5q0 -35 -25.5 -60.5t-62.5 -25.5q-36 0 -61.5 25.5t-25.5 60.5zM134 -162l-54 48q67 47 99 121q-13 -6 -30 -6q-31 0 -54 23.5t-23 58.5q0 37 25 62t65 25q39 0 66 -32t27 -82v-5q0 -60 -33 -117t-88 -96z
" />
    <glyph glyph-name="less" unicode="&#x3c;" horiz-adv-x="663" 
d="M585 157v-118l-547 248v88l547 246v-116l-395 -174z" />
    <glyph glyph-name="equal" unicode="=" horiz-adv-x="627" 
d="M72 561h483v-111h-483v111zM72 282h483v-111h-483v111z" />
    <glyph glyph-name="greater" unicode="&#x3e;" horiz-adv-x="663" 
d="M625 375v-88l-547 -248v118l395 174l-395 174v116z" />
    <glyph glyph-name="question" unicode="?" horiz-adv-x="534" 
d="M266 794q98 0 163.5 -59.5t65.5 -151.5q0 -61 -30 -103t-97 -100q-41 -35 -58.5 -61.5t-17.5 -64.5v-24h-115v45q0 52 19.5 90.5t64.5 77.5l27 23q78 69 78 124q0 40 -28.5 66t-72.5 26q-41 0 -76 -24t-54 -71l-103 57q25 65 85 107.5t149 42.5zM161 71q0 -33 23 -55.5
t55 -22.5q33 0 56 22.5t23 55.5t-23.5 56t-55.5 23t-55 -23t-23 -56z" />
    <glyph glyph-name="at" unicode="@" horiz-adv-x="867" 
d="M624 119q-35 0 -66.5 16.5t-45.5 45.5q-22 -29 -55 -45.5t-63 -16.5q-69 0 -116 52t-47 116q0 93 58.5 160.5t144.5 67.5q25 0 54 -14t42 -44l10 55h110l-42 -250q-10 -60 35 -60q43 0 81.5 51.5t38.5 124.5q0 118 -85 197t-218 79q-140 0 -240.5 -100t-100.5 -242
q0 -88 39 -162t116.5 -120.5t179.5 -46.5q115 0 210 69l35 -54q-41 -35 -112 -58t-133 -23q-176 0 -289 113.5t-113 281.5q0 169 120 288t287 119q158 0 264 -96.5t106 -243.5q0 -115 -61 -187.5t-144 -72.5zM445 411q-42 0 -71.5 -34.5t-28.5 -77.5q1 -30 21 -54t52 -24
q40 0 68.5 35.5t28.5 80.5q0 33 -19.5 53.5t-50.5 20.5z" />
    <glyph glyph-name="A" unicode="A" horiz-adv-x="783" 
d="M319 783h145l317 -783h-128l-71 184h-384l-72 -184h-126zM242 293h297l-149 372z" />
    <glyph glyph-name="B" unicode="B" horiz-adv-x="734" 
d="M100 783h299q114 0 183 -55t69 -151q0 -26 -8 -53.5t-35 -62t-70 -53.5q81 -26 115 -79t34 -110q0 -99 -71 -159t-207 -60h-309v783zM222 452h154q76 0 114 31.5t38 80.5t-35 78.5t-110 29.5h-161v-220zM222 111h189q74 0 113.5 32.5t39.5 85.5q0 51 -40 83t-121 32h-181
v-233z" />
    <glyph glyph-name="C" unicode="C" horiz-adv-x="834" 
d="M442 -9q-75 0 -145 27t-126 76.5t-89.5 126t-33.5 168.5q0 174 118 289.5t281 115.5q74 0 137 -21.5t105 -57t70 -75t41 -81.5l-111 -51q-29 76 -90.5 123.5t-153.5 47.5q-107 0 -187 -79.5t-80 -206.5q0 -126 79.5 -206.5t187.5 -80.5q81 0 149.5 47.5t97.5 124.5
l112 -51q-14 -41 -43 -80.5t-73 -75.5t-108 -58t-138 -22z" />
    <glyph glyph-name="D" unicode="D" horiz-adv-x="813" 
d="M766 391q0 -70 -25 -137.5t-73.5 -125t-131 -93t-186.5 -35.5h-250v783h248q87 0 159 -25t119 -65.5t79.5 -93t46.5 -105t14 -103.5zM637 391q0 48 -17 95.5t-50.5 89t-91.5 67.5t-132 26h-123v-555h122q74 0 132 24.5t92 65t51 88.5t17 99z" />
    <glyph glyph-name="E" unicode="E" horiz-adv-x="663" 
d="M223 672v-218h344v-111h-344v-231h382v-112h-505v783h501v-111h-378z" />
    <glyph glyph-name="F" unicode="F" horiz-adv-x="642" 
d="M223 329v-329h-123v783h499v-114h-376v-227h347v-113h-347z" />
    <glyph glyph-name="G" unicode="G" horiz-adv-x="853" 
d="M800 562l-109 -50q-31 75 -91.5 121.5t-153.5 46.5q-115 0 -192.5 -82t-77.5 -205t76 -206t193 -83q99 0 159 49.5t74 126.5h-281v112h414v-43q0 -153 -99.5 -255.5t-265.5 -102.5q-176 0 -287 113t-111 286q0 172 118 288t281 116q134 0 227 -67.5t126 -164.5z" />
    <glyph glyph-name="H" unicode="H" horiz-adv-x="833" 
d="M100 783h123v-328h387v328h123v-783h-123v338h-387v-338h-123v783z" />
    <glyph glyph-name="I" unicode="I" horiz-adv-x="322" 
d="M100 783h123v-783h-123v783z" />
    <glyph glyph-name="J" unicode="J" horiz-adv-x="591" 
d="M258 -9q-79 0 -139 44t-94 126l102 57q44 -112 129 -112q58 0 88.5 35t30.5 91v551h124v-551q0 -107 -67.5 -174t-173.5 -67z" />
    <glyph glyph-name="K" unicode="K" horiz-adv-x="711" 
d="M223 783v-338l312 338h163l-350 -374l370 -409h-166l-329 370v-370h-123v783h123z" />
    <glyph glyph-name="L" unicode="L" horiz-adv-x="592" 
d="M576 114v-114h-476v783h123v-669h353z" />
    <glyph glyph-name="M" unicode="M" horiz-adv-x="1045" 
d="M823 571h-2l-254 -571h-91l-253 568h-2v-568h-121v783h157l265 -599h1l261 599h161v-783h-122v571z" />
    <glyph glyph-name="N" unicode="N" horiz-adv-x="853" 
d="M221 603v-603h-121v783h145l386 -577v577h122v-783h-128z" />
    <glyph glyph-name="O" unicode="O" horiz-adv-x="900" 
d="M48 390q0 170 118 287t285 117q168 0 284.5 -115t116.5 -286t-118 -286.5t-286 -115.5t-284 113.5t-116 285.5zM177 393q0 -120 79 -204t194 -84q114 0 193.5 84t79.5 204t-79.5 203.5t-193.5 83.5q-115 0 -194 -83.5t-79 -203.5z" />
    <glyph glyph-name="P" unicode="P" horiz-adv-x="683" 
d="M651 540q0 -107 -76.5 -178.5t-212.5 -71.5h-139v-290h-123v783h277q137 0 205.5 -71t68.5 -172zM526 537q0 54 -36.5 93t-123.5 39h-143v-266h143q82 0 121 40t39 94z" />
    <glyph glyph-name="Q" unicode="Q" horiz-adv-x="902" 
d="M783 -17l-96 84q-106 -76 -239 -76q-168 0 -284 113.5t-116 285.5q0 170 118 287t285 117q168 0 284.5 -115t116.5 -286q0 -138 -81 -244l90 -76zM177 393q0 -120 79 -204t194 -84q77 0 145 42l-145 125l79 90l148 -131q46 73 46 162q0 120 -79.5 203.5t-193.5 83.5
q-115 0 -194 -83.5t-79 -203.5z" />
    <glyph glyph-name="R" unicode="R" horiz-adv-x="719" 
d="M100 783h294q137 0 202 -69t65 -172q0 -82 -43.5 -140t-122.5 -84l186 -318h-139l-170 297h-149v-297h-123v783zM223 408h158q82 0 118.5 38.5t36.5 92.5q0 25 -6.5 46t-22.5 41t-48 31.5t-78 11.5h-158v-261z" />
    <glyph glyph-name="S" unicode="S" horiz-adv-x="641" 
d="M327 -9q-103 0 -179 49t-109 139l104 54q25 -63 73.5 -96.5t112.5 -33.5q60 0 98.5 29t38.5 78q0 43 -36.5 71t-120.5 54q-127 40 -184 91q-60 53 -60 143q0 94 75.5 159.5t184.5 65.5q99 0 164 -46.5t93 -119.5l-102 -55q-45 110 -158 110q-57 0 -94 -30t-37 -77
q0 -44 36.5 -71t108.5 -49q145 -43 201 -99q56 -54 56 -140q0 -91 -72 -158.5t-194 -67.5z" />
    <glyph glyph-name="T" unicode="T" horiz-adv-x="660" 
d="M20 783h620v-114h-249v-669h-123v669h-248v114z" />
    <glyph glyph-name="U" unicode="U" horiz-adv-x="791" 
d="M700 783v-479q0 -143 -78.5 -228.5t-227.5 -85.5t-226 85.5t-77 222.5v485h123v-480q0 -91 50.5 -144t131.5 -53q85 0 133 53.5t48 139.5v484h123z" />
    <glyph glyph-name="V" unicode="V" horiz-adv-x="773" 
d="M624 783h130l-296 -783h-142l-297 783h137l233 -641z" />
    <glyph glyph-name="W" unicode="W" horiz-adv-x="1174" 
d="M519 783h137l189 -609l179 609h128l-238 -783h-140l-187 612h-1l-189 -612h-138l-236 783h132l176 -609z" />
    <glyph glyph-name="X" unicode="X" horiz-adv-x="732" 
d="M293 403l-274 380h148l200 -285l201 285h145l-272 -379l288 -404h-146l-218 308l-219 -308h-144z" />
    <glyph glyph-name="Y" unicode="Y" horiz-adv-x="751" 
d="M162 783l214 -351l216 351h141l-296 -467v-316h-124v313l-293 470h142z" />
    <glyph glyph-name="Z" unicode="Z" horiz-adv-x="665" 
d="M615 783v-105l-428 -568h437v-110h-586v106l427 567h-411v110h561z" />
    <glyph glyph-name="bracketleft" unicode="[" horiz-adv-x="428" 
d="M208 -30h184v-96h-296v993h296v-95h-184v-802z" />
    <glyph glyph-name="backslash" unicode="\" horiz-adv-x="540" 
d="M150 815l357 -820h-119l-358 820h120z" />
    <glyph glyph-name="bracketright" unicode="]" horiz-adv-x="428" 
d="M37 867h296v-993h-296v96h184v802h-184v95z" />
    <glyph glyph-name="asciicircum" unicode="^" horiz-adv-x="619" 
d="M356 783l216 -332h-123l-139 218l-138 -218h-125l217 332h92z" />
    <glyph glyph-name="underscore" unicode="_" horiz-adv-x="538" 
d="M0 -69h538v-107h-538v107z" />
    <glyph glyph-name="grave" unicode="`" horiz-adv-x="293" 
d="M168 797l103 -172h-104l-145 172h146z" />
    <glyph glyph-name="a" unicode="a" horiz-adv-x="575" 
d="M385 362q0 33 -27.5 56.5t-77.5 23.5q-92 0 -133 -85l-91 52q63 136 227 136q150 0 200 -109q18 -40 18 -96v-340h-117v73q-49 -82 -157 -82q-78 0 -129 44t-51 113v6q0 44 21 77.5t55.5 51t71 26t74.5 8.5h66q50 0 50 45zM384 233h-115q-38 0 -70.5 -19.5t-32.5 -54.5
q0 -33 23.5 -53t61.5 -20q61 0 97 35t36 95v17z" />
    <glyph glyph-name="b" unicode="b" horiz-adv-x="681" 
d="M637 269q0 -112 -75 -194.5t-190 -82.5q-45 0 -98 24t-78 66v-82h-116v814h119v-359q25 42 77 65.5t99 23.5q117 0 189.5 -84t72.5 -191zM197 268q0 -71 44.5 -119.5t115.5 -48.5t115.5 48.5t44.5 119.5t-44.5 120t-115.5 49t-115.5 -49t-44.5 -120z" />
    <glyph glyph-name="c" unicode="c" horiz-adv-x="601" 
d="M322 -9q-118 0 -198 79.5t-80 197.5q0 113 80 195t198 82q90 0 153 -44.5t87 -115.5l-102 -46q-35 98 -137 98q-66 0 -111.5 -47t-45.5 -120q0 -75 45 -123t113 -48q100 0 138 99l104 -46q-23 -65 -85 -113t-159 -48z" />
    <glyph glyph-name="d" unicode="d" horiz-adv-x="681" 
d="M43 268q0 108 73.5 192t192.5 84q43 0 94.5 -21.5t78.5 -64.5v356h119v-814h-116v83q-28 -46 -82.5 -68.5t-96.5 -22.5q-113 0 -188 82.5t-75 193.5zM484 268q0 71 -45 120t-115 49q-71 0 -115.5 -49t-44.5 -120t44.5 -119.5t115.5 -48.5t115.5 48.5t44.5 119.5z" />
    <glyph glyph-name="e" unicode="e" horiz-adv-x="615" 
d="M571 232h-405q1 -60 48 -99.5t108 -39.5q100 0 144 83l86 -57q-34 -62 -95 -95.5t-133 -33.5q-119 0 -199.5 79.5t-80.5 198.5q0 115 77 196t192 81q122 0 191 -76t69 -200q0 -24 -2 -37zM313 443q-55 0 -94 -33t-47 -88h280q-3 56 -42.5 88.5t-96.5 32.5z" />
    <glyph glyph-name="f" unicode="f" horiz-adv-x="404" 
d="M390 809v-102q-18 4 -43 4q-102 0 -102 -106v-71h142v-105h-142v-429h-120v429h-98v105h98v75q0 99 56 153.5t154 54.5q27 0 55 -8z" />
    <glyph glyph-name="g" unicode="g" horiz-adv-x="677" 
d="M303 -4q-113 0 -186.5 81t-73.5 192q0 106 72.5 190t191.5 84q43 0 94 -22.5t80 -67.5v81h116v-527q0 -126 -76.5 -200t-202.5 -74q-195 0 -269 162l99 57q56 -113 168 -113q70 0 116 41.5t46 121.5v84q-29 -46 -81 -68t-94 -22zM480 271q0 70 -44 118t-115 48
t-115 -47.5t-44 -118.5t44.5 -119.5t114.5 -48.5t114.5 48.5t44.5 119.5z" />
    <glyph glyph-name="h" unicode="h" horiz-adv-x="633" 
d="M440 0v299q0 60 -29.5 96.5t-88.5 36.5q-56 0 -89.5 -37t-33.5 -98v-297h-119v814h119v-348q62 79 160 79t149 -60t51 -156v-329h-119z" />
    <glyph glyph-name="i" unicode="i" horiz-adv-x="278" 
d="M61 707q0 32 23 55.5t55 23.5t55 -23.5t23 -55.5t-23 -55t-55 -23t-55 23t-23 55zM199 534h-119v-534h119v534z" />
    <glyph glyph-name="j" unicode="j" horiz-adv-x="286" 
d="M68 707q0 32 23 55.5t55 23.5q33 0 56.5 -23.5t23.5 -55.5t-23.5 -55t-56.5 -23q-32 0 -55 23t-23 55zM87 534v-584q0 -60 -22.5 -83.5t-75.5 -23.5q-17 0 -30 4v-104q25 -8 54 -8q194 0 194 202v597h-120z" />
    <glyph glyph-name="k" unicode="k" horiz-adv-x="580" 
d="M80 814h119v-490h1l207 210h162l-241 -242l254 -292h-157l-223 261h-3v-261h-119v814z" />
    <glyph glyph-name="l" unicode="l" horiz-adv-x="278" 
d="M80 814h119v-814h-119v814z" />
    <glyph glyph-name="m" unicode="m" horiz-adv-x="974" 
d="M431 0v300q0 60 -28 96.5t-87 36.5q-54 0 -85.5 -37.5t-31.5 -98.5v-297h-119v534h116v-72q63 84 159 84q116 0 165 -88q41 45 84 66.5t102 21.5q97 0 145.5 -60t48.5 -156v-330h-119v301q0 61 -27.5 96.5t-86.5 35.5q-55 0 -86.5 -37t-31.5 -98v-298h-118z" />
    <glyph glyph-name="n" unicode="n" horiz-adv-x="633" 
d="M440 0v299q0 60 -29.5 96.5t-88.5 36.5q-56 0 -89.5 -37t-33.5 -98v-297h-119v534h116v-72q61 83 163 83q98 0 149 -60t51 -156v-329h-119z" />
    <glyph glyph-name="o" unicode="o" horiz-adv-x="650" 
d="M43 268q0 117 83 197t200 80q116 0 198 -79t82 -196q0 -118 -81.5 -198.5t-199.5 -80.5q-117 0 -199.5 80t-82.5 197zM165 270q0 -70 45 -120.5t116 -50.5t115 49t44 120t-44.5 120t-115.5 49t-115.5 -48.5t-44.5 -118.5z" />
    <glyph glyph-name="p" unicode="p" horiz-adv-x="681" 
d="M637 269q0 -112 -75 -194.5t-190 -82.5q-40 0 -92.5 21.5t-80.5 64.5v-341h-119v797h116v-83q30 49 82 71t97 22q117 0 189.5 -84t72.5 -191zM197 268q0 -71 44.5 -119.5t115.5 -48.5t115.5 48.5t44.5 119.5t-44.5 120t-115.5 49t-115.5 -49t-44.5 -120z" />
    <glyph glyph-name="q" unicode="q" horiz-adv-x="681" 
d="M43 268q0 108 73.5 192t192.5 84q43 0 94.5 -22t81.5 -67v79h116v-797h-119v343q-29 -45 -81.5 -66.5t-94.5 -21.5q-113 0 -188 82.5t-75 193.5zM484 268q0 71 -45 120t-115 49q-71 0 -115.5 -49t-44.5 -120t44.5 -119.5t115.5 -48.5t115.5 48.5t44.5 119.5z" />
    <glyph glyph-name="r" unicode="r" horiz-adv-x="393" 
d="M372 536v-122q-15 3 -34 3q-68 0 -103.5 -38t-35.5 -108v-271h-119v534h116v-85q50 90 147 90q19 0 29 -3z" />
    <glyph glyph-name="s" unicode="s" horiz-adv-x="502" 
d="M253 -9q-159 0 -221 134l93 52q43 -86 128 -86q34 0 59 16t25 43q0 47 -110 70q-89 18 -133 64q-38 40 -38 97q0 72 58 118t136 46q144 0 200 -120l-92 -52q-36 72 -112 72q-28 0 -51.5 -15t-23.5 -37q0 -26 23.5 -41.5t75.5 -26.5q91 -20 138 -63t47 -105
q0 -73 -56 -119.5t-146 -46.5z" />
    <glyph glyph-name="t" unicode="t" horiz-adv-x="416" 
d="M240 427v-236q0 -48 23 -68.5t69 -20.5q18 0 38 4v-101q-29 -11 -64 -11q-88 0 -136.5 45.5t-48.5 132.5v255h-98v107h98v165h119v-165h131v-107h-131z" />
    <glyph glyph-name="u" unicode="u" horiz-adv-x="633" 
d="M193 534v-299q0 -60 29.5 -96.5t88.5 -36.5q56 0 89.5 37t33.5 98v297h119v-534h-116v72q-61 -83 -163 -83q-97 0 -148.5 60.5t-51.5 156.5v328h119z" />
    <glyph glyph-name="v" unicode="v" horiz-adv-x="604" 
d="M146 534l157 -395l157 395h125l-223 -534h-119l-226 534h129z" />
    <glyph glyph-name="w" unicode="w" horiz-adv-x="879" 
d="M858 534l-171 -534h-124l-123 375h-2l-124 -375h-122l-171 534h125l112 -377h1l121 377h120l122 -378h2l112 378h122z" />
    <glyph glyph-name="x" unicode="x" horiz-adv-x="570" 
d="M217 270l-196 264h137l128 -177l129 177h134l-195 -262l202 -272h-137l-135 186l-134 -186h-136z" />
    <glyph glyph-name="y" unicode="y" horiz-adv-x="612" 
d="M318 184l154 350h129l-367 -797h-127l147 323l-238 474h136z" />
    <glyph glyph-name="z" unicode="z" horiz-adv-x="529" 
d="M482 534v-95l-294 -335h295v-104h-440v99l290 331h-282v104h431z" />
    <glyph glyph-name="braceleft" unicode="{" horiz-adv-x="450" 
d="M132 97l16 110q10 65 -23.5 89.5t-96.5 24.5h-7v97h7q62 0 96 25.5t24 90.5l-16 110q-19 123 40.5 173t185.5 50h55v-95h-48q-64 0 -92.5 -20t-29 -57.5t7.5 -92.5l12 -80q8 -49 -18 -93.5t-99 -57.5v-1q51 -9 80 -37t35.5 -56t2.5 -57l-13 -81q-8 -55 -7.5 -92.5
t29 -57.5t92.5 -20h48v-95h-55q-127 0 -186 49t-40 174z" />
    <glyph glyph-name="bar" unicode="|" horiz-adv-x="304" 
d="M96 891h112v-1007h-112v1007z" />
    <glyph glyph-name="braceright" unicode="}" horiz-adv-x="450" 
d="M302 207l16 -110q18 -125 -41 -174t-185 -49h-54v95h47q64 0 92.5 20t29 57.5t-7.5 92.5l-13 81q-5 18 0 41.5t15.5 45t37.5 39t66 24.5v1q-39 7 -66 24.5t-37.5 39t-15 45t0.5 42.5l12 80q8 55 7.5 92.5t-29 57.5t-92.5 20h-47v95h54q126 0 185 -50t41 -173l-16 -110
q-10 -65 24 -90.5t96 -25.5h8v-97h-8q-40 0 -67 -8.5t-43.5 -34.5t-9.5 -71z" />
    <glyph glyph-name="asciitilde" unicode="~" horiz-adv-x="635" 
d="M422 207q-43 0 -112 40.5t-99 40.5q-43 0 -77 -46l-69 65q55 94 146 94q39 0 80 -20.5t74.5 -40.5t56.5 -20q43 0 78 46l68 -65q-54 -94 -146 -94z" />
    <glyph glyph-name="exclamdown" unicode="&#xa1;" horiz-adv-x="295" 
d="M226 467q0 33 -23 55.5t-55 22.5q-33 0 -56 -22.5t-23 -55.5t23 -56t56 -23q32 0 55 23t23 56zM211 -126v-119h-128v119l10 434h108z" />
    <glyph glyph-name="cent" unicode="&#xa2;" horiz-adv-x="601" 
d="M462 198l104 -46q-21 -58 -73.5 -104t-135.5 -55v-95h-75v96q-103 14 -170.5 90.5t-67.5 183.5q0 103 67.5 181.5t170.5 92.5v95h75v-94q76 -9 130 -52t75 -106l-102 -46q-30 82 -104 95v-332q75 13 106 96zM166 270q0 -62 32.5 -107t84.5 -59v328q-51 -13 -84 -57
t-33 -105z" />
    <glyph glyph-name="sterling" unicode="&#xa3;" horiz-adv-x="650" 
d="M538 171l83 -58q-23 -59 -71 -91.5t-111 -32.5q-50 0 -104.5 23.5t-90.5 23.5q-56 0 -130 -41l-66 116q153 92 153 177q0 24 -11 51h-128v102h78q-37 70 -37 124q0 92 74.5 160.5t179.5 68.5q97 0 159 -46.5t85 -119.5l-105 -51q-37 106 -138 106q-54 0 -91.5 -33.5
t-37.5 -93.5q0 -42 41 -115h221v-102h-176q6 -21 6 -44q0 -94 -102 -158v-1q25 10 46 10q43 0 92 -22t84 -22q28 0 54 19t43 50z" />
    <glyph glyph-name="currency" unicode="&#xa4;" horiz-adv-x="671" 
d="M97 271q0 67 38 126h1l-86 88l74 73l88 -90q57 33 124 33q68 0 123 -33l89 89l73 -73l-85 -87q39 -56 39 -126q0 -60 -38 -125l-2 -3l87 -86l-73 -74l-89 91q-68 -34 -124 -34t-124 34l-89 -90l-73 74l87 86q-40 57 -40 127zM335 396q-55 0 -91 -35.5t-36 -90.5t36 -90
t91 -35t91 35t36 90t-36 90.5t-91 35.5z" />
    <glyph glyph-name="yen" unicode="&#xa5;" horiz-adv-x="757" 
d="M440 221h237v-91h-237v-130h-124v130h-235v91h235v79h-235v92h192l-236 391h142l200 -346l201 346h141l-240 -391h196v-92h-237v-79z" />
    <glyph glyph-name="brokenbar" unicode="&#xa6;" horiz-adv-x="302" 
d="M208 891v-390h-114v390h114zM208 -116h-114v390h114v-390z" />
    <glyph glyph-name="section" unicode="&#xa7;" horiz-adv-x="667" 
d="M342 90q32 0 61.5 15t29.5 46q0 42 -96 66l-107 27q-181 45 -181 147q0 52 32.5 85t86.5 47q-62 40 -62 103q0 78 69.5 123t157.5 45q167 0 230 -123l-91 -56q-42 78 -139 78q-34 0 -66.5 -15t-32.5 -45q0 -45 103 -69l100 -24q182 -44 182 -147q0 -100 -119 -132
q27 -16 44.5 -44t17.5 -59q0 -81 -66.5 -125.5t-153.5 -44.5q-106 0 -169 38t-98 110l92 55q56 -101 175 -101zM254 472q-37 0 -61 -17t-24 -43q0 -25 29.5 -43.5t99.5 -35.5q81 -20 115 -20q37 0 61.5 17.5t24.5 43.5q0 25 -30 43t-100 35q-81 20 -115 20z" />
    <glyph glyph-name="dieresis" unicode="&#xa8;" horiz-adv-x="420" 
d="M99 621q-31 0 -53 22t-22 53t21.5 53t53.5 22q31 0 53 -22.5t22 -52.5q0 -31 -22 -53t-53 -22zM321 621q-31 0 -53 21.5t-22 53.5q0 31 21.5 53t53.5 22q31 0 53 -22.5t22 -52.5q0 -31 -22 -53t-53 -22z" />
    <glyph glyph-name="copyright" unicode="&#xa9;" horiz-adv-x="896" 
d="M447 -9q-164 0 -280.5 117.5t-116.5 283.5t116.5 284t280.5 118q165 0 281.5 -117.5t116.5 -284.5q0 -166 -116.5 -283.5t-281.5 -117.5zM447 730q-138 0 -234 -98.5t-96 -239.5t96 -239t234 -98q139 0 235 98t96 239t-96 239.5t-235 98.5zM455 145q-105 0 -176.5 71
t-71.5 176q0 101 71.5 174t176.5 73q80 0 136.5 -40t77.5 -103l-91 -41q-31 88 -122 88q-59 0 -99.5 -42t-40.5 -107q0 -67 40 -110t101 -43q89 0 123 88l92 -41q-20 -58 -75 -100.5t-142 -42.5z" />
    <glyph glyph-name="ordfeminine" unicode="&#xaa;" horiz-adv-x="557" 
d="M377 387v48q-20 -27 -54.5 -40.5t-61.5 -13.5q-80 0 -133.5 58t-53.5 135q0 75 52 134t137 59q72 0 114 -53v45h93v-372h-93zM273 681q-46 0 -75 -31t-29 -76t29.5 -76.5t75.5 -31.5t75 31.5t29 76.5t-29.5 76t-75.5 31zM79 205v84h391v-84h-391z" />
    <glyph glyph-name="guillemotleft" unicode="&#xab;" horiz-adv-x="635" 
d="M260 81l-224 220l224 221l69 -67l-156 -154l156 -153zM510 81l-224 220l224 221l69 -67l-156 -154l157 -153z" />
    <glyph glyph-name="logicalnot" unicode="&#xac;" horiz-adv-x="695" 
d="M619 239h-113v209h-457v110h570v-319z" />
    <glyph glyph-name="registered" unicode="&#xae;" horiz-adv-x="649" 
d="M324 258q-110 0 -188.5 78.5t-78.5 189.5t78.5 189.5t188.5 78.5q111 0 189.5 -78.5t78.5 -189.5t-78.5 -189.5t-189.5 -78.5zM324 744q-89 0 -151 -64t-62 -154t62 -153.5t151 -63.5q90 0 152.5 63.5t62.5 153.5t-62.5 154t-152.5 64zM221 373v307h114q54 0 80.5 -28.5
t26.5 -69.5q0 -61 -53 -85l64 -124h-69l-56 110h-45v-110h-62zM379 581q0 41 -49 41h-47v-82h47q26 0 37.5 12.5t11.5 28.5z" />
    <glyph glyph-name="macron" unicode="&#xaf;" horiz-adv-x="386" 
d="M366 730v-95h-346v95h346z" />
    <glyph glyph-name="degree" unicode="&#xb0;" horiz-adv-x="453" 
d="M226 431q-74 0 -126.5 52.5t-52.5 127.5q0 73 53 126t126 53q75 0 127.5 -53t52.5 -126q0 -75 -52.5 -127.5t-127.5 -52.5zM226 693q-34 0 -57.5 -23.5t-23.5 -58.5t23.5 -59t57.5 -24t58 24t24 59q0 32 -24.5 57t-57.5 25z" />
    <glyph glyph-name="plusminus" unicode="&#xb1;" 
d="M70 370v109h213v177h113v-177h213v-109h-213v-181h-113v181h-213zM71 131h537v-107h-537v107z" />
    <glyph glyph-name="uni00B2" unicode="&#xb2;" horiz-adv-x="465" 
d="M234 891q75 0 119.5 -41.5t44.5 -103.5q0 -46 -24.5 -80.5t-79.5 -79.5l-89 -71h195v-89h-339v83l174 141q64 52 64 91q0 25 -17.5 42.5t-50.5 17.5q-51 0 -75 -64l-89 37q17 54 61.5 85.5t105.5 31.5z" />
    <glyph glyph-name="uni00B3" unicode="&#xb3;" horiz-adv-x="441" 
d="M214 417q-63 0 -107 30.5t-61 81.5l83 37q24 -62 87 -62q32 0 53.5 14.5t21.5 39.5q0 54 -75 54h-53v88h49q70 0 70 53q0 23 -17 37.5t-53 14.5q-56 0 -80 -61l-84 37q18 50 61.5 80t104.5 30q70 0 118 -36.5t48 -94.5q0 -32 -18.5 -59.5t-49.5 -40.5v-1q36 -11 56 -38.5
t20 -65.5q0 -60 -50.5 -99t-123.5 -39z" />
    <glyph glyph-name="acute" unicode="&#xb4;" horiz-adv-x="285" 
d="M17 625l103 172h145l-145 -172h-103z" />
    <glyph glyph-name="uni00B5" unicode="&#xb5;" horiz-adv-x="661" 
d="M209 534v-299q0 -60 29.5 -96.5t88.5 -36.5q57 0 90.5 37t33.5 98v297h119v-534h-116v72q-61 -81 -159 -81q-52 0 -89 25v-180h-116v698h119z" />
    <glyph glyph-name="paragraph" unicode="&#xb6;" horiz-adv-x="541" 
d="M312 360h-52q-93 0 -158.5 62.5t-65.5 149.5q0 88 65.5 149.5t158.5 61.5h176v-783h-124v360z" />
    <glyph glyph-name="periodcentered" unicode="&#xb7;" horiz-adv-x="302" 
d="M63 323q0 37 26 63t62 26q37 0 62 -26t25 -63q0 -36 -25.5 -61.5t-61.5 -25.5t-62 26t-26 61z" />
    <glyph glyph-name="cedilla" unicode="&#xb8;" horiz-adv-x="300" 
d="M172 0h82q26 -37 26 -86q0 -75 -53.5 -116.5t-130.5 -41.5q-47 0 -76 12v80q27 -8 66 -8q47 0 76 23t29 69q0 36 -19 68z" />
    <glyph glyph-name="uni00B9" unicode="&#xb9;" horiz-adv-x="347" 
d="M171 881h100v-455h-104v350l-103 -61l-45 75z" />
    <glyph glyph-name="ordmasculine" unicode="&#xba;" horiz-adv-x="546" 
d="M273 381q-82 0 -140.5 55.5t-58.5 137.5t58.5 137.5t141.5 55.5q82 0 140 -55t58 -136q0 -83 -57.5 -139t-141.5 -56zM273 681q-46 0 -75 -30t-29 -75t29.5 -77t75.5 -32t74.5 31t28.5 76q0 46 -29 76.5t-75 30.5zM79 205v84h388v-84h-388z" />
    <glyph glyph-name="guillemotright" unicode="&#xbb;" horiz-adv-x="635" 
d="M350 301l-224 -220l-70 67l156 152l-155 155l68 67zM600 301l-224 -220l-69 67l156 152l-156 155l69 67z" />
    <glyph glyph-name="onequarter" unicode="&#xbc;" horiz-adv-x="959" 
d="M285 328h-103v350l-104 -61l-45 74l152 92h100v-455zM665 783h117l-509 -783h-118zM839 455v-274h77v-88h-77v-93h-97v93h-230v105l204 257h123zM607 181h135v170z" />
    <glyph glyph-name="onehalf" unicode="&#xbd;" horiz-adv-x="969" 
d="M284 328h-103v350l-104 -61l-45 74l152 92h100v-455zM665 783h117l-509 -783h-118zM748 465q75 0 119.5 -41.5t44.5 -103.5q0 -46 -24.5 -80.5t-79.5 -79.5l-89 -71h195v-89h-339v83l174 141q64 52 64 91q0 25 -17.5 42.5t-50.5 17.5q-51 0 -75 -64l-89 37
q17 54 61.5 85.5t105.5 31.5z" />
    <glyph glyph-name="threequarters" unicode="&#xbe;" horiz-adv-x="983" 
d="M211 319q-63 0 -107 30.5t-61 81.5l83 37q24 -62 87 -62q32 0 53.5 14.5t21.5 39.5q0 54 -75 54h-53v88h49q70 0 70 53q0 23 -17 37.5t-53 14.5q-56 0 -80 -61l-84 37q18 50 61.5 80t104.5 30q70 0 118 -36.5t48 -94.5q0 -32 -18.5 -59.5t-49.5 -40.5v-1q36 -11 56 -38.5
t20 -65.5q0 -60 -50.5 -99t-123.5 -39zM695 783h117l-509 -783h-118zM869 455v-274h77v-88h-77v-93h-97v93h-230v105l204 257h123zM637 181h135v170z" />
    <glyph glyph-name="questiondown" unicode="&#xbf;" horiz-adv-x="528" 
d="M367 467q0 -33 -23 -56t-55 -23t-55.5 23t-23.5 56t23 55.5t56 22.5q32 0 55 -22.5t23 -55.5zM262 -256q89 0 149 42.5t85 107.5l-103 57q-19 -47 -54 -71t-76 -24q-44 0 -72.5 26t-28.5 66q0 55 78 124l27 23q45 39 64.5 77.5t19.5 90.5v45h-115v-24q0 -38 -17.5 -64.5
t-58.5 -61.5q-45 -39 -67 -62t-41 -60.5t-19 -80.5q0 -92 65.5 -151.5t163.5 -59.5z" />
    <glyph glyph-name="Agrave" unicode="&#xc0;" horiz-adv-x="783" 
d="M343 1027l103 -172h-103l-145 172h145zM319 783h145l317 -783h-128l-71 184h-384l-72 -184h-126zM242 293h297l-149 372z" />
    <glyph glyph-name="Aacute" unicode="&#xc1;" horiz-adv-x="783" 
d="M339 854l103 172h145l-145 -172h-103zM319 783h145l317 -783h-128l-71 184h-384l-72 -184h-126zM242 293h297l-149 372z" />
    <glyph glyph-name="Acircumflex" unicode="&#xc2;" horiz-adv-x="783" 
d="M578 854h-114l-74 92l-69 -92h-118l138 172h93zM319 783h145l317 -783h-128l-71 184h-384l-72 -184h-126zM242 293h297l-149 372z" />
    <glyph glyph-name="Atilde" unicode="&#xc3;" horiz-adv-x="783" 
d="M317 922q-38 0 -39 -66h-81q-4 72 28 113.5t92 41.5q35 0 61 -17.5t45 -34.5t37 -17q38 0 39 66h82q3 -72 -29 -113.5t-92 -41.5q-34 0 -60.5 17.5t-46 34.5t-36.5 17zM319 783h145l317 -783h-128l-71 184h-384l-72 -184h-126zM242 293h297l-149 372z" />
    <glyph glyph-name="Adieresis" unicode="&#xc4;" horiz-adv-x="783" 
d="M277 849q-31 0 -52.5 22t-21.5 53t21 53.5t53 22.5q31 0 53 -22.5t22 -53.5t-22 -53t-53 -22zM509 849q-31 0 -52.5 21.5t-21.5 53.5q0 31 21 53.5t53 22.5q31 0 53 -22.5t22 -53.5t-22 -53t-53 -22zM319 783h145l317 -783h-128l-71 184h-384l-72 -184h-126zM242 293h297
l-149 372z" />
    <glyph glyph-name="Aring" unicode="&#xc5;" horiz-adv-x="782" 
d="M126 0h-126l299 735q-53 41 -53 108q0 57 43 97.5t102 40.5q60 0 102.5 -40.5t42.5 -97.5q0 -66 -52 -108l297 -735h-128l-71 184h-384zM391 908q-30 0 -49.5 -19t-19.5 -46t20 -46.5t49 -19.5t48.5 19.5t19.5 46.5q0 25 -20.5 45t-47.5 20zM390 665l-148 -372h297z" />
    <glyph glyph-name="AE" unicode="&#xc6;" horiz-adv-x="1053" 
d="M991 783v-111h-374v-218h340v-111h-340v-231h378v-112h-500v184h-274l-99 -184h-134l426 783h577zM484 673l-204 -380h215v380h-11z" />
    <glyph glyph-name="Ccedilla" unicode="&#xc7;" horiz-adv-x="834" 
d="M692 278l112 -51q-13 -38 -39 -75t-65.5 -71.5t-96.5 -58.5t-122 -29q23 -38 23 -79q0 -75 -54 -116.5t-130 -41.5q-48 0 -77 12v80q27 -8 66 -8q47 0 76 23t29 69q0 28 -15 61q-69 8 -131.5 38t-112 79t-78.5 121.5t-29 157.5q0 174 118 289.5t281 115.5q74 0 137 -21.5
t105 -57t70 -75t41 -81.5l-111 -51q-29 76 -90.5 123.5t-153.5 47.5q-107 0 -187 -79.5t-80 -206.5q0 -126 79.5 -206.5t187.5 -80.5q81 0 149.5 47.5t97.5 124.5z" />
    <glyph glyph-name="Egrave" unicode="&#xc8;" horiz-adv-x="664" 
d="M340 1027l103 -172h-103l-146 172h146zM223 454v218h379v111h-502v-783h505v112h-382v231h344v111h-344z" />
    <glyph glyph-name="Eacute" unicode="&#xc9;" horiz-adv-x="664" 
d="M292 854l103 172h146l-145 -172h-104zM223 672v-218h344v-111h-344v-231h382v-112h-505v783h502v-111h-379z" />
    <glyph glyph-name="Ecircumflex" unicode="&#xca;" horiz-adv-x="664" 
d="M397 1026l144 -172h-114l-74 92l-69 -92h-119l139 172h93zM223 454v218h379v111h-502v-783h505v112h-382v231h344v111h-344z" />
    <glyph glyph-name="Edieresis" unicode="&#xcb;" horiz-adv-x="663" 
d="M237 849q-31 0 -52.5 22t-21.5 53t21 53.5t53 22.5q31 0 53 -22.5t22 -53.5t-22 -53t-53 -22zM469 849q-31 0 -52.5 21.5t-21.5 53.5q0 31 21 53.5t53 22.5q31 0 53 -22.5t22 -53.5t-22 -53t-53 -22zM223 672v-218h344v-111h-344v-231h382v-112h-505v783h501v-111h-378z
" />
    <glyph glyph-name="Igrave" unicode="&#xcc;" horiz-adv-x="322" 
d="M111 1027l102 -172h-103l-145 172h146zM223 783h-123v-783h123v783z" />
    <glyph glyph-name="Iacute" unicode="&#xcd;" horiz-adv-x="322" 
d="M109 854l103 172h146l-145 -172h-104zM100 783h123v-783h-123v783z" />
    <glyph glyph-name="Icircumflex" unicode="&#xce;" horiz-adv-x="322" 
d="M206 1026l143 -172h-114l-73 92l-70 -92h-119l139 172h94zM223 783h-123v-783h123v783z" />
    <glyph glyph-name="Idieresis" unicode="&#xcf;" horiz-adv-x="322" 
d="M52 849q-32 0 -53.5 21.5t-21.5 53.5q0 31 21.5 53.5t53.5 22.5q31 0 53 -22.5t22 -53.5t-22 -53t-53 -22zM269 849q-31 0 -52.5 22t-21.5 53t21.5 53.5t52.5 22.5t53 -22.5t22 -53.5q0 -32 -22 -53.5t-53 -21.5zM100 783h123v-783h-123v783z" />
    <glyph glyph-name="Eth" unicode="&#xd0;" horiz-adv-x="834" 
d="M121 454v329h248q87 0 159 -25t119 -65.5t79.5 -93t46.5 -105t14 -103.5q0 -70 -25 -137.5t-73.5 -125t-131 -93t-186.5 -35.5h-250v343h-106v111h106zM244 343v-229h122q74 0 132 24.5t92 65t51 88.5t17 99q0 48 -17 95.5t-50.5 89t-91.5 67.5t-132 26h-123v-215h173
v-111h-173z" />
    <glyph glyph-name="Ntilde" unicode="&#xd1;" horiz-adv-x="853" 
d="M358 922q-38 0 -39 -66h-81q-4 72 28 113.5t92 41.5q35 0 61 -17.5t45 -34.5t37 -17q38 0 39 66h82q3 -72 -29 -113.5t-92 -41.5q-34 0 -60.5 17.5t-46 34.5t-36.5 17zM221 603v-603h-121v783h145l386 -577v577h122v-783h-128z" />
    <glyph glyph-name="Ograve" unicode="&#xd2;" horiz-adv-x="900" 
d="M407 1027l102 -172h-103l-145 172h146zM48 390q0 170 118 287t285 117q168 0 284.5 -115t116.5 -286t-118 -286.5t-286 -115.5t-284 113.5t-116 285.5zM177 393q0 -120 79 -204t194 -84q114 0 193.5 84t79.5 204t-79.5 203.5t-193.5 83.5q-115 0 -194 -83.5t-79 -203.5z
" />
    <glyph glyph-name="Oacute" unicode="&#xd3;" horiz-adv-x="900" 
d="M396 854l103 172h146l-145 -172h-104zM48 390q0 170 118 287t285 117q168 0 284.5 -115t116.5 -286t-118 -286.5t-286 -115.5t-284 113.5t-116 285.5zM177 393q0 -120 79 -204t194 -84q114 0 193.5 84t79.5 204t-79.5 203.5t-193.5 83.5q-115 0 -194 -83.5t-79 -203.5z
" />
    <glyph glyph-name="Ocircumflex" unicode="&#xd4;" horiz-adv-x="900" 
d="M494 1026l143 -172h-114l-73 92l-70 -92h-118l138 172h94zM48 390q0 170 118 287t285 117q168 0 284.5 -115t116.5 -286t-118 -286.5t-286 -115.5t-284 113.5t-116 285.5zM177 393q0 -120 79 -204t194 -84q114 0 193.5 84t79.5 204t-79.5 203.5t-193.5 83.5
q-115 0 -194 -83.5t-79 -203.5z" />
    <glyph glyph-name="Otilde" unicode="&#xd5;" horiz-adv-x="900" 
d="M379 922q-38 0 -39 -66h-81q-4 72 28 113.5t92 41.5q35 0 61 -17.5t45 -34.5t37 -17q38 0 39 66h82q3 -72 -29 -113.5t-92 -41.5q-34 0 -60.5 17.5t-46 34.5t-36.5 17zM48 390q0 170 118 287t285 117q168 0 284.5 -115t116.5 -286t-118 -286.5t-286 -115.5t-284 113.5
t-116 285.5zM177 393q0 -120 79 -204t194 -84q114 0 193.5 84t79.5 204t-79.5 203.5t-193.5 83.5q-115 0 -194 -83.5t-79 -203.5z" />
    <glyph glyph-name="Odieresis" unicode="&#xd6;" horiz-adv-x="900" 
d="M336 849q-32 0 -53.5 21.5t-21.5 53.5q0 31 21.5 53.5t53.5 22.5q31 0 53 -22.5t22 -53.5t-22 -53t-53 -22zM567 849q-31 0 -52.5 22t-21.5 53t21.5 53.5t52.5 22.5t53.5 -22.5t22.5 -53.5t-22 -53t-54 -22zM48 390q0 170 118 287t285 117q168 0 284.5 -115t116.5 -286
t-118 -286.5t-286 -115.5t-284 113.5t-116 285.5zM177 393q0 -120 79 -204t194 -84q114 0 193.5 84t79.5 204t-79.5 203.5t-193.5 83.5q-115 0 -194 -83.5t-79 -203.5z" />
    <glyph glyph-name="multiply" unicode="&#xd7;" horiz-adv-x="676" 
d="M59 547l76 78l203 -205l203 205l76 -78l-202 -203l202 -202l-76 -79l-203 204l-203 -204l-76 79l202 202z" />
    <glyph glyph-name="Oslash" unicode="&#xd8;" horiz-adv-x="906" 
d="M859 756l-97 -103q93 -111 93 -260q0 -171 -118 -286.5t-286 -115.5q-137 0 -242 77l-92 -94l-68 64l91 96q-89 108 -89 256q0 170 118 287t285 117q134 0 239 -77l98 103zM180 393q0 -95 48 -166l382 402q-70 51 -157 51q-115 0 -194 -83.5t-79 -203.5zM726 393
q0 94 -51 169l-384 -403q70 -54 162 -54q114 0 193.5 84t79.5 204z" />
    <glyph glyph-name="Ugrave" unicode="&#xd9;" horiz-adv-x="791" 
d="M355 1027l103 -172h-103l-145 172h145zM577 783v-484q0 -86 -48 -139.5t-133 -53.5q-81 0 -131.5 53t-50.5 144v480h-123v-485q0 -137 77 -222.5t226 -85.5t227.5 85.5t78.5 228.5v479h-123z" />
    <glyph glyph-name="Uacute" unicode="&#xda;" horiz-adv-x="792" 
d="M334 854l103 172h145l-145 -172h-103zM701 783v-479q0 -143 -78.5 -228.5t-227.5 -85.5q-150 0 -227 85.5t-77 222.5v485h124v-480q0 -91 50.5 -144t131.5 -53q85 0 133 53.5t48 139.5v484h123z" />
    <glyph glyph-name="Ucircumflex" unicode="&#xdb;" horiz-adv-x="792" 
d="M440 1026l143 -172h-113l-74 92l-69 -92h-119l139 172h93zM578 783v-484q0 -86 -48 -139.5t-133 -53.5q-81 0 -131.5 53t-50.5 144v480h-124v-485q0 -137 77 -222.5t227 -85.5q149 0 227.5 85.5t78.5 228.5v479h-123z" />
    <glyph glyph-name="Udieresis" unicode="&#xdc;" horiz-adv-x="791" 
d="M280 849q-32 0 -53.5 21.5t-21.5 53.5q0 31 21.5 53.5t53.5 22.5q31 0 52.5 -22.5t21.5 -53.5t-21.5 -53t-52.5 -22zM511 849q-31 0 -52.5 22t-21.5 53t21.5 53.5t52.5 22.5t53 -22.5t22 -53.5q0 -32 -22 -53.5t-53 -21.5zM700 783v-479q0 -143 -78.5 -228.5
t-227.5 -85.5t-226 85.5t-77 222.5v485h123v-480q0 -91 50.5 -144t131.5 -53q85 0 133 53.5t48 139.5v484h123z" />
    <glyph glyph-name="Yacute" unicode="&#xdd;" horiz-adv-x="751" 
d="M315 854l102 172h146l-145 -172h-103zM162 783l215 -351l216 351h140l-295 -467v-316h-124v313l-294 470h142z" />
    <glyph glyph-name="Thorn" unicode="&#xde;" horiz-adv-x="682" 
d="M222 644h154q71 0 125.5 -20.5t86 -56t47 -77.5t15.5 -90q0 -107 -76 -178t-212 -71h-140v-151h-122v784h122v-140zM222 264h144q81 0 120 40t39 93q0 55 -36 94t-123 39h-144v-266z" />
    <glyph glyph-name="germandbls" unicode="&#xdf;" horiz-adv-x="687" 
d="M654 161q0 -74 -54.5 -122.5t-139.5 -48.5q-144 0 -196 109l86 57q17 -30 43.5 -48t56.5 -18q40 0 63.5 17t23.5 49q0 23 -23 42.5t-95 52.5q-115 53 -115 154q0 37 22 73.5t48.5 60.5t48.5 50t22 45q0 35 -29 55t-79 20q-64 0 -101.5 -44.5t-37.5 -117.5v-547h-118v547
q0 134 74 202t188 68q92 0 159.5 -44t67.5 -123q0 -42 -19.5 -74t-64.5 -76q-53 -52 -61 -67q-6 -12 -6 -26q0 -18 19 -32t74 -42q9 -5 14 -7q71 -37 100 -74t29 -91z" />
    <glyph glyph-name="agrave" unicode="&#xe0;" horiz-adv-x="575" 
d="M239 797l103 -172h-103l-145 172h145zM385 362q0 33 -27.5 56.5t-77.5 23.5q-92 0 -133 -85l-91 52q63 136 227 136q150 0 200 -109q18 -40 18 -96v-340h-117v73q-49 -82 -157 -82q-78 0 -129 44t-51 113v6q0 44 21 77.5t55.5 51t71 26t74.5 8.5h66q50 0 50 45zM384 233
h-115q-38 0 -70.5 -19.5t-32.5 -54.5q0 -33 23.5 -53t61.5 -20q61 0 97 35t36 95v17z" />
    <glyph glyph-name="aacute" unicode="&#xe1;" horiz-adv-x="575" 
d="M224 625l103 172h145l-145 -172h-103zM385 362q0 33 -27.5 56.5t-77.5 23.5q-92 0 -133 -85l-91 52q63 136 227 136q150 0 200 -109q18 -40 18 -96v-340h-117v73q-49 -82 -157 -82q-78 0 -129 44t-51 113v6q0 44 21 77.5t55.5 51t71 26t74.5 8.5h66q50 0 50 45zM384 233
h-115q-38 0 -70.5 -19.5t-32.5 -54.5q0 -33 23.5 -53t61.5 -20q61 0 97 35t36 95v17z" />
    <glyph glyph-name="acircumflex" unicode="&#xe2;" horiz-adv-x="575" 
d="M325 797l144 -172h-114l-74 92l-69 -92h-118l138 172h93zM385 362q0 33 -27.5 56.5t-77.5 23.5q-92 0 -133 -85l-91 52q63 136 227 136q150 0 200 -109q18 -40 18 -96v-340h-117v73q-49 -82 -157 -82q-78 0 -129 44t-51 113v6q0 44 21 77.5t55.5 51t71 26t74.5 8.5h66
q50 0 50 45zM384 233h-115q-38 0 -70.5 -19.5t-32.5 -54.5q0 -33 23.5 -53t61.5 -20q61 0 97 35t36 95v17z" />
    <glyph glyph-name="atilde" unicode="&#xe3;" horiz-adv-x="575" 
d="M208 693q-38 0 -39 -66h-81q-4 72 28 113.5t92 41.5q27 0 49.5 -11t35 -23.5t28 -23.5t30.5 -11q38 0 39 66h82q3 -72 -29 -113.5t-92 -41.5q-27 0 -49.5 11t-35 23.5t-28.5 23.5t-30 11zM385 362q0 33 -27.5 56.5t-77.5 23.5q-92 0 -133 -85l-91 52q63 136 227 136
q150 0 200 -109q18 -40 18 -96v-340h-117v73q-49 -82 -157 -82q-78 0 -129 44t-51 113v6q0 44 21 77.5t55.5 51t71 26t74.5 8.5h66q50 0 50 45zM384 233h-115q-38 0 -70.5 -19.5t-32.5 -54.5q0 -33 23.5 -53t61.5 -20q61 0 97 35t36 95v17z" />
    <glyph glyph-name="adieresis" unicode="&#xe4;" horiz-adv-x="575" 
d="M171 621q-31 0 -52.5 22t-21.5 53q0 30 21.5 52.5t52.5 22.5t53.5 -22.5t22.5 -52.5q0 -31 -22 -53t-54 -22zM394 621q-32 0 -53.5 21.5t-21.5 53.5q0 31 21.5 53t53.5 22q31 0 52.5 -22.5t21.5 -52.5q0 -31 -21.5 -53t-52.5 -22zM385 362q0 33 -27.5 56.5t-77.5 23.5
q-92 0 -133 -85l-91 52q63 136 227 136q150 0 200 -109q18 -40 18 -96v-340h-117v73q-49 -82 -157 -82q-78 0 -129 44t-51 113v6q0 44 21 77.5t55.5 51t71 26t74.5 8.5h66q50 0 50 45zM384 233h-115q-38 0 -70.5 -19.5t-32.5 -54.5q0 -33 23.5 -53t61.5 -20q61 0 97 35
t36 95v17z" />
    <glyph glyph-name="aring" unicode="&#xe5;" horiz-adv-x="575" 
d="M483 436q18 -40 18 -96v-340h-117v73q-49 -82 -157 -82q-78 0 -129 44t-51 113v6q0 44 21 77.5t55.5 51t71 26t74.5 8.5h66q50 0 50 45q0 33 -27.5 56.5t-77.5 23.5q-92 0 -133 -85l-91 52q36 78 111 113q-30 38 -30 85q0 57 43.5 97.5t102.5 40.5q60 0 103 -40.5
t43 -97.5q0 -49 -30 -85q58 -29 84 -86zM283 671q-30 0 -49.5 -18.5t-19.5 -45.5t20 -46.5t49 -19.5t48.5 19.5t19.5 46.5q0 25 -20.5 44.5t-47.5 19.5zM384 233h-115q-38 0 -70.5 -19.5t-32.5 -54.5q0 -33 23.5 -53t61.5 -20q61 0 97 35t36 95v17z" />
    <glyph glyph-name="ae" unicode="&#xe6;" horiz-adv-x="951" 
d="M389 362q0 34 -27.5 57t-78.5 23q-95 0 -136 -85l-91 52q63 136 227 136q126 0 179 -77q74 77 189 77q121 0 189.5 -76.5t68.5 -199.5q0 -24 -1 -37h-409q2 -60 50 -99.5t109 -39.5q100 0 144 83l86 -57q-34 -62 -95 -95.5t-133 -33.5q-133 0 -215 97q-83 -96 -213 -96
h-3q-78 0 -130 44t-52 113v6q0 44 21 77.5t55.5 51t71 26t74.5 8.5h76q44 0 44 45zM505 322h285q-3 56 -42 88.5t-99 32.5q-56 0 -96 -33t-48 -88zM387 233h-118q-38 0 -70.5 -19.5t-32.5 -54.5q0 -33 23.5 -53t61.5 -20q62 0 99 34.5t37 95.5v17z" />
    <glyph glyph-name="ccedilla" unicode="&#xe7;" horiz-adv-x="601" 
d="M462 198l104 -46q-20 -56 -70 -101t-127 -57q23 -37 23 -80q0 -75 -54 -116.5t-130 -41.5q-48 0 -77 12v80q27 -8 66 -8q47 0 76 23t29 69q0 28 -14 61q-106 12 -175 89.5t-69 185.5q0 113 80 195t198 82q90 0 153 -44.5t87 -115.5l-102 -46q-35 98 -137 98
q-66 0 -111.5 -47t-45.5 -120q0 -75 45 -123t113 -48q100 0 138 99z" />
    <glyph glyph-name="egrave" unicode="&#xe8;" horiz-adv-x="615" 
d="M268 797l102 -172h-103l-145 172h146zM571 232h-405q1 -60 48 -99.5t108 -39.5q100 0 144 83l86 -57q-34 -62 -95 -95.5t-133 -33.5q-119 0 -199.5 79.5t-80.5 198.5q0 115 77 196t192 81q122 0 191 -76t69 -200q0 -24 -2 -37zM313 443q-55 0 -94 -33t-47 -88h280
q-3 56 -42.5 88.5t-96.5 32.5z" />
    <glyph glyph-name="eacute" unicode="&#xe9;" horiz-adv-x="615" 
d="M259 625l102 172h146l-145 -172h-103zM571 232h-405q1 -60 48 -99.5t108 -39.5q100 0 144 83l86 -57q-34 -62 -95 -95.5t-133 -33.5q-119 0 -199.5 79.5t-80.5 198.5q0 115 77 196t192 81q122 0 191 -76t69 -200q0 -24 -2 -37zM313 443q-55 0 -94 -33t-47 -88h280
q-3 56 -42.5 88.5t-96.5 32.5z" />
    <glyph glyph-name="ecircumflex" unicode="&#xea;" horiz-adv-x="615" 
d="M354 797l143 -172h-114l-73 92l-70 -92h-118l138 172h94zM571 232h-405q1 -60 48 -99.5t108 -39.5q100 0 144 83l86 -57q-34 -62 -95 -95.5t-133 -33.5q-119 0 -199.5 79.5t-80.5 198.5q0 115 77 196t192 81q122 0 191 -76t69 -200q0 -24 -2 -37zM313 443q-55 0 -94 -33
t-47 -88h280q-3 56 -42.5 88.5t-96.5 32.5z" />
    <glyph glyph-name="edieresis" unicode="&#xeb;" horiz-adv-x="615" 
d="M200 621q-31 0 -53 22t-22 53t21.5 53t53.5 22q31 0 53 -22.5t22 -52.5q0 -31 -22 -53t-53 -22zM422 621q-32 0 -53.5 21.5t-21.5 53.5q0 31 21.5 53t53.5 22q31 0 53 -22.5t22 -52.5q0 -31 -22 -53t-53 -22zM571 232h-405q1 -60 48 -99.5t108 -39.5q100 0 144 83l86 -57
q-34 -62 -95 -95.5t-133 -33.5q-119 0 -199.5 79.5t-80.5 198.5q0 115 77 196t192 81q122 0 191 -76t69 -200q0 -24 -2 -37zM313 443q-55 0 -94 -33t-47 -88h280q-3 56 -42.5 88.5t-96.5 32.5z" />
    <glyph glyph-name="igrave" unicode="&#xec;" horiz-adv-x="279" 
d="M88 793l102 -172h-103l-145 172h146zM199 534h-119v-534h119v534z" />
    <glyph glyph-name="iacute" unicode="&#xed;" horiz-adv-x="279" 
d="M88 625l103 172h146l-145 -172h-104zM80 534h119v-534h-119v534z" />
    <glyph glyph-name="icircumflex" unicode="&#xee;" horiz-adv-x="279" 
d="M183 797l144 -172h-114l-74 92l-69 -92h-119l139 172h93zM199 534h-119v-534h119v534z" />
    <glyph glyph-name="idieresis" unicode="&#xef;" horiz-adv-x="278" 
d="M25 621q-31 0 -52.5 22t-21.5 53q0 30 21.5 52.5t52.5 22.5t53.5 -22.5t22.5 -52.5q0 -31 -22 -53t-54 -22zM248 621q-32 0 -53.5 21.5t-21.5 53.5q0 31 21.5 53t53.5 22q31 0 52.5 -22.5t21.5 -52.5q0 -31 -21.5 -53t-52.5 -22zM80 534h119v-534h-119v534z" />
    <glyph glyph-name="eth" unicode="&#xf0;" horiz-adv-x="655" 
d="M499 723l-97 -43q201 -179 201 -382q0 -128 -77.5 -217.5t-207.5 -89.5q-115 0 -194.5 78.5t-79.5 193.5q0 107 75.5 180t182.5 73q42 0 88 -19t76 -48h1q-31 87 -164 186l-149 -67l-31 73l107 46l-77 51l55 81q59 -34 126 -83l133 60zM323 97q71 0 115.5 47.5
t44.5 115.5q0 67 -46.5 112t-117.5 45q-70 0 -112.5 -44.5t-42.5 -113.5q0 -67 45.5 -114.5t113.5 -47.5z" />
    <glyph glyph-name="ntilde" unicode="&#xf1;" horiz-adv-x="633" 
d="M248 693q-38 0 -39 -66h-81q-4 72 28 113.5t92 41.5q27 0 49.5 -11t35 -23.5t28 -23.5t30.5 -11q38 0 39 66h82q3 -72 -29 -113.5t-92 -41.5q-27 0 -49.5 11t-35 23.5t-28.5 23.5t-30 11zM440 0v299q0 60 -29.5 96.5t-88.5 36.5q-56 0 -89.5 -37t-33.5 -98v-297h-119v534
h116v-72q61 83 163 83q98 0 149 -60t51 -156v-329h-119z" />
    <glyph glyph-name="ograve" unicode="&#xf2;" horiz-adv-x="650" 
d="M279 797l103 -172h-103l-145 172h145zM43 268q0 -117 83 -197t200 -80q118 0 199.5 80.5t81.5 198.5q0 116 -82.5 195.5t-197.5 79.5q-118 0 -201 -80t-83 -197zM165 270q0 70 44.5 118.5t115.5 48.5t115.5 -49t44.5 -120t-44 -120t-115 -49t-116 50.5t-45 120.5z" />
    <glyph glyph-name="oacute" unicode="&#xf3;" horiz-adv-x="650" 
d="M269 625l102 172h146l-145 -172h-103zM43 268q0 117 83 197t201 80q116 0 198 -79t82 -196q0 -118 -81.5 -198.5t-199.5 -80.5q-117 0 -200 80t-83 197zM166 270q0 -70 45 -120.5t116 -50.5q70 0 114 49t44 120t-44.5 120t-114.5 49q-71 0 -115.5 -48t-44.5 -119z" />
    <glyph glyph-name="ocircumflex" unicode="&#xf4;" horiz-adv-x="650" 
d="M369 797l144 -172h-114l-74 92l-69 -92h-118l138 172h93zM43 268q0 -117 83 -197t200 -80q118 0 199.5 80.5t81.5 198.5q0 117 -82 196t-198 79q-118 0 -201 -80t-83 -197zM166 270q0 71 44.5 119t115.5 48q70 0 114.5 -49t44.5 -120t-44 -120t-114 -49q-71 0 -116 50.5
t-45 120.5z" />
    <glyph glyph-name="otilde" unicode="&#xf5;" horiz-adv-x="650" 
d="M254 693q-38 0 -39 -66h-81q-4 72 28 113.5t92 41.5q27 0 49.5 -11t35 -23.5t28 -23.5t30.5 -11q38 0 39 66h82q3 -72 -29 -113.5t-92 -41.5q-27 0 -49.5 11t-35 23.5t-28.5 23.5t-30 11zM43 268q0 117 83 197t201 80q116 0 198 -79t82 -196q0 -118 -81.5 -198.5
t-199.5 -80.5q-117 0 -200 80t-83 197zM165 270q0 -70 45 -120.5t116 -50.5t115 49t44 120t-44.5 120t-115.5 49t-115.5 -48.5t-44.5 -118.5z" />
    <glyph glyph-name="odieresis" unicode="&#xf6;" horiz-adv-x="650" 
d="M213 621q-31 0 -52.5 22t-21.5 53q0 30 21.5 52.5t52.5 22.5t53.5 -22.5t22.5 -52.5q0 -31 -22 -53t-54 -22zM436 621q-32 0 -53.5 21.5t-21.5 53.5q0 31 21.5 53t53.5 22q31 0 52.5 -22.5t21.5 -52.5q0 -31 -21.5 -53t-52.5 -22zM43 268q0 117 83 197t200 80
q116 0 198 -79t82 -196q0 -118 -81.5 -198.5t-199.5 -80.5q-117 0 -199.5 80t-82.5 197zM165 270q0 -70 45 -120.5t116 -50.5t115 49t44 120t-44.5 120t-115.5 49t-115.5 -48.5t-44.5 -118.5z" />
    <glyph glyph-name="divide" unicode="&#xf7;" horiz-adv-x="597" 
d="M223 598q0 31 22 53.5t53 22.5q32 0 54 -22t22 -54t-22 -54t-54 -22q-31 0 -53 22.5t-22 53.5zM56 424h486v-111h-486v111zM223 140q0 31 22 53.5t53 22.5q32 0 54 -22t22 -54t-22 -54t-54 -22q-31 0 -53 22.5t-22 53.5z" />
    <glyph glyph-name="oslash" unicode="&#xf8;" horiz-adv-x="655" 
d="M610 495l-58 -59q57 -73 57 -168q0 -118 -82 -197.5t-199 -79.5q-93 0 -163 50l-60 -60l-60 59l58 59q-57 73 -57 169q0 117 82 197t199 80q90 0 165 -51l58 60zM167 268q0 -48 19 -85l228 231q-38 22 -86 22q-71 0 -116 -48.5t-45 -119.5zM487 268q0 46 -18 84
l-227 -230q35 -23 85 -23q71 0 115.5 49t44.5 120z" />
    <glyph glyph-name="ugrave" unicode="&#xf9;" horiz-adv-x="633" 
d="M271 797l103 -172h-103l-145 172h145zM193 534v-299q0 -60 29.5 -96.5t88.5 -36.5q56 0 89.5 37t33.5 98v297h119v-534h-116v72q-61 -83 -163 -83q-97 0 -148.5 60.5t-51.5 156.5v328h119z" />
    <glyph glyph-name="uacute" unicode="&#xfa;" horiz-adv-x="633" 
d="M253 625l102 172h146l-145 -172h-103zM193 534v-299q0 -60 29.5 -96.5t88.5 -36.5q56 0 89.5 37t33.5 98v297h119v-534h-116v72q-61 -83 -163 -83q-97 0 -148.5 60.5t-51.5 156.5v328h119z" />
    <glyph glyph-name="ucircumflex" unicode="&#xfb;" horiz-adv-x="633" 
d="M357 797l144 -172h-114l-74 92l-69 -92h-118l138 172h93zM193 534v-299q0 -60 29.5 -96.5t88.5 -36.5q56 0 89.5 37t33.5 98v297h119v-534h-116v72q-61 -83 -163 -83q-97 0 -148.5 60.5t-51.5 156.5v328h119z" />
    <glyph glyph-name="udieresis" unicode="&#xfc;" horiz-adv-x="633" 
d="M200 621q-31 0 -53 22t-22 53t21.5 53t53.5 22q31 0 53 -22.5t22 -52.5q0 -31 -22 -53t-53 -22zM422 621q-32 0 -53.5 21.5t-21.5 53.5q0 31 21.5 53t53.5 22q31 0 53 -22.5t22 -52.5q0 -31 -22 -53t-53 -22zM193 534v-299q0 -60 29.5 -96.5t88.5 -36.5q56 0 89.5 37
t33.5 98v297h119v-534h-116v72q-61 -83 -163 -83q-97 0 -148.5 60.5t-51.5 156.5v328h119z" />
    <glyph glyph-name="yacute" unicode="&#xfd;" horiz-adv-x="612" 
d="M253 625l102 172h146l-145 -172h-103zM318 184l154 350h129l-366 -797h-128l147 323l-238 474h136z" />
    <glyph glyph-name="thorn" unicode="&#xfe;" horiz-adv-x="681" 
d="M637 269q0 -112 -75 -194.5t-190 -82.5q-40 0 -92.5 21.5t-80.5 64.5v-341h-119v1077h116v-363q30 49 82 71t97 22q117 0 189.5 -84t72.5 -191zM197 268q0 -71 44.5 -119.5t115.5 -48.5t115.5 48.5t44.5 119.5t-44.5 120t-115.5 49t-115.5 -49t-44.5 -120z" />
    <glyph glyph-name="ydieresis" unicode="&#xff;" horiz-adv-x="612" 
d="M200 621q-31 0 -53 22t-22 53t21.5 53t53.5 22q31 0 53 -22.5t22 -52.5q0 -31 -22 -53t-53 -22zM422 621q-32 0 -53.5 21.5t-21.5 53.5q0 31 21.5 53t53.5 22q31 0 53 -22.5t22 -52.5q0 -31 -22 -53t-53 -22zM318 184l154 350h129l-367 -797h-127l147 323l-238 474h136z
" />
    <glyph glyph-name="Amacron" unicode="&#x100;" horiz-adv-x="783" 
d="M564 984v-95h-346v95h346zM319 783h145l317 -783h-128l-71 184h-384l-72 -184h-126zM242 293h297l-149 372z" />
    <glyph glyph-name="amacron" unicode="&#x101;" horiz-adv-x="575" 
d="M450 730v-95h-346v95h346zM385 362q0 33 -27.5 56.5t-77.5 23.5q-92 0 -133 -85l-91 52q63 136 227 136q150 0 200 -109q18 -40 18 -96v-340h-117v73q-49 -82 -157 -82q-78 0 -129 44t-51 113v6q0 44 21 77.5t55.5 51t71 26t74.5 8.5h66q50 0 50 45zM384 233h-115
q-38 0 -70.5 -19.5t-32.5 -54.5q0 -33 23.5 -53t61.5 -20q61 0 97 35t36 95v17z" />
    <glyph glyph-name="Abreve" unicode="&#x102;" horiz-adv-x="783" 
d="M392 853q-73 0 -124.5 44t-58.5 126h102q3 -41 24 -63t57 -22t57.5 22t24.5 63h100q-7 -79 -56.5 -124.5t-125.5 -45.5zM319 783h145l317 -783h-128l-71 184h-384l-72 -184h-126zM242 293h297l-149 372z" />
    <glyph glyph-name="abreve" unicode="&#x103;" horiz-adv-x="575" 
d="M278 623q-73 0 -125 44t-59 126h103q3 -41 24 -63t57 -22t57 21.5t24 63.5h100q-6 -79 -55.5 -124.5t-125.5 -45.5zM385 362q0 33 -27.5 56.5t-77.5 23.5q-92 0 -133 -85l-91 52q63 136 227 136q150 0 200 -109q18 -40 18 -96v-340h-117v73q-49 -82 -157 -82
q-78 0 -129 44t-51 113v6q0 44 21 77.5t55.5 51t71 26t74.5 8.5h66q50 0 50 45zM384 233h-115q-38 0 -70.5 -19.5t-32.5 -54.5q0 -33 23.5 -53t61.5 -20q61 0 97 35t36 95v17z" />
    <glyph glyph-name="Aogonek" unicode="&#x104;" horiz-adv-x="783" 
d="M777 -160v-82q-24 -2 -37 -2q-62 0 -103.5 28.5t-41.5 80.5q0 62 93 135h-35l-71 184h-384l-72 -184h-126l319 783h145l317 -783q-83 -63 -83 -106q0 -54 77 -54h2zM242 293h297l-149 372z" />
    <glyph glyph-name="aogonek" unicode="&#x105;" horiz-adv-x="575" 
d="M501 340v-340q-82 -63 -82 -106q0 -54 77 -54h1v-82q-24 -2 -36 -2q-62 0 -104 28.5t-42 80.5q0 61 94 135h-25v73q-49 -82 -157 -82q-78 0 -129 44t-51 113v6q0 44 21 77.5t55.5 51t71 26t74.5 8.5h66q50 0 50 45q0 33 -27.5 56.5t-77.5 23.5q-92 0 -133 -85l-91 52
q63 136 227 136q150 0 200 -109q18 -40 18 -96zM384 233h-115q-38 0 -70.5 -19.5t-32.5 -54.5q0 -33 23.5 -53t61.5 -20q61 0 97 35t36 95v17z" />
    <glyph glyph-name="Cacute" unicode="&#x106;" horiz-adv-x="834" 
d="M386 854l103 172h146l-145 -172h-104zM442 -9q-75 0 -145 27t-126 76.5t-89.5 126t-33.5 168.5q0 174 118 289.5t281 115.5q74 0 137 -21.5t105 -57t70 -75t41 -81.5l-111 -51q-29 76 -90.5 123.5t-153.5 47.5q-107 0 -187 -79.5t-80 -206.5q0 -126 79.5 -206.5
t187.5 -80.5q81 0 149.5 47.5t97.5 124.5l112 -51q-14 -41 -43 -80.5t-73 -75.5t-108 -58t-138 -22z" />
    <glyph glyph-name="cacute" unicode="&#x107;" horiz-adv-x="601" 
d="M263 625l103 172h145l-145 -172h-103zM322 -9q-118 0 -198 79.5t-80 197.5q0 113 80 195t198 82q90 0 153 -44.5t87 -115.5l-102 -46q-35 98 -137 98q-66 0 -111.5 -47t-45.5 -120q0 -75 45 -123t113 -48q100 0 138 99l104 -46q-23 -65 -85 -113t-159 -48z" />
    <glyph glyph-name="Ccircumflex" unicode="&#x108;" horiz-adv-x="834" 
d="M481 1026l143 -172h-113l-74 92l-70 -92h-118l138 172h94zM442 -9q-75 0 -145 27t-126 76.5t-89.5 126t-33.5 168.5q0 174 118 289.5t281 115.5q74 0 137 -21.5t105 -57t70 -75t41 -81.5l-111 -51q-29 76 -90.5 123.5t-153.5 47.5q-107 0 -187 -79.5t-80 -206.5
q0 -126 79.5 -206.5t187.5 -80.5q81 0 149.5 47.5t97.5 124.5l112 -51q-14 -41 -43 -80.5t-73 -75.5t-108 -58t-138 -22z" />
    <glyph glyph-name="ccircumflex" unicode="&#x109;" horiz-adv-x="601" 
d="M370 797l143 -172h-114l-73 92l-70 -92h-118l138 172h94zM322 -9q-118 0 -198 79.5t-80 197.5q0 113 80 195t198 82q90 0 153 -44.5t87 -115.5l-102 -46q-35 98 -137 98q-66 0 -111.5 -47t-45.5 -120q0 -75 45 -123t113 -48q100 0 138 99l104 -46q-23 -65 -85 -113
t-159 -48z" />
    <glyph glyph-name="Cdotaccent" unicode="&#x10a;" horiz-adv-x="834" 
d="M436 849q-33 0 -55.5 23t-22.5 56t22.5 56t55.5 23t56 -23.5t23 -55.5q0 -33 -23.5 -56t-55.5 -23zM442 -9q-75 0 -145 27t-126 76.5t-89.5 126t-33.5 168.5q0 174 118 289.5t281 115.5q74 0 137 -21.5t105 -57t70 -75t41 -81.5l-111 -51q-29 76 -90.5 123.5t-153.5 47.5
q-107 0 -187 -79.5t-80 -206.5q0 -126 79.5 -206.5t187.5 -80.5q81 0 149.5 47.5t97.5 124.5l112 -51q-14 -41 -43 -80.5t-73 -75.5t-108 -58t-138 -22z" />
    <glyph glyph-name="cdotaccent" unicode="&#x10b;" horiz-adv-x="601" 
d="M324 621q-33 0 -55.5 23t-22.5 56t22.5 56t55.5 23t56 -23.5t23 -55.5q0 -33 -23.5 -56t-55.5 -23zM322 -9q-118 0 -198 79.5t-80 197.5q0 113 80 195t198 82q90 0 153 -44.5t87 -115.5l-102 -46q-35 98 -137 98q-66 0 -111.5 -47t-45.5 -120q0 -75 45 -123t113 -48
q100 0 138 99l104 -46q-23 -65 -85 -113t-159 -48z" />
    <glyph glyph-name="Ccaron" unicode="&#x10c;" horiz-adv-x="834" 
d="M439 935l73 92h114l-143 -172h-94l-138 172h118zM442 -9q-75 0 -145 27t-126 76.5t-89.5 126t-33.5 168.5q0 174 118 289.5t281 115.5q74 0 137 -21.5t105 -57t70 -75t41 -81.5l-111 -51q-29 76 -90.5 123.5t-153.5 47.5q-107 0 -187 -79.5t-80 -206.5
q0 -126 79.5 -206.5t187.5 -80.5q81 0 149.5 47.5t97.5 124.5l112 -51q-14 -41 -43 -80.5t-73 -75.5t-108 -58t-138 -22z" />
    <glyph glyph-name="ccaron" unicode="&#x10d;" horiz-adv-x="601" 
d="M325 705l73 92h114l-143 -172h-94l-138 172h118zM322 -9q-118 0 -198 79.5t-80 197.5q0 113 80 195t198 82q90 0 153 -44.5t87 -115.5l-102 -46q-35 98 -137 98q-66 0 -111.5 -47t-45.5 -120q0 -75 45 -123t113 -48q100 0 138 99l104 -46q-23 -65 -85 -113t-159 -48z" />
    <glyph glyph-name="Dcaron" unicode="&#x10e;" horiz-adv-x="815" 
d="M354 935l74 92h114l-144 -172h-93l-138 172h118zM768 391q0 -70 -25 -137.5t-73.5 -125t-131 -93t-186.5 -35.5h-252v783h250q87 0 159 -25t119 -65.5t79.5 -93t46.5 -105t14 -103.5zM641 391q0 48 -17 95.5t-50.5 89t-91.5 67.5t-132 26h-124v-555h123q74 0 132 24.5
t92 65t51 88.5t17 99z" />
    <glyph glyph-name="dcaron" unicode="&#x10f;" horiz-adv-x="700" 
d="M667 581l15 234h133l-58 -234h-90zM43 268q0 -111 75 -193.5t188 -82.5q42 0 96.5 22.5t82.5 68.5v-83h116v814h-119v-356q-27 43 -78.5 64.5t-94.5 21.5q-119 0 -192.5 -84t-73.5 -192zM484 268q0 -71 -44.5 -119.5t-115.5 -48.5t-115.5 48.5t-44.5 119.5t44.5 120
t115.5 49q70 0 115 -49t45 -120z" />
    <glyph glyph-name="Dcroat" unicode="&#x110;" horiz-adv-x="834" 
d="M121 454v329h248q87 0 159 -25t119 -65.5t79.5 -93t46.5 -105t14 -103.5q0 -70 -25 -137.5t-73.5 -125t-131 -93t-186.5 -35.5h-250v343h-106v111h106zM244 343v-229h122q74 0 132 24.5t92 65t51 88.5t17 99q0 48 -17 95.5t-50.5 89t-91.5 67.5t-132 26h-123v-215h173
v-111h-173z" />
    <glyph glyph-name="dcroat" unicode="&#x111;" horiz-adv-x="681" 
d="M484 0v83q-27 -46 -81 -68.5t-97 -22.5q-113 0 -188 82.5t-75 193.5q0 108 73.5 192t192.5 84q43 0 94.5 -21.5t78.5 -64.5v170h-167v87h167v99h119v-99h70v-87h-70v-628h-117zM484 268q0 71 -45 120t-116 49q-70 0 -114.5 -49t-44.5 -120t44.5 -119.5t115.5 -48.5
t115.5 48.5t44.5 119.5z" />
    <glyph glyph-name="Emacron" unicode="&#x112;" horiz-adv-x="664" 
d="M526 984v-95h-347v95h347zM223 674v-218h344v-111h-344v-231h382v-112h-505v783h502v-111h-379z" />
    <glyph glyph-name="emacron" unicode="&#x113;" horiz-adv-x="615" 
d="M486 730v-95h-346v95h346zM571 232h-405q1 -60 48 -99.5t108 -39.5q100 0 144 83l86 -57q-34 -62 -95 -95.5t-133 -33.5q-119 0 -199.5 79.5t-80.5 198.5q0 115 77 196t192 81q122 0 191 -76t69 -200q0 -24 -2 -37zM313 443q-55 0 -94 -33t-47 -88h280q-3 56 -42.5 88.5
t-96.5 32.5z" />
    <glyph glyph-name="Edotaccent" unicode="&#x116;" horiz-adv-x="664" 
d="M357 849q-33 0 -55.5 23t-22.5 56t22.5 56t55.5 23t56 -23.5t23 -55.5q0 -33 -23.5 -56t-55.5 -23zM223 672v-218h344v-111h-344v-231h382v-112h-505v783h502v-111h-379z" />
    <glyph glyph-name="edotaccent" unicode="&#x117;" horiz-adv-x="615" 
d="M315 621q-33 0 -56 23t-23 56q0 32 23 55.5t56 23.5t56 -23.5t23 -55.5q0 -33 -23.5 -56t-55.5 -23zM571 232h-405q1 -60 48 -99.5t108 -39.5q100 0 144 83l86 -57q-34 -62 -95 -95.5t-133 -33.5q-119 0 -199.5 79.5t-80.5 198.5q0 115 77 196t192 81q122 0 191 -76
t69 -200q0 -24 -2 -37zM313 443q-55 0 -94 -33t-47 -88h280q-3 56 -42.5 88.5t-96.5 32.5z" />
    <glyph glyph-name="Eogonek" unicode="&#x118;" horiz-adv-x="663" 
d="M601 -160v-82q-24 -2 -37 -2q-62 0 -103.5 28.5t-41.5 80.5q0 62 94 135h-413v783h501v-111h-378v-218h344v-111h-344v-231h382v-112q-83 -63 -83 -106q0 -54 78 -54h1z" />
    <glyph glyph-name="eogonek" unicode="&#x119;" horiz-adv-x="615" 
d="M573 269q0 -24 -2 -37h-405q1 -60 48 -99.5t108 -39.5q100 0 144 83l86 -57q-22 -40 -66 -77l-57 -46q-40 -32 -59.5 -55t-19.5 -47q0 -54 78 -54h2v-82q-26 -2 -37 -2q-62 0 -104 28.5t-42 80.5q0 59 82 125h-5q-119 0 -199.5 79.5t-80.5 198.5q0 115 77 196t192 81
q122 0 191 -76t69 -200zM172 322h280q-3 56 -42.5 88.5t-96.5 32.5q-55 0 -94 -33t-47 -88z" />
    <glyph glyph-name="Ecaron" unicode="&#x11a;" horiz-adv-x="664" 
d="M357 935l74 92h114l-144 -172h-93l-138 172h118zM223 672v-218h344v-111h-344v-231h382v-112h-505v783h502v-111h-379z" />
    <glyph glyph-name="ecaron" unicode="&#x11b;" horiz-adv-x="615" 
d="M314 705l74 92h113l-143 -172h-93l-139 172h119zM571 232h-405q1 -60 48 -99.5t108 -39.5q100 0 144 83l86 -57q-34 -62 -95 -95.5t-133 -33.5q-119 0 -199.5 79.5t-80.5 198.5q0 115 77 196t192 81q122 0 191 -76t69 -200q0 -24 -2 -37zM313 443q-55 0 -94 -33t-47 -88
h280q-3 56 -42.5 88.5t-96.5 32.5z" />
    <glyph glyph-name="Gcircumflex" unicode="&#x11c;" horiz-adv-x="854" 
d="M494 1026l143 -172h-114l-73 92l-70 -92h-118l138 172h94zM800 562l-109 -50q-31 75 -91.5 121.5t-153.5 46.5q-115 0 -192.5 -82t-77.5 -205t76 -206t193 -83q99 0 159 49.5t74 126.5h-281v112h414v-43q0 -153 -99.5 -255.5t-265.5 -102.5q-176 0 -287 113t-111 286
q0 172 118 288t281 116q134 0 227 -67.5t126 -164.5z" />
    <glyph glyph-name="gcircumflex" unicode="&#x11d;" horiz-adv-x="677" 
d="M364 797l144 -172h-114l-74 92l-69 -92h-119l139 172h93zM303 -4q-113 0 -186.5 81t-73.5 192q0 106 72.5 190t191.5 84q43 0 94 -22.5t80 -67.5v81h116v-527q0 -126 -76.5 -200t-202.5 -74q-195 0 -269 162l99 57q56 -113 168 -113q70 0 116 41.5t46 121.5v84
q-29 -46 -81 -68t-94 -22zM480 271q0 70 -44 118t-115 48t-115 -47.5t-44 -118.5t44.5 -119.5t114.5 -48.5t114.5 48.5t44.5 119.5z" />
    <glyph glyph-name="Gbreve" unicode="&#x11e;" horiz-adv-x="854" 
d="M450 853q-73 0 -124.5 44t-57.5 126h101q3 -41 24 -63t57 -22t57.5 22t24.5 63h100q-7 -79 -56.5 -124.5t-125.5 -45.5zM800 562l-109 -50q-31 75 -91.5 121.5t-153.5 46.5q-115 0 -192.5 -82t-77.5 -205t76 -206t193 -83q99 0 159 49.5t74 126.5h-281v112h414v-43
q0 -153 -99.5 -255.5t-265.5 -102.5q-176 0 -287 113t-111 286q0 172 118 288t281 116q134 0 227 -67.5t126 -164.5z" />
    <glyph glyph-name="gbreve" unicode="&#x11f;" horiz-adv-x="677" 
d="M321 623q-73 0 -125 44t-58 126h102q3 -41 24 -63t57 -22t57 21.5t24 63.5h100q-6 -79 -55.5 -124.5t-125.5 -45.5zM303 -4q-113 0 -186.5 81t-73.5 192q0 106 72.5 190t191.5 84q43 0 94 -22.5t80 -67.5v81h116v-527q0 -126 -76.5 -200t-202.5 -74q-195 0 -269 162
l99 57q56 -113 168 -113q70 0 116 41.5t46 121.5v84q-29 -46 -81 -68t-94 -22zM480 271q0 70 -44 118t-115 48t-115 -47.5t-44 -118.5t44.5 -119.5t114.5 -48.5t114.5 48.5t44.5 119.5z" />
    <glyph glyph-name="Gdotaccent" unicode="&#x120;" horiz-adv-x="853" 
d="M448 849q-32 0 -55 23t-23 56t22.5 56t55.5 23t56 -23t23 -56t-23 -56t-56 -23zM800 562l-109 -50q-31 75 -91.5 121.5t-153.5 46.5q-115 0 -192.5 -82t-77.5 -205t76 -206t193 -83q99 0 159 49.5t74 126.5h-281v112h414v-43q0 -153 -99.5 -255.5t-265.5 -102.5
q-176 0 -287 113t-111 286q0 172 118 288t281 116q134 0 227 -67.5t126 -164.5z" />
    <glyph glyph-name="gdotaccent" unicode="&#x121;" horiz-adv-x="677" 
d="M320 621q-33 0 -55.5 23t-22.5 56t22.5 56t55.5 23t56 -23.5t23 -55.5q0 -33 -23.5 -56t-55.5 -23zM303 -4q-113 0 -186.5 81t-73.5 192q0 106 72.5 190t191.5 84q43 0 94 -22.5t80 -67.5v81h116v-527q0 -126 -76.5 -200t-202.5 -74q-195 0 -269 162l99 57
q56 -113 168 -113q70 0 116 41.5t46 121.5v84q-29 -46 -81 -68t-94 -22zM480 271q0 70 -44 118t-115 48t-115 -47.5t-44 -118.5t44.5 -119.5t114.5 -48.5t114.5 48.5t44.5 119.5z" />
    <glyph glyph-name="Gcommaaccent" unicode="&#x122;" horiz-adv-x="853" 
d="M800 562l-109 -50q-31 75 -91.5 121.5t-153.5 46.5q-115 0 -192.5 -82t-77.5 -205t76 -206t193 -83q99 0 159 49.5t74 126.5h-281v112h414v-43q0 -153 -99.5 -255.5t-265.5 -102.5q-176 0 -287 113t-111 286q0 172 118 288t281 116q134 0 227 -67.5t126 -164.5zM416 -326
l-42 38q52 38 77 94q-9 -4 -23 -4q-25 0 -42.5 18t-17.5 45q0 29 19.5 48.5t49.5 19.5t51.5 -25t21.5 -64v-3q0 -47 -25.5 -92t-68.5 -75z" />
    <glyph glyph-name="gcommaaccent" unicode="&#x123;" horiz-adv-x="677" 
d="M344 875l42 -38q-51 -35 -77 -94q12 5 23 5q25 0 42.5 -18.5t17.5 -45.5q0 -29 -19.5 -48.5t-50.5 -19.5q-30 0 -51 24.5t-21 64.5v4q0 47 25.5 91t68.5 75zM303 -4q-113 0 -186.5 81t-73.5 192q0 106 72.5 190t191.5 84q43 0 94 -22.5t80 -67.5v81h116v-527
q0 -126 -76.5 -200t-202.5 -74q-195 0 -269 162l99 57q56 -113 168 -113q70 0 116 41.5t46 121.5v84q-29 -46 -81 -68t-94 -22zM480 271q0 70 -44 118t-115 48t-115 -47.5t-44 -118.5t44.5 -119.5t114.5 -48.5t114.5 48.5t44.5 119.5z" />
    <glyph glyph-name="Hbar" unicode="&#x126;" horiz-adv-x="841" 
d="M104 577h-78v94h78v112h123v-112h387v112h123v-112h79v-94h-79v-577h-123v338h-387v-338h-123v577zM227 455h387v122h-387v-122z" />
    <glyph glyph-name="hbar" unicode="&#x127;" horiz-adv-x="633" 
d="M365 715v-87h-166v-162q62 79 160 79t149 -60t51 -156v-329h-119v299q0 60 -29.5 96.5t-88.5 36.5q-56 0 -89.5 -37t-33.5 -98v-297h-119v628h-71v87h71v99h119v-99h166z" />
    <glyph glyph-name="Itilde" unicode="&#x128;" horiz-adv-x="322" 
d="M89 922q-38 0 -39 -66h-81q-4 72 28 113.5t92 41.5q35 0 61 -17.5t45 -34.5t37 -17q38 0 39 66h82q3 -72 -29 -113.5t-92 -41.5q-34 0 -60.5 17.5t-46 34.5t-36.5 17zM100 783h123v-783h-123v783z" />
    <glyph glyph-name="itilde" unicode="&#x129;" horiz-adv-x="278" 
d="M67 693q-38 0 -39 -66h-81q-4 72 28 113.5t92 41.5q27 0 49.5 -11t35 -23.5t28 -23.5t30.5 -11q38 0 39 66h82q3 -72 -29 -113.5t-92 -41.5q-27 0 -49.5 11t-35 23.5t-28.5 23.5t-30 11zM80 534h119v-534h-119v534z" />
    <glyph glyph-name="Imacron" unicode="&#x12a;" horiz-adv-x="323" 
d="M320 984v-95h-317v95h317zM100 783h124v-783h-124v783z" />
    <glyph glyph-name="imacron" unicode="&#x12b;" horiz-adv-x="278" 
d="M295 730v-95h-312v95h312zM80 534h119v-534h-119v534z" />
    <glyph glyph-name="Ibreve" unicode="&#x12c;" horiz-adv-x="322" 
d="M162 853q-73 0 -124.5 44t-58.5 126h102q2 -41 23 -63t58 -22q35 0 56.5 22t24.5 63h100q-7 -79 -56 -124.5t-125 -45.5zM100 783h123v-783h-123v783z" />
    <glyph glyph-name="ibreve" unicode="&#x12d;" horiz-adv-x="278" 
d="M140 623q-74 0 -125.5 44t-57.5 126h102q2 -41 23 -63t58 -22q36 0 57 21.5t24 63.5h100q-7 -79 -56 -124.5t-125 -45.5zM80 534h119v-534h-119v534z" />
    <glyph glyph-name="Iogonek" unicode="&#x12e;" horiz-adv-x="322" 
d="M140 -106q0 -54 77 -54h2v-82q-24 -2 -37 -2q-62 0 -103.5 28.5t-41.5 80.5q0 62 93 135h-30v783h123v-783q-83 -62 -83 -106z" />
    <glyph glyph-name="iogonek" unicode="&#x12f;" horiz-adv-x="278" 
d="M139 629q-32 0 -55 23t-23 55t23 55.5t55 23.5t55 -23.5t23 -55.5t-23 -55t-55 -23zM199 534v-534q-83 -62 -83 -106q0 -54 77 -54h1v-82q-22 -2 -36 -2q-62 0 -104 28.5t-42 80.5q0 61 94 135h-26v534h119z" />
    <glyph glyph-name="Idotaccent" unicode="&#x130;" horiz-adv-x="322" 
d="M161 849q-33 0 -55.5 23t-22.5 56t22.5 56t55.5 23t56 -23.5t23 -55.5q0 -33 -23.5 -56t-55.5 -23zM100 783h123v-783h-123v783z" />
    <glyph glyph-name="dotlessi" unicode="&#x131;" horiz-adv-x="278" 
d="M80 534h119v-534h-119v534z" />
    <glyph glyph-name="IJ" unicode="&#x132;" horiz-adv-x="913" 
d="M100 783h123v-783h-123v783zM580 -9q-79 0 -139 44t-94 126l102 57q44 -112 129 -112q58 0 88.5 35t30.5 91v551h124v-551q0 -107 -67.5 -174t-173.5 -67z" />
    <glyph glyph-name="ij" unicode="&#x133;" horiz-adv-x="564" 
d="M61 707q0 32 23 55.5t55 23.5t55 -23.5t23 -55.5t-23 -55t-55 -23t-55 23t-23 55zM346 707q0 32 23 55.5t55 23.5q33 0 56.5 -23.5t23.5 -55.5t-23.5 -55t-56.5 -23q-32 0 -55 23t-23 55zM199 534h-119v-534h119v534zM365 534v-584q0 -60 -22.5 -83.5t-75.5 -23.5
q-17 0 -30 4v-104q25 -8 54 -8q194 0 194 202v597h-120z" />
    <glyph glyph-name="Kcommaaccent" unicode="&#x136;" horiz-adv-x="711" 
d="M223 783v-338l312 338h163l-350 -374l370 -409h-166l-329 370v-370h-123v783h123zM346 -326l-42 38q52 38 77 94q-9 -4 -23 -4q-25 0 -42.5 18t-17.5 45q0 29 19.5 48.5t49.5 19.5t51.5 -25t21.5 -64v-3q0 -47 -25.5 -92t-68.5 -75z" />
    <glyph glyph-name="kcommaaccent" unicode="&#x137;" horiz-adv-x="580" 
d="M80 814h119v-490h1l207 210h162l-241 -242l254 -292h-157l-223 261h-3v-261h-119v814zM277 -326l-42 38q52 38 77 94q-9 -4 -23 -4q-25 0 -42.5 18t-17.5 45q0 29 19.5 48.5t49.5 19.5t51.5 -25t21.5 -64v-3q0 -47 -25.5 -92t-68.5 -75z" />
    <glyph glyph-name="Lacute" unicode="&#x139;" horiz-adv-x="592" 
d="M116 854l103 172h145l-145 -172h-103zM576 114v-114h-476v783h123v-669h353z" />
    <glyph glyph-name="lacute" unicode="&#x13a;" horiz-adv-x="278" 
d="M88 883l103 172h145l-145 -172h-103zM80 814h119v-814h-119v814z" />
    <glyph glyph-name="Lcommaaccent" unicode="&#x13b;" horiz-adv-x="592" 
d="M576 114v-114h-476v783h123v-669h353zM308 -326l-42 38q52 38 77 94q-9 -4 -23 -4q-25 0 -42.5 18t-17.5 45q0 29 19.5 48.5t49.5 19.5t51.5 -25t21.5 -64v-3q0 -47 -25.5 -92t-68.5 -75z" />
    <glyph glyph-name="lcommaaccent" unicode="&#x13c;" horiz-adv-x="278" 
d="M80 814h119v-814h-119v814zM71 -356v47q40 5 63 29t23 59q-11 -8 -32 -8q-28 0 -46 18t-18 46q0 29 20.5 48t50.5 19q37 0 58 -26.5t21 -64.5q0 -69 -36.5 -113t-103.5 -54z" />
    <glyph glyph-name="Lcaron" unicode="&#x13d;" horiz-adv-x="606" 
d="M428 571l14 234h134l-58 -234h-90zM576 114v-114h-476v783h123v-669h353z" />
    <glyph glyph-name="lcaron" unicode="&#x13e;" horiz-adv-x="298" 
d="M264 581l15 234h134l-59 -234h-90zM80 814h119v-814h-119v814z" />
    <glyph glyph-name="Ldot" unicode="&#x13f;" horiz-adv-x="606" 
d="M576 114v-114h-476v783h123v-669h353zM419 388q0 33 23 56t55 23q33 0 56 -23t23 -56q0 -32 -23 -55t-56 -23q-32 0 -55 23t-23 55z" />
    <glyph glyph-name="ldot" unicode="&#x140;" horiz-adv-x="421" 
d="M80 814h119v-814h-119v814zM270 378q0 33 23 56.5t55 23.5t55 -23.5t23 -56.5q0 -32 -23 -55t-55 -23t-55 23t-23 55z" />
    <glyph glyph-name="Lslash" unicode="&#x141;" horiz-adv-x="619" 
d="M125 430v353h123v-298l223 100v-118l-223 -100v-253h354v-114h-477v312l-103 -46v118z" />
    <glyph glyph-name="lslash" unicode="&#x142;" horiz-adv-x="397" 
d="M142 814h119v-355l102 60v-121l-102 -59v-339h-119v269l-102 -60v122l102 59v424z" />
    <glyph glyph-name="Nacute" unicode="&#x143;" horiz-adv-x="853" 
d="M378 854l103 172h145l-145 -172h-103zM221 603v-603h-121v783h145l386 -577v577h122v-783h-128z" />
    <glyph glyph-name="nacute" unicode="&#x144;" horiz-adv-x="633" 
d="M269 625l103 172h145l-145 -172h-103zM440 0v299q0 60 -29 96.5t-88 36.5q-57 0 -90.5 -37t-33.5 -98v-297h-119v534h116v-72q63 83 163 83q98 0 149.5 -60t51.5 -156v-329h-120z" />
    <glyph glyph-name="Ncommaaccent" unicode="&#x145;" horiz-adv-x="853" 
d="M221 603v-603h-121v783h145l386 -577v577h122v-783h-128zM372 -356v47q39 5 62 29t24 59q-12 -8 -33 -8q-28 0 -46 18t-18 46q0 29 21 48t50 19q37 0 58.5 -26.5t21.5 -64.5q0 -69 -37 -113t-103 -54z" />
    <glyph glyph-name="ncommaaccent" unicode="&#x146;" horiz-adv-x="633" 
d="M440 0v299q0 60 -29.5 96.5t-88.5 36.5q-56 0 -89.5 -37t-33.5 -98v-297h-119v534h116v-72q61 83 163 83q98 0 149 -60t51 -156v-329h-119zM296 -326l-42 38q52 38 77 94q-9 -4 -23 -4q-25 0 -42.5 18t-17.5 45q0 29 19.5 48.5t49.5 19.5t51.5 -25t21.5 -64v-3
q0 -47 -25.5 -92t-68.5 -75z" />
    <glyph glyph-name="Ncaron" unicode="&#x147;" horiz-adv-x="853" 
d="M430 935l74 92h114l-144 -172h-93l-138 172h118zM221 603v-603h-121v783h145l386 -577v577h122v-783h-128z" />
    <glyph glyph-name="ncaron" unicode="&#x148;" horiz-adv-x="633" 
d="M325 705l73 92h114l-143 -172h-94l-138 172h118zM440 0v299q0 60 -29 96.5t-88 36.5q-57 0 -90.5 -37t-33.5 -98v-297h-119v534h116v-72q63 83 163 83q98 0 149.5 -60t51.5 -156v-329h-120z" />
    <glyph glyph-name="Eng" unicode="&#x14a;" horiz-adv-x="853" 
d="M221 0h-121v783h145l387 -578v578h121v-840q0 -100 -49 -154t-145 -54q-29 0 -54 8v104q13 -4 30 -4q53 0 75 23.5t22 83.5v41l-411 612v-603z" />
    <glyph glyph-name="eng" unicode="&#x14b;" horiz-adv-x="633" 
d="M559 329v-387q0 -100 -49 -153.5t-145 -53.5q-29 0 -54 8v104q13 -4 30 -4q53 0 76 23.5t23 83.5v349q0 60 -29.5 96.5t-88.5 36.5q-56 0 -89.5 -37t-33.5 -98v-297h-119v534h116v-72q61 83 163 83q98 0 149 -60t51 -156z" />
    <glyph glyph-name="Omacron" unicode="&#x14c;" horiz-adv-x="900" 
d="M624 984v-95h-347v95h347zM48 390q0 170 118 287t285 117q168 0 284.5 -115t116.5 -286t-118 -286.5t-286 -115.5t-284 113.5t-116 285.5zM177 393q0 -120 79 -204t194 -84q114 0 193.5 84t79.5 204t-79.5 203.5t-193.5 83.5q-115 0 -194 -83.5t-79 -203.5z" />
    <glyph glyph-name="omacron" unicode="&#x14d;" horiz-adv-x="650" 
d="M499 730v-95h-347v95h347zM43 268q0 117 83 197t201 80q116 0 198 -79t82 -196q0 -118 -81.5 -198.5t-199.5 -80.5q-117 0 -200 80t-83 197zM166 270q0 -70 45 -120.5t116 -50.5q70 0 114 49t44 120t-44.5 120t-114.5 49q-71 0 -115.5 -48t-44.5 -119z" />
    <glyph glyph-name="Ohungarumlaut" unicode="&#x150;" horiz-adv-x="900" 
d="M306 854l98 172h140l-140 -172h-98zM503 854l98 172h141l-140 -172h-99zM48 390q0 170 118 287t285 117q168 0 284.5 -115t116.5 -286t-118 -286.5t-286 -115.5t-284 113.5t-116 285.5zM177 393q0 -120 79 -204t194 -84q114 0 193.5 84t79.5 204t-79.5 203.5t-193.5 83.5
q-115 0 -194 -83.5t-79 -203.5z" />
    <glyph glyph-name="ohungarumlaut" unicode="&#x151;" horiz-adv-x="650" 
d="M173 625l98 172h140l-140 -172h-98zM370 625l97 172h141l-140 -172h-98zM43 268q0 117 83 197t200 80q116 0 198 -79t82 -196q0 -118 -81.5 -198.5t-199.5 -80.5q-117 0 -199.5 80t-82.5 197zM165 270q0 -70 45 -120.5t116 -50.5t115 49t44 120t-44.5 120t-115.5 49
t-115.5 -48.5t-44.5 -118.5z" />
    <glyph glyph-name="OE" unicode="&#x152;" horiz-adv-x="1283" 
d="M722 116h-3q-46 -59 -121 -92t-156 -33q-165 0 -279.5 114t-114.5 285q0 170 117 287t282 117q79 0 152.5 -33t119.5 -93h3v115h499v-111h-379v-218h345v-111h-345v-231h383v-112h-503v116zM177 392q0 -119 78.5 -203t193.5 -84t195.5 84t80.5 203q0 120 -80.5 204
t-195.5 84t-193.5 -83.5t-78.5 -204.5z" />
    <glyph glyph-name="oe" unicode="&#x153;" horiz-adv-x="1055" 
d="M1011 232h-406q2 -60 49 -99.5t108 -39.5q100 0 144 83l86 -57q-34 -62 -95 -95.5t-133 -33.5q-138 0 -220 106q-81 -105 -219 -105q-118 0 -200 79.5t-82 197.5q0 117 82 197t200 80q66 0 123 -28t95 -77q77 105 209 105q123 0 192 -76t69 -200q0 -11 -2 -37zM753 443
q-55 0 -94.5 -33.5t-47.5 -87.5h281q-3 56 -42.5 88.5t-96.5 32.5zM165 268q0 -71 44.5 -120t115.5 -49q70 0 115 49t45 120t-44.5 119.5t-115.5 48.5t-115.5 -48.5t-44.5 -119.5z" />
    <glyph glyph-name="Racute" unicode="&#x154;" horiz-adv-x="719" 
d="M291 854l102 172h146l-145 -172h-103zM100 783h294q137 0 202 -69t65 -172q0 -82 -43.5 -140t-122.5 -84l186 -318h-139l-170 297h-149v-297h-123v783zM223 408h158q82 0 118.5 38.5t36.5 92.5q0 25 -6.5 46t-22.5 41t-48 31.5t-78 11.5h-158v-261z" />
    <glyph glyph-name="racute" unicode="&#x155;" horiz-adv-x="393" 
d="M175 625l102 172h146l-145 -172h-103zM372 536v-122q-15 3 -34 3q-68 0 -103.5 -38t-35.5 -108v-271h-119v534h116v-85q50 90 147 90q19 0 29 -3z" />
    <glyph glyph-name="Rcommaaccent" unicode="&#x156;" horiz-adv-x="719" 
d="M100 783h294q137 0 202 -69t65 -172q0 -82 -43.5 -140t-122.5 -84l186 -318h-139l-170 297h-149v-297h-123v783zM223 408h158q82 0 118.5 38.5t36.5 92.5q0 25 -6.5 46t-22.5 41t-48 31.5t-78 11.5h-158v-261zM335 -326l-42 38q52 38 77 94q-9 -4 -23 -4q-25 0 -42.5 18
t-17.5 45q0 29 19.5 48.5t49.5 19.5t51.5 -25t21.5 -64v-3q0 -47 -25.5 -92t-68.5 -75z" />
    <glyph glyph-name="rcommaaccent" unicode="&#x157;" horiz-adv-x="393" 
d="M372 536v-122q-15 3 -34 3q-68 0 -103.5 -38t-35.5 -108v-271h-119v534h116v-85q50 90 147 90q19 0 29 -3zM114 -326l-42 38q52 38 77 94q-9 -4 -23 -4q-25 0 -42.5 18t-17.5 45q0 29 19.5 48.5t49.5 19.5t51.5 -25t21.5 -64v-3q0 -47 -25.5 -92t-68.5 -75z" />
    <glyph glyph-name="Rcaron" unicode="&#x158;" horiz-adv-x="719" 
d="M353 935l74 92h114l-144 -172h-93l-138 172h118zM100 783h294q137 0 202 -69t65 -172q0 -82 -43.5 -140t-122.5 -84l186 -318h-139l-170 297h-149v-297h-123v783zM223 408h158q82 0 118.5 38.5t36.5 92.5q0 25 -6.5 46t-22.5 41t-48 31.5t-78 11.5h-158v-261z" />
    <glyph glyph-name="rcaron" unicode="&#x159;" horiz-adv-x="393" 
d="M227 705l73 92h114l-143 -172h-94l-139 172h119zM372 536v-122q-15 3 -34 3q-68 0 -103.5 -38t-35.5 -108v-271h-119v534h116v-85q50 90 147 90q19 0 29 -3z" />
    <glyph glyph-name="Sacute" unicode="&#x15a;" horiz-adv-x="641" 
d="M271 854l103 172h145l-145 -172h-103zM327 -9q-103 0 -179 49t-109 139l104 54q25 -63 73.5 -96.5t112.5 -33.5q60 0 98.5 29t38.5 78q0 43 -36.5 71t-120.5 54q-127 40 -184 91q-60 53 -60 143q0 94 75.5 159.5t184.5 65.5q99 0 164 -46.5t93 -119.5l-102 -55
q-45 110 -158 110q-57 0 -94 -30t-37 -77q0 -44 36.5 -71t108.5 -49q145 -43 201 -99q56 -54 56 -140q0 -91 -72 -158.5t-194 -67.5z" />
    <glyph glyph-name="sacute" unicode="&#x15b;" horiz-adv-x="502" 
d="M194 625l102 172h146l-145 -172h-103zM253 -9q-159 0 -221 134l93 52q43 -86 128 -86q34 0 59 16t25 43q0 47 -110 70q-89 18 -133 64q-38 40 -38 97q0 72 58 118t136 46q144 0 200 -120l-92 -52q-36 72 -112 72q-28 0 -51.5 -15t-23.5 -37q0 -26 23.5 -41.5t75.5 -26.5
q91 -20 138 -63t47 -105q0 -73 -56 -119.5t-146 -46.5z" />
    <glyph glyph-name="Scircumflex" unicode="&#x15c;" horiz-adv-x="642" 
d="M371 1026l143 -172h-114l-73 92l-70 -92h-118l138 172h94zM327 -9q-103 0 -179 49t-109 139l104 54q25 -63 73.5 -96.5t112.5 -33.5q60 0 98.5 29t38.5 78q0 43 -36.5 71t-120.5 54q-127 40 -184 91q-60 53 -60 143q0 94 75.5 159.5t184.5 65.5q99 0 164 -46.5t93 -119.5
l-102 -55q-45 110 -158 110q-57 0 -94 -30t-37 -77q0 -44 36.5 -71t108.5 -49q145 -43 201 -99q56 -54 56 -140q0 -91 -72 -158.5t-194 -67.5z" />
    <glyph glyph-name="scircumflex" unicode="&#x15d;" horiz-adv-x="502" 
d="M298 797l144 -172h-114l-74 92l-69 -92h-119l139 172h93zM253 -9q-159 0 -221 134l93 52q43 -86 128 -86q34 0 59 16t25 43q0 47 -110 70q-89 18 -133 64q-38 40 -38 97q0 72 58 118t136 46q144 0 200 -120l-92 -52q-36 72 -112 72q-28 0 -51.5 -15t-23.5 -37
q0 -26 23.5 -41.5t75.5 -26.5q91 -20 138 -63t47 -105q0 -73 -56 -119.5t-146 -46.5z" />
    <glyph glyph-name="Scedilla" unicode="&#x15e;" horiz-adv-x="641" 
d="M593 217q0 -81 -59 -145.5t-162 -78.5q22 -34 22 -79q0 -75 -54 -116.5t-130 -41.5q-46 0 -77 12v80q28 -8 66 -8q47 0 76 23t29 69q0 33 -14 61q-90 8 -155.5 56.5t-95.5 129.5l104 54q25 -63 73.5 -96.5t112.5 -33.5q60 0 98.5 29t38.5 78q0 43 -36.5 71t-120.5 54
q-127 40 -184 91q-60 53 -60 143q0 94 75.5 159.5t184.5 65.5q99 0 164 -46.5t93 -119.5l-102 -55q-45 110 -158 110q-57 0 -94 -30t-37 -77q0 -44 36.5 -71t108.5 -49q145 -43 201 -99q56 -54 56 -140z" />
    <glyph glyph-name="scedilla" unicode="&#x15f;" horiz-adv-x="502" 
d="M455 157q0 -61 -41 -105t-109 -56q23 -38 23 -82q0 -75 -54 -116.5t-130 -41.5q-46 0 -77 12v80q28 -8 66 -8q47 0 76 23t29 69q0 33 -15 60q-135 12 -191 133l93 52q43 -86 128 -86q34 0 59 16t25 43q0 47 -110 70q-89 18 -133 64q-38 40 -38 97q0 72 58 118t136 46
q144 0 200 -120l-92 -52q-36 72 -112 72q-28 0 -51.5 -15t-23.5 -37q0 -26 23.5 -41.5t75.5 -26.5q91 -20 138 -63t47 -105z" />
    <glyph glyph-name="Scaron" unicode="&#x160;" horiz-adv-x="641" 
d="M324 935l74 92h114l-144 -172h-93l-138 172h118zM327 -9q-103 0 -179 49t-109 139l104 54q25 -63 73.5 -96.5t112.5 -33.5q60 0 98.5 29t38.5 78q0 43 -36.5 71t-120.5 54q-127 40 -184 91q-60 53 -60 143q0 94 75.5 159.5t184.5 65.5q99 0 164 -46.5t93 -119.5l-102 -55
q-45 110 -158 110q-57 0 -94 -30t-37 -77q0 -44 36.5 -71t108.5 -49q145 -43 201 -99q56 -54 56 -140q0 -91 -72 -158.5t-194 -67.5z" />
    <glyph glyph-name="scaron" unicode="&#x161;" horiz-adv-x="502" 
d="M254 705l74 92h114l-144 -172h-93l-138 172h118zM253 -9q-159 0 -221 134l93 52q43 -86 128 -86q34 0 59 16t25 43q0 47 -110 70q-89 18 -133 64q-38 40 -38 97q0 72 58 118t136 46q144 0 200 -120l-92 -52q-36 72 -112 72q-28 0 -51.5 -15t-23.5 -37q0 -26 23.5 -41.5
t75.5 -26.5q91 -20 138 -63t47 -105q0 -73 -56 -119.5t-146 -46.5z" />
    <glyph glyph-name="uni0162" unicode="&#x162;" horiz-adv-x="660" 
d="M391 669v-669q27 -38 27 -86q0 -75 -54 -116.5t-131 -41.5q-45 0 -76 12v80q27 -8 66 -8q47 0 76 23t29 69q0 35 -18 68h-42v669h-248v114h620v-114h-249z" />
    <glyph glyph-name="uni0163" unicode="&#x163;" horiz-adv-x="416" 
d="M240 427v-236q0 -48 23 -68.5t69 -20.5q18 0 38 4v-101q-29 -11 -64 -11h-6q23 -36 23 -80q0 -75 -54 -116.5t-130 -41.5q-28 0 -49 5v82q18 -3 38 -3q48 0 76.5 23t28.5 69q0 23 -11 50.5t-36 44.5q-65 45 -65 145v255h-98v107h98v165h119v-165h131v-107h-131z" />
    <glyph glyph-name="Tcaron" unicode="&#x164;" horiz-adv-x="660" 
d="M330 935l74 92h114l-144 -172h-93l-138 172h118zM20 783h621v-114h-249v-669h-123v669h-249v114z" />
    <glyph glyph-name="tcaron" unicode="&#x165;" horiz-adv-x="426" 
d="M316 586l15 229h134l-59 -229h-90zM240 427v-236q0 -48 23 -68.5t69 -20.5q18 0 38 4v-101q-29 -11 -64 -11q-88 0 -136.5 45.5t-48.5 132.5v255h-98v107h98v165h119v-165h131v-107h-131z" />
    <glyph glyph-name="Tbar" unicode="&#x166;" horiz-adv-x="672" 
d="M274 444v225h-248v114h620v-114h-249v-225h133v-106h-133v-338h-123v338h-133v106h133z" />
    <glyph glyph-name="tbar" unicode="&#x167;" horiz-adv-x="416" 
d="M240 427v-92h122v-104h-122v-40q0 -48 23 -68.5t69 -20.5q18 0 38 4v-101q-29 -11 -64 -11q-88 0 -136.5 45.5t-48.5 132.5v59h-93v104h93v92h-98v107h98v165h119v-165h131v-107h-131z" />
    <glyph glyph-name="Utilde" unicode="&#x168;" horiz-adv-x="791" 
d="M576 1012v-11q0 -133 -104 -133q-32 0 -76 24.5t-65 24.5q-31 0 -33 -48h-83v11q0 134 106 134q29 0 76 -24t66 -24q33 0 37 46h76zM700 783v-479q0 -143 -78.5 -228.5t-227.5 -85.5t-226 85.5t-77 222.5v485h123v-480q0 -91 50.5 -144t131.5 -53q85 0 133 53.5t48 139.5
v484h123z" />
    <glyph glyph-name="utilde" unicode="&#x169;" horiz-adv-x="633" 
d="M246 693q-38 0 -39 -66h-81q-4 72 28 113.5t92 41.5q27 0 49.5 -11t35 -23.5t28 -23.5t30.5 -11q38 0 39 66h82q3 -72 -29 -113.5t-92 -41.5q-27 0 -49.5 11t-35 23.5t-28.5 23.5t-30 11zM193 534v-299q0 -60 29.5 -96.5t88.5 -36.5q56 0 89.5 37t33.5 98v297h119v-534
h-116v72q-61 -83 -163 -83q-97 0 -148.5 60.5t-51.5 156.5v328h119z" />
    <glyph glyph-name="Umacron" unicode="&#x16a;" horiz-adv-x="792" 
d="M569 984v-95h-346v95h346zM701 783v-479q0 -143 -79 -228.5t-227 -85.5q-150 0 -227 85.5t-77 222.5v485h123v-480q0 -91 51 -144t132 -53q85 0 133 53.5t48 139.5v484h123z" />
    <glyph glyph-name="umacron" unicode="&#x16b;" horiz-adv-x="633" 
d="M487 730v-95h-346v95h346zM193 534v-299q0 -60 29.5 -96.5t88.5 -36.5q56 0 89.5 37t33.5 98v297h119v-534h-116v72q-61 -83 -163 -83q-97 0 -148.5 60.5t-51.5 156.5v328h119z" />
    <glyph glyph-name="Uring" unicode="&#x16e;" horiz-adv-x="791" 
d="M395 851q-60 0 -102.5 40.5t-42.5 98.5q0 57 43 97.5t102 40.5q61 0 103.5 -40.5t42.5 -97.5q0 -58 -42.5 -98.5t-103.5 -40.5zM396 1054q-30 0 -49.5 -18.5t-19.5 -45.5t20 -46.5t49 -19.5t48.5 19.5t19.5 46.5q0 25 -20.5 44.5t-47.5 19.5zM700 783v-479
q0 -143 -78.5 -228.5t-227.5 -85.5t-226 85.5t-77 222.5v485h123v-480q0 -91 50.5 -144t131.5 -53q85 0 133 53.5t48 139.5v484h123z" />
    <glyph glyph-name="uring" unicode="&#x16f;" horiz-adv-x="633" 
d="M313 603q-59 0 -102 40.5t-43 98.5q0 57 43 97.5t102 40.5q61 0 103.5 -40.5t42.5 -97.5q0 -58 -42.5 -98.5t-103.5 -40.5zM314 806q-29 0 -48.5 -18.5t-19.5 -45.5t19.5 -46.5t48.5 -19.5t48.5 19.5t19.5 46.5q0 25 -20.5 44.5t-47.5 19.5zM193 534v-299
q0 -60 29.5 -96.5t88.5 -36.5q56 0 89.5 37t33.5 98v297h119v-534h-116v72q-61 -83 -163 -83q-97 0 -148.5 60.5t-51.5 156.5v328h119z" />
    <glyph glyph-name="Uhungarumlaut" unicode="&#x170;" horiz-adv-x="791" 
d="M244 854l98 172h140l-140 -172h-98zM441 854l98 172h141l-140 -172h-99zM700 783v-479q0 -143 -78.5 -228.5t-227.5 -85.5t-226 85.5t-77 222.5v485h123v-480q0 -91 50.5 -144t131.5 -53q85 0 133 53.5t48 139.5v484h123z" />
    <glyph glyph-name="uhungarumlaut" unicode="&#x171;" horiz-adv-x="633" 
d="M162 625l98 172h140l-140 -172h-98zM359 625l98 172h141l-140 -172h-99zM193 534v-299q0 -60 29.5 -96.5t88.5 -36.5q56 0 89.5 37t33.5 98v297h119v-534h-116v72q-61 -83 -163 -83q-97 0 -148.5 60.5t-51.5 156.5v328h119z" />
    <glyph glyph-name="Uogonek" unicode="&#x172;" horiz-adv-x="791" 
d="M423 -9q-4 0 -14 -0.5t-15 -0.5q-149 0 -226 85.5t-77 222.5v485h123v-480q0 -91 50.5 -144t131.5 -53q85 0 133 53.5t48 139.5v484h123v-483q0 -164 -113 -254l-63 -50q-40 -32 -59 -55t-19 -47q0 -54 77 -54h2v-82q-24 -2 -37 -2q-61 0 -103 28.5t-42 80.5q0 60 80 126
z" />
    <glyph glyph-name="uogonek" unicode="&#x173;" horiz-adv-x="633" 
d="M549 -160v-82q-24 -2 -37 -2q-62 0 -104 28.5t-42 80.5q0 61 94 135h-23v72q-61 -83 -163 -83q-98 0 -149 60t-51 156v329h119v-299q0 -60 29.5 -96.5t88.5 -36.5q56 0 89.5 37t33.5 98v297h119v-534q-83 -62 -83 -106q0 -54 77 -54h2z" />
    <glyph glyph-name="Wcircumflex" unicode="&#x174;" horiz-adv-x="1174" 
d="M632 1026l143 -172h-113l-74 92l-69 -92h-119l139 172h93zM519 783h137l189 -609l179 609h128l-238 -783h-140l-187 612h-1l-189 -612h-138l-236 783h132l176 -609z" />
    <glyph glyph-name="wcircumflex" unicode="&#x175;" horiz-adv-x="879" 
d="M484 797l143 -172h-113l-74 92l-69 -92h-119l139 172h93zM858 534l-171 -534h-124l-123 375h-2l-124 -375h-122l-171 534h125l112 -377h1l121 377h120l122 -378h2l112 378h122z" />
    <glyph glyph-name="Ycircumflex" unicode="&#x176;" horiz-adv-x="751" 
d="M420 1026l144 -172h-114l-74 92l-69 -92h-118l138 172h93zM162 783l214 -351l216 351h141l-296 -467v-316h-124v313l-293 470h142z" />
    <glyph glyph-name="ycircumflex" unicode="&#x177;" horiz-adv-x="612" 
d="M355 797l144 -172h-114l-73 92l-70 -92h-118l138 172h93zM318 184l154 350h129l-367 -797h-127l147 323l-238 474h136z" />
    <glyph glyph-name="Ydieresis" unicode="&#x178;" horiz-adv-x="751" 
d="M265 849q-31 0 -52.5 22t-21.5 53t21.5 53t52.5 22t53 -22t22 -53q0 -32 -22 -53.5t-53 -21.5zM487 849q-31 0 -52.5 22t-21.5 53t21 53t53 22q31 0 53 -22t22 -53t-22 -53t-53 -22zM314 313l-294 470h142l215 -351l216 351h140l-295 -467v-316h-124v313z" />
    <glyph glyph-name="Zacute" unicode="&#x179;" horiz-adv-x="666" 
d="M261 854l103 172h145l-145 -172h-103zM616 783v-105l-428 -568h437v-110h-587v106l428 567h-412v110h562z" />
    <glyph glyph-name="zacute" unicode="&#x17a;" horiz-adv-x="528" 
d="M212 625l102 172h146l-145 -172h-103zM481 534v-95l-293 -335h294v-104h-439v99l290 331h-283v104h431z" />
    <glyph glyph-name="Zdotaccent" unicode="&#x17b;" horiz-adv-x="665" 
d="M331 849q-33 0 -56 23t-23 56t23 56t56 23t56 -23.5t23 -55.5q0 -33 -23.5 -56t-55.5 -23zM615 783v-105l-428 -568h437v-110h-586v106l427 567h-411v110h561z" />
    <glyph glyph-name="zdotaccent" unicode="&#x17c;" horiz-adv-x="529" 
d="M263 621q-33 0 -55.5 23t-22.5 56t22.5 56t55.5 23t56 -23.5t23 -55.5q0 -33 -23.5 -56t-55.5 -23zM482 534v-95l-294 -335h295v-104h-440v99l290 331h-282v104h431z" />
    <glyph glyph-name="Zcaron" unicode="&#x17d;" horiz-adv-x="665" 
d="M331 935l74 92h114l-144 -172h-93l-138 172h118zM615 783v-105l-428 -568h437v-110h-586v106l428 567h-411v110h560z" />
    <glyph glyph-name="zcaron" unicode="&#x17e;" horiz-adv-x="529" 
d="M263 705l74 92h114l-144 -172h-93l-138 172h118zM482 534v-95l-294 -335h295v-104h-440v99l290 331h-282v104h431z" />
    <glyph glyph-name="florin" unicode="&#x192;" horiz-adv-x="600" 
d="M536 680q-47 0 -79 -29.5t-41 -75.5l-8 -41h129v-105h-150l-49 -250q-7 -36 -21.5 -67t-39.5 -59.5t-67 -45t-96 -16.5q-38 0 -65 7v104q31 -5 51 -5q48 0 80 29.5t41 76.5l45 226h-108v105h129l13 64q7 37 21.5 67.5t39.5 59t66 45t94 16.5q39 0 64 -6l1 -105
q-30 5 -50 5z" />
    <glyph glyph-name="uni01B5" unicode="&#x1b5;" horiz-adv-x="668" 
d="M299 451l168 222h-411v110h561v-105l-174 -227h174v-105h-251l-177 -236h436v-110h-585v106l180 240h-164v105h243z" />
    <glyph glyph-name="uni01B6" unicode="&#x1b6;" horiz-adv-x="530" 
d="M229 311l104 119h-282v104h431v-95l-113 -128h113v-84h-186l-108 -123h295v-104h-440v99l112 128h-104v84h178z" />
    <glyph glyph-name="uni01CD" unicode="&#x1cd;" horiz-adv-x="783" 
d="M392 935l73 92h114l-143 -172h-94l-138 172h118zM319 783h145l317 -783h-128l-71 184h-384l-72 -184h-126zM242 293h297l-149 372z" />
    <glyph glyph-name="uni01CE" unicode="&#x1ce;" horiz-adv-x="575" 
d="M277 705l74 92h114l-144 -172h-93l-139 172h119zM385 362q0 33 -27.5 56.5t-77.5 23.5q-92 0 -133 -85l-91 52q63 136 227 136q150 0 200 -109q18 -40 18 -96v-340h-117v73q-49 -82 -157 -82q-78 0 -129 44t-51 113v6q0 44 21 77.5t55.5 51t71 26t74.5 8.5h66q50 0 50 45
zM384 233h-115q-38 0 -70.5 -19.5t-32.5 -54.5q0 -33 23.5 -53t61.5 -20q61 0 97 35t36 95v17z" />
    <glyph glyph-name="uni01CF" unicode="&#x1cf;" horiz-adv-x="323" 
d="M161 935l75 92h114l-144 -172h-94l-138 172h118zM100 783h124v-783h-124v783z" />
    <glyph glyph-name="uni01D0" unicode="&#x1d0;" horiz-adv-x="278" 
d="M139 705l74 92h114l-144 -172h-93l-139 172h119zM80 534h119v-534h-119v534z" />
    <glyph glyph-name="uni01D1" unicode="&#x1d1;" horiz-adv-x="900" 
d="M450 935l74 92h114l-144 -172h-93l-138 172h118zM48 390q0 170 118 287t285 117q168 0 284.5 -115t116.5 -286t-118 -286.5t-286 -115.5t-284 113.5t-116 285.5zM177 393q0 -120 79 -204t194 -84q114 0 193.5 84t79.5 204t-79.5 203.5t-193.5 83.5q-115 0 -194 -83.5
t-79 -203.5z" />
    <glyph glyph-name="uni01D2" unicode="&#x1d2;" horiz-adv-x="650" 
d="M325 705l74 92h114l-144 -172h-93l-138 172h118zM43 268q0 117 83 197t200 80q116 0 198 -79t82 -196q0 -118 -81.5 -198.5t-199.5 -80.5q-117 0 -199.5 80t-82.5 197zM165 270q0 -70 45 -120.5t116 -50.5t115 49t44 120t-44.5 120t-115.5 49t-115.5 -48.5t-44.5 -118.5z
" />
    <glyph glyph-name="uni01D3" unicode="&#x1d3;" horiz-adv-x="791" 
d="M396 935l73 92h114l-144 -172h-93l-138 172h118zM700 783v-479q0 -143 -78.5 -228.5t-227.5 -85.5t-226 85.5t-77 222.5v485h123v-480q0 -91 50.5 -144t131.5 -53q85 0 133 53.5t48 139.5v484h123z" />
    <glyph glyph-name="uni01D4" unicode="&#x1d4;" horiz-adv-x="633" 
d="M313 705l74 92h114l-144 -172h-93l-138 172h118zM193 534v-299q0 -60 29.5 -96.5t88.5 -36.5q56 0 89.5 37t33.5 98v297h119v-534h-116v72q-61 -83 -163 -83q-97 0 -148.5 60.5t-51.5 156.5v328h119z" />
    <glyph glyph-name="uni01D5" unicode="&#x1d5;" horiz-adv-x="791" 
d="M569 1083v-95h-347v95h347zM280 805q-31 0 -52.5 22t-21.5 53t21 53t53 22q31 0 53 -22t22 -53t-22 -53t-53 -22zM512 805q-32 0 -53.5 21.5t-21.5 53.5q0 31 21.5 53t53.5 22q31 0 52.5 -22t21.5 -53t-21.5 -53t-52.5 -22zM700 783v-479q0 -143 -78.5 -228.5
t-227.5 -85.5t-226 85.5t-77 222.5v485h123v-480q0 -91 50.5 -144t131.5 -53q85 0 133 53.5t48 139.5v484h123z" />
    <glyph glyph-name="uni01D6" unicode="&#x1d6;" horiz-adv-x="633" 
d="M487 869v-95h-347v95h347zM202 586q-31 0 -52.5 22t-21.5 53t21.5 53t52.5 22t53 -22t22 -53t-21.5 -53t-53.5 -22zM424 586q-31 0 -52.5 22t-21.5 53t21 53t53 22q31 0 53 -22t22 -53t-22 -53t-53 -22zM193 534v-299q0 -60 29.5 -96.5t88.5 -36.5q56 0 89.5 37t33.5 98
v297h119v-534h-116v72q-61 -83 -163 -83q-97 0 -148.5 60.5t-51.5 156.5v328h119z" />
    <glyph glyph-name="uni01D7" unicode="&#x1d7;" horiz-adv-x="791" 
d="M342 968l97 162h143l-137 -162h-103zM279 805q-31 0 -52.5 22t-21.5 53t21.5 53t52.5 22t53 -22t22 -53q0 -32 -22 -53.5t-53 -21.5zM511 805q-31 0 -52.5 22t-21.5 53t21 53t53 22q31 0 53 -22t22 -53t-22 -53t-53 -22zM700 783v-479q0 -143 -78.5 -228.5t-227.5 -85.5
t-226 85.5t-77 222.5v485h123v-480q0 -91 50.5 -144t131.5 -53q85 0 133 53.5t48 139.5v484h123z" />
    <glyph glyph-name="uni01D8" unicode="&#x1d8;" horiz-adv-x="633" 
d="M260 759l102 172h146l-145 -172h-103zM202 586q-31 0 -52.5 22t-21.5 53t21.5 53t52.5 22t53 -22t22 -53t-21.5 -53t-53.5 -22zM424 586q-31 0 -52.5 22t-21.5 53t21 53t53 22q31 0 53 -22t22 -53t-22 -53t-53 -22zM193 534v-299q0 -60 29.5 -96.5t88.5 -36.5
q56 0 89.5 37t33.5 98v297h119v-534h-116v72q-61 -83 -163 -83q-97 0 -148.5 60.5t-51.5 156.5v328h119z" />
    <glyph glyph-name="uni01D9" unicode="&#x1d9;" horiz-adv-x="791" 
d="M396 1044l73 87h114l-144 -162h-93l-138 162h118zM280 805q-31 0 -52.5 22t-21.5 53t21 53t53 22q31 0 53 -22t22 -53t-22 -53t-53 -22zM512 805q-32 0 -53.5 21.5t-21.5 53.5q0 31 21.5 53t53.5 22q31 0 52.5 -22t21.5 -53t-21.5 -53t-52.5 -22zM700 783v-479
q0 -143 -78.5 -228.5t-227.5 -85.5t-226 85.5t-77 222.5v485h123v-480q0 -91 50.5 -144t131.5 -53q85 0 133 53.5t48 139.5v484h123z" />
    <glyph glyph-name="uni01DA" unicode="&#x1da;" horiz-adv-x="633" 
d="M387 932h114l-144 -172h-93l-138 172h118l69 -92zM200 586q-31 0 -53 22t-22 53t21.5 53t53.5 22q31 0 53 -22t22 -53t-22 -53t-53 -22zM422 586q-32 0 -53.5 22t-21.5 53t21.5 53t53.5 22q31 0 53 -22t22 -53t-22 -53t-53 -22zM193 534v-299q0 -60 29.5 -96.5
t88.5 -36.5q56 0 89.5 37t33.5 98v297h119v-534h-116v72q-61 -83 -163 -83q-97 0 -148.5 60.5t-51.5 156.5v328h119z" />
    <glyph glyph-name="uni01DB" unicode="&#x1db;" horiz-adv-x="791" 
d="M356 1130l97 -162h-103l-137 162h143zM279 805q31 0 53 21.5t22 53.5q0 31 -22 53t-53 22t-52.5 -22t-21.5 -53t21.5 -53t52.5 -22zM511 805q31 0 53 22t22 53t-22 53t-53 22q-32 0 -53 -22t-21 -53t21.5 -53t52.5 -22zM700 783v-479q0 -143 -78.5 -228.5t-227.5 -85.5
t-226 85.5t-77 222.5v485h123v-480q0 -91 50.5 -144t131.5 -53q85 0 133 53.5t48 139.5v484h123z" />
    <glyph glyph-name="uni01DC" unicode="&#x1dc;" horiz-adv-x="633" 
d="M269 931l102 -172h-103l-145 172h146zM202 586q-31 0 -52.5 22t-21.5 53t21.5 53t52.5 22t53 -22t22 -53t-21.5 -53t-53.5 -22zM424 586q-31 0 -52.5 22t-21.5 53t21 53t53 22q31 0 53 -22t22 -53t-22 -53t-53 -22zM193 534v-299q0 -60 29.5 -96.5t88.5 -36.5
q56 0 89.5 37t33.5 98v297h119v-534h-116v72q-61 -83 -163 -83q-97 0 -148.5 60.5t-51.5 156.5v328h119z" />
    <glyph glyph-name="Gcaron" unicode="&#x1e6;" horiz-adv-x="854" 
d="M450 935l73 92h114l-143 -172h-94l-138 172h118zM800 562l-109 -50q-31 75 -91.5 121.5t-153.5 46.5q-115 0 -192.5 -82t-77.5 -205t76 -206t193 -83q99 0 159 49.5t74 126.5h-281v112h414v-43q0 -153 -99.5 -255.5t-265.5 -102.5q-176 0 -287 113t-111 286
q0 172 118 288t281 116q134 0 227 -67.5t126 -164.5z" />
    <glyph glyph-name="gcaron" unicode="&#x1e7;" horiz-adv-x="677" 
d="M320 705l74 92h114l-144 -172h-93l-139 172h119zM303 -4q-113 0 -186.5 81t-73.5 192q0 106 72.5 190t191.5 84q43 0 94 -22.5t80 -67.5v81h116v-527q0 -126 -76.5 -200t-202.5 -74q-195 0 -269 162l99 57q56 -113 168 -113q70 0 116 41.5t46 121.5v84q-29 -46 -81 -68
t-94 -22zM480 271q0 70 -44 118t-115 48t-115 -47.5t-44 -118.5t44.5 -119.5t114.5 -48.5t114.5 48.5t44.5 119.5z" />
    <glyph glyph-name="uni01E8" unicode="&#x1e8;" horiz-adv-x="711" 
d="M375 935l74 92h113l-143 -172h-93l-139 172h119zM223 783h-123v-783h123v370l329 -370h167l-371 409l350 374h-162l-313 -338v338z" />
    <glyph glyph-name="uni01E9" unicode="&#x1e9;" horiz-adv-x="581" 
d="M80 814h120v-490h1l207 210h162l-241 -242l254 -292h-157l-223 261h-3v-261h-120v814zM437 705l74 92h114l-144 -172h-93l-138 172h118z" />
    <glyph glyph-name="uni01F4" unicode="&#x1f4;" horiz-adv-x="853" 
d="M397 854l103 172h146l-146 -172h-103zM800 562l-109 -50q-31 75 -91.5 121.5t-153.5 46.5q-115 0 -192.5 -82t-77.5 -205t76 -206t193 -83q99 0 159 49.5t74 126.5h-281v112h414v-43q0 -153 -99.5 -255.5t-265.5 -102.5q-176 0 -287 113t-111 286q0 172 118 288t281 116
q134 0 227 -67.5t126 -164.5z" />
    <glyph glyph-name="uni01F5" unicode="&#x1f5;" horiz-adv-x="677" 
d="M264 625l103 172h146l-145 -172h-104zM303 -4q-113 0 -186.5 81t-73.5 192q0 106 72.5 190t191.5 84q43 0 94 -22.5t80 -67.5v81h116v-527q0 -126 -76.5 -200t-202.5 -74q-195 0 -269 162l99 57q56 -113 168 -113q70 0 116 41.5t46 121.5v84q-29 -46 -81 -68t-94 -22z
M480 271q0 70 -44 118t-115 48t-115 -47.5t-44 -118.5t44.5 -119.5t114.5 -48.5t114.5 48.5t44.5 119.5z" />
    <glyph glyph-name="Aringacute" unicode="&#x1fa;" horiz-adv-x="782" 
d="M639 1080l-131 -155q28 -36 28 -82q0 -66 -52 -108l297 -735h-128l-71 184h-384l-72 -184h-126l299 735q-53 41 -53 108q0 57 43 97.5t102 40.5q18 0 40 -5l62 104h146zM391 908q-30 0 -49.5 -19t-19.5 -46t20 -46.5t49 -19.5t48.5 19.5t19.5 46.5q0 25 -20.5 45
t-47.5 20zM539 293l-149 372l-148 -372h297z" />
    <glyph glyph-name="aringacute" unicode="&#x1fb;" horiz-adv-x="575" 
d="M398 522q60 -29 85 -86q18 -40 18 -96v-340h-117v73q-49 -82 -157 -82q-78 0 -129 44t-51 113v6q0 44 21 77.5t55.5 51t71 26t74.5 8.5h66q50 0 50 45q0 33 -27.5 56.5t-77.5 23.5q-92 0 -133 -85l-91 52q38 79 112 113q-31 38 -31 85q0 57 43.5 97.5t102.5 40.5
q22 0 43 -6l59 100h146l-129 -152q27 -37 27 -80q0 -49 -31 -85zM283 671q-30 0 -49.5 -18.5t-19.5 -45.5t20 -46.5t49 -19.5t48.5 19.5t19.5 46.5q0 25 -20.5 44.5t-47.5 19.5zM384 233h-115q-38 0 -70.5 -19.5t-32.5 -54.5q0 -33 23.5 -53t61.5 -20q61 0 97 35t36 95v17z
" />
    <glyph glyph-name="AEacute" unicode="&#x1fc;" horiz-adv-x="1053" 
d="M522 854l103 172h145l-145 -172h-103zM991 783v-111h-374v-218h340v-111h-340v-231h378v-112h-500v184h-274l-99 -184h-134l426 783h577zM484 673l-204 -380h215v380h-11z" />
    <glyph glyph-name="aeacute" unicode="&#x1fd;" horiz-adv-x="951" 
d="M418 625l103 172h146l-146 -172h-103zM909 269q0 -24 -1 -37h-409q2 -60 50.5 -99.5t109.5 -39.5q111 0 140 89l102 -30q-23 -75 -91 -118.5t-150 -43.5q-133 0 -215 97q-83 -96 -213 -96h-3q-78 0 -130 44t-52 113v6q0 44 21 77.5t55.5 51t71 26t74.5 8.5h76q44 0 44 45
q0 34 -27.5 57.5t-78.5 23.5q-50 0 -83 -24.5t-39 -63.5l-106 24q4 37 38 80t86 66q44 20 107 20q123 0 176 -77q74 77 189 77q121 0 189.5 -76.5t68.5 -199.5zM505 322h285q-3 56 -42 88.5t-99 32.5q-56 0 -96 -33t-48 -88zM387 233h-118q-38 0 -70.5 -19.5t-32.5 -54.5
q0 -33 23.5 -53t61.5 -20q62 0 99 34.5t37 95.5v17z" />
    <glyph glyph-name="Oslashacute" unicode="&#x1fe;" horiz-adv-x="906" 
d="M400 854l103 172h145l-145 -172h-103zM859 756l-97 -103q93 -111 93 -260q0 -171 -118 -286.5t-286 -115.5q-137 0 -242 77l-92 -94l-68 64l91 96q-89 108 -89 256q0 170 118 287t285 117q134 0 239 -77l98 103zM180 393q0 -95 48 -166l382 402q-70 51 -157 51
q-115 0 -194 -83.5t-79 -203.5zM726 393q0 94 -51 169l-384 -403q70 -54 162 -54q114 0 193.5 84t79.5 204z" />
    <glyph glyph-name="oslashacute" unicode="&#x1ff;" horiz-adv-x="655" 
d="M270 625l102 172h146l-145 -172h-103zM610 495l-58 -59q57 -73 57 -168q0 -118 -82 -197.5t-199 -79.5q-93 0 -163 50l-60 -60l-60 59l58 59q-57 73 -57 169q0 117 82 197t199 80q90 0 165 -51l58 60zM167 268q0 -48 19 -85l228 231q-38 22 -86 22q-71 0 -116 -48.5
t-45 -119.5zM487 268q0 46 -18 84l-227 -230q35 -23 85 -23q71 0 115.5 49t44.5 120z" />
    <glyph glyph-name="Scommaaccent" unicode="&#x218;" horiz-adv-x="641" 
d="M327 -9q-103 0 -179 49t-109 139l104 54q25 -63 73.5 -96.5t112.5 -33.5q60 0 98.5 29t38.5 78q0 43 -36.5 71t-120.5 54q-127 40 -184 91q-60 53 -60 143q0 94 75.5 159.5t184.5 65.5q99 0 164 -46.5t93 -119.5l-102 -55q-45 110 -158 110q-57 0 -94 -30t-37 -77
q0 -44 36.5 -71t108.5 -49q145 -43 201 -99q56 -54 56 -140q0 -91 -72 -158.5t-194 -67.5zM303 -326l-42 38q52 38 77 94q-9 -4 -23 -4q-25 0 -42.5 18t-17.5 45q0 29 19.5 48.5t49.5 19.5t51.5 -25t21.5 -64v-3q0 -47 -25.5 -92t-68.5 -75z" />
    <glyph glyph-name="scommaaccent" unicode="&#x219;" horiz-adv-x="503" 
d="M253 -9q-159 0 -221 134l93 52q43 -86 128 -86q34 0 59 16t25 43q0 47 -110 70q-89 18 -133 64q-38 40 -38 97q0 72 58 118t136 46q144 0 200 -120l-92 -52q-36 72 -112 72q-28 0 -51.5 -15t-23.5 -37q0 -26 23.5 -41.5t75.5 -26.5q91 -20 138 -63t47 -105
q0 -73 -56 -119.5t-146 -46.5zM228 -326l-42 38q52 38 77 94q-9 -4 -23 -4q-25 0 -42.5 18t-17.5 45q0 29 19.5 48.5t49.5 19.5t51.5 -25t21.5 -64v-3q0 -47 -25.5 -92t-68.5 -75z" />
    <glyph glyph-name="uni021A" unicode="&#x21a;" horiz-adv-x="660" 
d="M20 783h620v-114h-249v-669h-123v669h-248v114zM302 -326l-42 38q52 38 77 94q-9 -4 -23 -4q-25 0 -42.5 18t-17.5 45q0 29 19.5 48.5t49.5 19.5t51.5 -25t21.5 -64v-3q0 -47 -25.5 -92t-68.5 -75z" />
    <glyph glyph-name="uni021B" unicode="&#x21b;" horiz-adv-x="416" 
d="M240 427v-236q0 -48 23 -68.5t69 -20.5q18 0 38 4v-101q-29 -11 -64 -11q-88 0 -136.5 45.5t-48.5 132.5v255h-98v107h98v165h119v-165h131v-107h-131zM206 -326l-42 38q52 38 77 94q-9 -4 -23 -4q-25 0 -42.5 18t-17.5 45q0 29 19.5 48.5t49.5 19.5t51.5 -25t21.5 -64
v-3q0 -47 -25.5 -92t-68.5 -75z" />
    <glyph glyph-name="uni0237" unicode="&#x237;" horiz-adv-x="286" 
d="M87 534v-584q0 -60 -22.5 -83.5t-75.5 -23.5q-17 0 -30 4v-104q25 -8 54 -8q194 0 194 202v597h-120z" />
    <glyph glyph-name="circumflex" unicode="&#x2c6;" horiz-adv-x="415" 
d="M252 797l143 -172h-113l-74 92l-69 -92h-119l139 172h93z" />
    <glyph glyph-name="breve" unicode="&#x2d8;" horiz-adv-x="404" 
d="M202 623q-73 0 -124 44t-58 126h101q3 -41 24 -63t57 -22t57.5 22t24.5 63h100q-7 -79 -56 -124.5t-126 -45.5z" />
    <glyph glyph-name="dotaccent" unicode="&#x2d9;" horiz-adv-x="198" 
d="M99 621q-33 0 -56 23t-23 56t23 56t56 23t56 -23.5t23 -55.5q0 -33 -23.5 -56t-55.5 -23z" />
    <glyph glyph-name="tilde" unicode="&#x2dc;" horiz-adv-x="400" 
d="M128 693q-38 0 -39 -66h-81q-4 72 28 113.5t92 41.5q27 0 49.5 -11t35 -23.5t28 -23.5t30.5 -11q38 0 39 66h82q3 -72 -29 -113.5t-92 -41.5q-27 0 -49.5 11t-35 23.5t-28.5 23.5t-30 11z" />
    <glyph glyph-name="hungarumlaut" unicode="&#x2dd;" horiz-adv-x="476" 
d="M20 625l98 172h141l-141 -172h-98zM217 625l98 172h141l-140 -172h-99z" />
    <glyph glyph-name="gravecomb" unicode="&#x300;" horiz-adv-x="0" 
d="M21 797l103 -172h-103l-145 172h145z" />
    <glyph glyph-name="acutecomb" unicode="&#x301;" horiz-adv-x="0" 
d="M-124 625l103 172h145l-145 -172h-103z" />
    <glyph glyph-name="uni0302" unicode="&#x302;" horiz-adv-x="0" 
d="M44 797l143 -172h-113l-74 92l-69 -92h-119l139 172h93z" />
    <glyph glyph-name="tildecomb" unicode="&#x303;" horiz-adv-x="0" 
d="M-72 693q-38 0 -39 -66h-81q-4 72 28 113.5t92 41.5q27 0 49.5 -11t35 -23.5t28 -23.5t30.5 -11q38 0 39 66h82q3 -72 -29 -113.5t-92 -41.5q-27 0 -49.5 11t-35 23.5t-28.5 23.5t-30 11z" />
    <glyph glyph-name="uni0304" unicode="&#x304;" horiz-adv-x="0" 
d="M173 730v-95h-346v95h346z" />
    <glyph glyph-name="uni0306" unicode="&#x306;" horiz-adv-x="0" 
d="M0 623q-73 0 -124 44t-58 126h101q3 -41 24 -63t57 -22t57.5 22t24.5 63h100q-7 -79 -56 -124.5t-126 -45.5z" />
    <glyph glyph-name="uni0307" unicode="&#x307;" horiz-adv-x="0" 
d="M0 621q-33 0 -56 23t-23 56t23 56t56 23t56 -23.5t23 -55.5q0 -33 -23.5 -56t-55.5 -23z" />
    <glyph glyph-name="uni0308" unicode="&#x308;" horiz-adv-x="0" 
d="M-111 621q-31 0 -53 22t-22 53t21.5 53t53.5 22q31 0 53 -22.5t22 -52.5q0 -31 -22 -53t-53 -22zM111 621q-31 0 -53 21.5t-22 53.5q0 31 21.5 53t53.5 22q31 0 53 -22.5t22 -52.5q0 -31 -22 -53t-53 -22z" />
    <glyph glyph-name="uni030A" unicode="&#x30a;" horiz-adv-x="0" 
d="M0 603q-60 0 -103 40.5t-43 98.5q0 57 43.5 97.5t102.5 40.5q60 0 103 -40.5t43 -97.5q0 -58 -43 -98.5t-103 -40.5zM0 806q-30 0 -49.5 -18.5t-19.5 -45.5t20 -46.5t49 -19.5t48.5 19.5t19.5 46.5q0 25 -20.5 44.5t-47.5 19.5z" />
    <glyph glyph-name="uni030B" unicode="&#x30b;" horiz-adv-x="0" 
d="M-218 625l98 172h141l-141 -172h-98zM-21 625l98 172h141l-140 -172h-99z" />
    <glyph glyph-name="uni030C" unicode="&#x30c;" horiz-adv-x="0" 
d="M0 705l74 92h113l-143 -172h-93l-139 172h119z" />
    <glyph glyph-name="uni0312" unicode="&#x312;" horiz-adv-x="0" 
d="M22 875l42 -38q-51 -35 -77 -94q12 5 23 5q25 0 42.5 -18.5t17.5 -45.5q0 -29 -19.5 -48.5t-50.5 -19.5q-30 0 -51 24.5t-21 64.5v4q0 47 25.5 91t68.5 75z" />
    <glyph glyph-name="uni0326" unicode="&#x326;" horiz-adv-x="0" 
d="M-22 -326l-42 38q52 38 77 94q-9 -4 -23 -4q-25 0 -42.5 18t-17.5 45q0 29 19.5 48.5t49.5 19.5t51.5 -25t21.5 -64v-3q0 -47 -25.5 -92t-68.5 -75z" />
    <glyph glyph-name="uni0327" unicode="&#x327;" horiz-adv-x="0" 
d="M22 0h82q26 -37 26 -86q0 -75 -53.5 -116.5t-130.5 -41.5q-47 0 -76 12v80q27 -8 66 -8q47 0 76 23t29 69q0 36 -19 68z" />
    <glyph glyph-name="uni0328" unicode="&#x328;" horiz-adv-x="0" 
d="M0 0h93q-83 -63 -83 -106q0 -54 77 -54h2v-82q-24 -2 -37 -2q-62 0 -103.5 28.5t-41.5 80.5q0 62 93 135z" />
    <glyph glyph-name="Theta" unicode="&#x398;" horiz-adv-x="900" 
d="M48 390q0 170 118 287t285 117q168 0 284.5 -115t116.5 -286t-118 -286.5t-286 -115.5t-284 113.5t-116 285.5zM176 393q0 -120 79.5 -204t194.5 -84q114 0 193.5 84t79.5 204t-79.5 203.5t-193.5 83.5q-115 0 -194.5 -83.5t-79.5 -203.5zM658 454v-111h-416v111h416z
" />
    <glyph glyph-name="uni03A9" unicode="&#x3a9;" horiz-adv-x="875" 
d="M187 431q0 -92 55.5 -158.5t147.5 -85.5v-187h-328v106h217v24q-98 41 -159.5 123t-61.5 184q0 155 112 256t268 101q157 0 268 -100.5t111 -255.5q0 -102 -61.5 -184.5t-159.5 -123.5v-24h216v-106h-327v187q92 19 147.5 85.5t55.5 158.5q0 106 -72 177.5t-179 71.5
q-106 0 -178 -71.5t-72 -177.5z" />
    <glyph glyph-name="theta" unicode="&#x3b8;" horiz-adv-x="726" 
d="M362 -9q-95 0 -167.5 57t-109.5 150t-37 205q0 172 87 293t229 121t228 -120t86 -292t-87 -293t-229 -121zM171 458h385q-10 107 -60 179t-134 72t-133 -71.5t-58 -179.5zM557 354h-387q9 -108 59 -181.5t135 -73.5t135 74t58 181z" />
    <glyph glyph-name="pi" unicode="&#x3c0;" horiz-adv-x="710" 
d="M544 428v-256q0 -19 3.5 -32.5t19 -25t43.5 -11.5q20 0 50 5v-101q-39 -12 -86 -12q-78 0 -113.5 43.5t-35.5 111.5v278h-170v-428h-118v428h-116v106h639v-106h-116z" />
    <glyph glyph-name="uni0401" unicode="&#x401;" horiz-adv-x="663" 
d="M237 849q-31 0 -52.5 22t-21.5 53t21 53.5t53 22.5q31 0 53 -22.5t22 -53.5t-22 -53t-53 -22zM469 849q-31 0 -52.5 21.5t-21.5 53.5q0 31 21 53.5t53 22.5q31 0 53 -22.5t22 -53.5t-22 -53t-53 -22zM223 672v-218h344v-111h-344v-231h382v-112h-505v783h501v-111h-378z
" />
    <glyph glyph-name="uni0402" unicode="&#x402;" horiz-adv-x="842" 
d="M551 -12q-45 0 -90 12v118q30 -10 62 -10q72 0 117.5 35t45.5 110q0 66 -43 102t-120 36q-118 0 -199 -74v-317h-123v670h-180v113h623v-113h-320v-232q108 74 227 74q118 0 189.5 -69.5t71.5 -188.5q0 -128 -70.5 -197t-190.5 -69z" />
    <glyph glyph-name="uni0403" unicode="&#x403;" horiz-adv-x="591" 
d="M267 854l103 172h145l-145 -172h-103zM571 669h-348v-669h-123v783h471v-114z" />
    <glyph glyph-name="uni0404" unicode="&#x404;" horiz-adv-x="834" 
d="M442 -9q-75 0 -145 27t-126 76.5t-89.5 126t-33.5 168.5q0 174 118 289.5t281 115.5q74 0 137 -21.5t105 -57t70 -75t41 -80.5l-110 -51q-29 76 -91 123.5t-154 47.5q-94 0 -169 -62.5t-93 -164.5h342v-109h-344q15 -107 91 -173t173 -66q81 0 149.5 47.5t98.5 124.5
l111 -51q-14 -40 -43 -79.5t-73 -75.5t-108.5 -58t-137.5 -22z" />
    <glyph glyph-name="uni0405" unicode="&#x405;" horiz-adv-x="641" 
d="M327 -9q-103 0 -179 49t-109 139l104 54q25 -63 73.5 -96.5t112.5 -33.5q60 0 98.5 29t38.5 78q0 43 -36.5 71t-120.5 54q-127 40 -184 91q-60 53 -60 143q0 94 75.5 159.5t184.5 65.5q99 0 164 -46.5t93 -119.5l-102 -55q-45 110 -158 110q-57 0 -94 -30t-37 -77
q0 -44 36.5 -71t108.5 -49q145 -43 201 -99q56 -54 56 -140q0 -91 -72 -158.5t-194 -67.5z" />
    <glyph glyph-name="uni0406" unicode="&#x406;" horiz-adv-x="322" 
d="M100 783h123v-783h-123v783z" />
    <glyph glyph-name="uni0407" unicode="&#x407;" horiz-adv-x="322" 
d="M52 849q-32 0 -53.5 21.5t-21.5 53.5q0 31 21.5 53.5t53.5 22.5q31 0 53 -22.5t22 -53.5t-22 -53t-53 -22zM269 849q-31 0 -52.5 22t-21.5 53t21.5 53.5t52.5 22.5t53 -22.5t22 -53.5q0 -32 -22 -53.5t-53 -21.5zM100 783h123v-783h-123v783z" />
    <glyph glyph-name="uni0408" unicode="&#x408;" horiz-adv-x="591" 
d="M258 -9q-79 0 -139 44t-94 126l102 57q44 -112 129 -112q58 0 88.5 35t30.5 91v551h124v-551q0 -107 -67.5 -174t-173.5 -67z" />
    <glyph glyph-name="uni0409" unicode="&#x409;" horiz-adv-x="1223" 
d="M331 671l-41 -370q-3 -25 -5.5 -43.5t-11 -53t-19 -59.5t-30.5 -55t-45.5 -49t-63.5 -32t-84 -12l-9 1v110q125 0 149 224l50 451h509v-305h183q54 0 101.5 -12.5t88.5 -39t65 -73.5t24 -109q0 -105 -71.5 -174.5t-208.5 -69.5h-305v671h-276zM730 112h178q89 0 125.5 38
t36.5 95q0 54 -39.5 89t-124.5 35h-176v-257z" />
    <glyph glyph-name="uni040A" unicode="&#x40a;" horiz-adv-x="1226" 
d="M732 467h188q53 0 99.5 -12t87.5 -37.5t64.5 -71.5t23.5 -108q0 -105 -70 -171.5t-209 -66.5h-307v356h-387v-356h-122v783h122v-316h387v316h123v-316zM732 112h184q157 0 157 129q0 57 -41 87.5t-119 30.5h-181v-247z" />
    <glyph glyph-name="uni040B" unicode="&#x40b;" horiz-adv-x="862" 
d="M689 0v224q0 79 -40.5 121.5t-120.5 42.5q-120 0 -204 -77v-311h-122v670h-181v113h623v-113h-320v-235q109 73 227 73t189.5 -63.5t71.5 -178.5v-266h-123z" />
    <glyph glyph-name="uni040C" unicode="&#x40c;" horiz-adv-x="711" 
d="M319 854l103 172h145l-145 -172h-103zM223 783v-338l312 338h163l-350 -374l370 -409h-166l-329 370v-370h-123v783h123z" />
    <glyph glyph-name="uni040E" unicode="&#x40e;" horiz-adv-x="708" 
d="M363 851q-69 0 -120.5 41t-61.5 123l81 15q14 -44 36 -67.5t65 -23.5q42 0 64.5 24t36.5 67l80 -15q-11 -82 -60.5 -123t-120.5 -41zM141 783l234 -436l208 436h133l-308 -624q-43 -89 -97.5 -128.5t-127.5 -39.5q-94 0 -166 51l66 98q49 -36 95 -36q54 0 87 41
q21 26 46 78l-307 560h137z" />
    <glyph glyph-name="uni040F" unicode="&#x40f;" horiz-adv-x="827" 
d="M352 0h-252v783h123v-671h381v671h124v-783h-253v-165h-123v165z" />
    <glyph glyph-name="uni0410" unicode="&#x410;" horiz-adv-x="783" 
d="M319 783h145l317 -783h-128l-71 184h-384l-72 -184h-126zM242 293h297l-149 372z" />
    <glyph glyph-name="uni0411" unicode="&#x411;" horiz-adv-x="727" 
d="M223 468h183q54 0 102 -12t89 -37.5t65 -72t24 -108.5q0 -105 -71 -171.5t-213 -66.5h-302v783h537v-112h-414v-203zM223 112h167q90 0 131.5 32t41.5 97q0 118 -163 118h-177v-247z" />
    <glyph glyph-name="uni0412" unicode="&#x412;" horiz-adv-x="734" 
d="M100 783h299q114 0 183 -55t69 -151q0 -26 -8 -53.5t-35 -62t-70 -53.5q81 -26 115 -79t34 -110q0 -99 -71 -159t-207 -60h-309v783zM222 452h154q76 0 114 31.5t38 80.5t-35 78.5t-110 29.5h-161v-220zM222 111h189q74 0 113.5 32.5t39.5 85.5q0 51 -40 83t-121 32h-181
v-233z" />
    <glyph glyph-name="uni0413" unicode="&#x413;" horiz-adv-x="591" 
d="M571 669h-348v-669h-123v783h471v-114z" />
    <glyph glyph-name="uni0414" unicode="&#x414;" horiz-adv-x="824" 
d="M654 0h-516v-165h-123v276h4q41 0 73.5 29t51 73.5t28.5 82.5t14 73l49 414h459v-672h83v-276h-123v165zM345 673l-37 -311q-9 -71 -35.5 -140.5t-70.5 -109.5h369v561h-226z" />
    <glyph glyph-name="uni0415" unicode="&#x415;" horiz-adv-x="663" 
d="M223 672v-218h344v-111h-344v-231h382v-112h-505v783h501v-111h-378z" />
    <glyph glyph-name="uni0416" unicode="&#x416;" horiz-adv-x="1056" 
d="M1045 783l-315 -383l325 -400h-157l-303 380h-6v-380h-123v380h-5l-304 -380h-156l324 400l-315 383h155l297 -367h4v367h123v-367h5l297 367h154z" />
    <glyph glyph-name="uni0417" unicode="&#x417;" horiz-adv-x="644" 
d="M591 220q0 -97 -79.5 -163t-200.5 -66q-205 0 -276 177l106 52q52 -117 172 -117q65 0 108 35.5t43 83.5q0 50 -41.5 85.5t-107.5 35.5h-104v111h97q62 0 101.5 34.5t39.5 82.5q0 49 -36.5 80t-104.5 31q-107 0 -155 -114l-107 49q27 78 95 127.5t169 49.5
q122 0 193 -60.5t71 -149.5q0 -122 -118 -179v-1q135 -52 135 -184z" />
    <glyph glyph-name="uni0418" unicode="&#x418;" horiz-adv-x="848" 
d="M100 0v783h121v-587l382 587h145v-783h-122v608l-394 -608h-132z" />
    <glyph glyph-name="uni0419" unicode="&#x419;" horiz-adv-x="848" 
d="M425 851q-70 0 -121 41t-61 123l81 15q14 -44 36 -67.5t65 -23.5q42 0 64.5 24t36.5 67l80 -15q-11 -82 -60.5 -123t-120.5 -41zM100 0v783h121v-587l382 587h145v-783h-122v608l-394 -608h-132z" />
    <glyph glyph-name="uni041A" unicode="&#x41a;" horiz-adv-x="711" 
d="M223 783v-338l312 338h163l-350 -374l370 -409h-166l-329 370v-370h-123v783h123z" />
    <glyph glyph-name="uni041B" unicode="&#x41b;" horiz-adv-x="835" 
d="M331 671l-41 -370q-7 -64 -21.5 -113.5t-42 -95t-76 -70.5t-114.5 -25q-9 0 -14 1v110q33 0 58.5 15.5t40.5 37.5t26 55t15.5 58.5t8.5 57.5l50 451h515v-783h-123v671h-282z" />
    <glyph glyph-name="uni041C" unicode="&#x41c;" horiz-adv-x="1045" 
d="M823 571h-2l-254 -571h-91l-253 568h-2v-568h-121v783h157l265 -599h1l261 599h161v-783h-122v571z" />
    <glyph glyph-name="uni041D" unicode="&#x41d;" horiz-adv-x="833" 
d="M100 783h123v-328h387v328h123v-783h-123v338h-387v-338h-123v783z" />
    <glyph glyph-name="uni041E" unicode="&#x41e;" horiz-adv-x="900" 
d="M48 390q0 170 118 287t285 117q168 0 284.5 -115t116.5 -286t-118 -286.5t-286 -115.5t-284 113.5t-116 285.5zM177 393q0 -120 79 -204t194 -84q114 0 193.5 84t79.5 204t-79.5 203.5t-193.5 83.5q-115 0 -194 -83.5t-79 -203.5z" />
    <glyph glyph-name="uni041F" unicode="&#x41f;" horiz-adv-x="824" 
d="M100 783h625v-783h-123v671h-379v-671h-123v783z" />
    <glyph glyph-name="uni0420" unicode="&#x420;" horiz-adv-x="682" 
d="M651 540q0 -107 -76.5 -178.5t-212.5 -71.5h-139v-290h-123v783h277q137 0 205.5 -71t68.5 -172zM526 537q0 54 -36.5 93t-123.5 39h-143v-266h143q82 0 121 40t39 94z" />
    <glyph glyph-name="uni0421" unicode="&#x421;" horiz-adv-x="834" 
d="M442 -9q-75 0 -145 27t-126 76.5t-89.5 126t-33.5 168.5q0 174 118 289.5t281 115.5q74 0 137 -21.5t105 -57t70 -75t41 -81.5l-111 -51q-29 76 -90.5 123.5t-153.5 47.5q-107 0 -187 -79.5t-80 -206.5q0 -126 79.5 -206.5t187.5 -80.5q81 0 149.5 47.5t97.5 124.5
l112 -51q-14 -41 -43 -80.5t-73 -75.5t-108 -58t-138 -22z" />
    <glyph glyph-name="uni0422" unicode="&#x422;" horiz-adv-x="659" 
d="M19 783h621v-114h-249v-669h-123v669h-249v114z" />
    <glyph glyph-name="uni0423" unicode="&#x423;" horiz-adv-x="708" 
d="M141 783l234 -436l208 436h133l-308 -624q-43 -89 -97.5 -128.5t-127.5 -39.5q-94 0 -166 51l66 98q49 -36 95 -36q54 0 87 41q21 26 46 78l-307 560h137z" />
    <glyph glyph-name="uni0424" unicode="&#x424;" horiz-adv-x="971" 
d="M547 808v-73q166 0 274 -89.5t108 -246.5q0 -153 -106 -245t-276 -92v-86h-123v86q-170 0 -276 93t-106 246q0 155 108 244.5t274 89.5v73h123zM168 399q0 -97 63 -161t193 -64v449q-126 0 -191 -64.5t-65 -159.5zM803 399q0 95 -65 159.5t-191 64.5v-449q130 0 193 64
t63 161z" />
    <glyph glyph-name="uni0425" unicode="&#x425;" horiz-adv-x="732" 
d="M293 403l-274 380h148l200 -285l201 285h145l-272 -379l288 -404h-146l-218 308l-219 -308h-144z" />
    <glyph glyph-name="uni0426" unicode="&#x426;" horiz-adv-x="856" 
d="M100 783h123v-671h381v671h124v-671h82v-277h-123v165h-587v783z" />
    <glyph glyph-name="uni0427" unicode="&#x427;" horiz-adv-x="761" 
d="M538 0v320q-134 -67 -225 -67q-124 0 -190.5 66t-66.5 185v279h123v-245q0 -82 36.5 -125.5t122.5 -43.5q54 0 109 20.5t91 45.5v348h123v-783h-123z" />
    <glyph glyph-name="uni0428" unicode="&#x428;" horiz-adv-x="1217" 
d="M547 783h123v-671h325v671h123v-783h-1018v783h122v-671h325v671z" />
    <glyph glyph-name="uni0429" unicode="&#x429;" horiz-adv-x="1248" 
d="M547 783h123v-670h325v670h124v-670h82v-278h-123v165h-978v783h122v-670h325v670z" />
    <glyph glyph-name="uni042A" unicode="&#x42a;" horiz-adv-x="811" 
d="M316 478h184q53 0 101 -12.5t89 -39t65 -73.5t24 -109q0 -105 -71.5 -174.5t-209.5 -69.5h-304v671h-176v112h298v-305zM316 112h179q89 0 125.5 38t36.5 95q0 54 -39 89t-124 35h-178v-257z" />
    <glyph glyph-name="uni042B" unicode="&#x42b;" horiz-adv-x="1007" 
d="M685 244q0 -105 -71.5 -174.5t-209.5 -69.5h-304v783h122v-305h183q54 0 101.5 -12.5t89 -39t65.5 -73.5t24 -109zM778 783h130v-783h-130v783zM563 245q0 54 -39.5 89t-124.5 35h-177v-257h178q89 0 126 38t37 95z" />
    <glyph glyph-name="uni042C" unicode="&#x42c;" horiz-adv-x="716" 
d="M685 244q0 -105 -71.5 -174.5t-209.5 -69.5h-304v783h122v-305h183q54 0 101.5 -12.5t89 -39t65.5 -73.5t24 -109zM563 245q0 54 -39.5 89t-124.5 35h-177v-257h178q89 0 126 38t37 95z" />
    <glyph glyph-name="uni042D" unicode="&#x42d;" horiz-adv-x="834" 
d="M394 794q77 0 147 -27t125 -76.5t87.5 -126t32.5 -168.5q0 -174 -117 -289.5t-280 -115.5q-74 0 -137 21.5t-106 57t-71 75.5t-41 81l112 52q28 -76 90.5 -123.5t154.5 -47.5q96 0 171 65t90 172h-343v109h341q-18 103 -90.5 164t-168.5 61q-81 0 -148.5 -47t-99.5 -125
l-113 52q37 97 131.5 166.5t232.5 69.5z" />
    <glyph glyph-name="uni042E" unicode="&#x42e;" horiz-adv-x="1160" 
d="M223 450h116q20 150 127.5 247t258.5 97q167 0 276.5 -114.5t109.5 -286.5q0 -173 -111.5 -287.5t-277.5 -114.5q-152 0 -258.5 96.5t-124.5 248.5h-116v-336h-123v783h123v-333zM466 393q0 -117 72.5 -202.5t184.5 -85.5q114 0 186.5 83.5t72.5 204.5q0 119 -74 203
t-185 84q-112 0 -184.5 -84t-72.5 -203z" />
    <glyph glyph-name="uni042F" unicode="&#x42f;" horiz-adv-x="719" 
d="M40 0l173 322q-76 27 -115 85.5t-39 136.5q0 101 65 170t201 69h295v-783h-123v297h-164l-158 -297h-135zM497 669h-158q-155 0 -155 -132q0 -52 37 -90.5t118 -38.5h158v261z" />
    <glyph glyph-name="uni0430" unicode="&#x430;" horiz-adv-x="575" 
d="M385 362q0 33 -27.5 56.5t-77.5 23.5q-92 0 -133 -85l-91 52q63 136 227 136q150 0 200 -109q18 -40 18 -96v-340h-117v73q-49 -82 -157 -82q-78 0 -129 44t-51 113v6q0 44 21 77.5t55.5 51t71 26t74.5 8.5h66q50 0 50 45zM384 233h-115q-38 0 -70.5 -19.5t-32.5 -54.5
q0 -33 23.5 -53t61.5 -20q61 0 97 35t36 95v17z" />
    <glyph glyph-name="uni0431" unicode="&#x431;" horiz-adv-x="663" 
d="M586 705l-188 -41q-70 -15 -116.5 -37.5t-71 -54.5t-34.5 -64.5t-14 -79.5l4 -1q25 43 80.5 77t119.5 34q102 0 177.5 -76t75.5 -190q0 -126 -78 -203.5t-199 -77.5q-126 0 -203 81t-77 240q0 48 2 84t9.5 81t20.5 78t36.5 68.5t56 61t81 47t109.5 34.5l188 39zM342 437
q-63 0 -110.5 -47t-47.5 -120q0 -76 45.5 -123.5t112.5 -47.5q68 0 112.5 47.5t44.5 123.5q0 77 -47 122t-110 45z" />
    <glyph glyph-name="uni0432" unicode="&#x432;" horiz-adv-x="609" 
d="M80 534h283q78 0 128 -35t50 -99q0 -83 -86 -121q44 -8 76 -45t32 -89q0 -74 -57 -109.5t-138 -35.5h-288v534zM197 315h140q41 0 61 19t20 45t-20.5 42.5t-57.5 16.5h-143v-123zM197 98h154q41 0 65.5 17.5t24.5 50.5q0 31 -27 47t-68 16h-149v-131z" />
    <glyph glyph-name="uni0433" unicode="&#x433;" horiz-adv-x="475" 
d="M455 427h-256v-427h-119v534h375v-107z" />
    <glyph glyph-name="uni0434" unicode="&#x434;" horiz-adv-x="694" 
d="M27 105h2q38 0 66.5 32t40 69t16.5 77l31 251h397v-427h68v-272h-117v165h-387v-165h-117v270zM289 427l-20 -155q-15 -114 -79 -165h270v320h-171z" />
    <glyph glyph-name="uni0435" unicode="&#x435;" horiz-adv-x="615" 
d="M571 232h-405q1 -60 48 -99.5t108 -39.5q100 0 144 83l86 -57q-34 -62 -95 -95.5t-133 -33.5q-119 0 -199.5 79.5t-80.5 198.5q0 115 77 196t192 81q122 0 191 -76t69 -200q0 -24 -2 -37zM313 443q-55 0 -94 -33t-47 -88h280q-3 56 -42.5 88.5t-96.5 32.5z" />
    <glyph glyph-name="uni0436" unicode="&#x436;" horiz-adv-x="871" 
d="M854 534l-220 -260l226 -274h-152l-208 259h-5v-259h-119v259h-5l-207 -259h-153l226 274l-220 260h152l201 -246h6v246h119v-246h6l201 246h152z" />
    <glyph glyph-name="uni0437" unicode="&#x437;" horiz-adv-x="513" 
d="M257 -11q-78 0 -137.5 34.5t-89.5 101.5l95 51q38 -83 129 -83q40 0 65 19t25 47q0 66 -89 66h-69v90h68q39 0 60 17.5t21 47.5q0 26 -22 44t-61 18q-85 0 -125 -85l-93 50q31 67 89.5 102.5t133.5 35.5q91 0 144.5 -42.5t53.5 -110.5q0 -37 -21 -67t-60 -46v-1
q91 -36 91 -126q0 -76 -57 -119.5t-151 -43.5z" />
    <glyph glyph-name="uni0438" unicode="&#x438;" horiz-adv-x="644" 
d="M80 534h116v-357l253 357h115v-534h-116v356l-253 -356h-115v534z" />
    <glyph glyph-name="uni0439" unicode="&#x439;" horiz-adv-x="644" 
d="M323 622q-70 0 -121.5 41t-60.5 123l80 15q14 -44 36.5 -67.5t65.5 -23.5q42 0 64.5 24t36.5 67l79 -15q-11 -82 -60.5 -123t-119.5 -41zM80 534h116v-357l253 357h115v-534h-116v356l-253 -356h-115v534z" />
    <glyph glyph-name="uni043A" unicode="&#x43a;" horiz-adv-x="586" 
d="M199 534v-225h5l212 225h158l-244 -256l261 -278h-161l-226 247h-5v-247h-119v534h119z" />
    <glyph glyph-name="uni043B" unicode="&#x43b;" horiz-adv-x="654" 
d="M274 427l-26 -217q-6 -44 -17 -78t-34 -67.5t-65 -51.5t-101 -18h-3v107q88 0 103 124l37 308h407v-534h-120v427h-181z" />
    <glyph glyph-name="uni043C" unicode="&#x43c;" horiz-adv-x="810" 
d="M248 534l158 -383l155 383h169v-534h-117v401l-163 -401h-88l-166 399v-399h-116v534h168z" />
    <glyph glyph-name="uni043D" unicode="&#x43d;" horiz-adv-x="640" 
d="M80 534h119v-212h242v212h119v-534h-119v218h-242v-218h-119v534z" />
    <glyph glyph-name="uni043E" unicode="&#x43e;" horiz-adv-x="650" 
d="M43 268q0 117 83 197t200 80q116 0 198 -79t82 -196q0 -118 -81.5 -198.5t-199.5 -80.5q-117 0 -199.5 80t-82.5 197zM165 270q0 -70 45 -120.5t116 -50.5t115 49t44 120t-44.5 120t-115.5 49t-115.5 -48.5t-44.5 -118.5z" />
    <glyph glyph-name="uni043F" unicode="&#x43f;" horiz-adv-x="636" 
d="M80 534h476v-534h-119v427h-238v-427h-119v534z" />
    <glyph glyph-name="uni0440" unicode="&#x440;" horiz-adv-x="681" 
d="M637 269q0 -112 -75 -194.5t-190 -82.5q-40 0 -92.5 21.5t-80.5 64.5v-341h-119v797h116v-83q30 49 82 71t97 22q117 0 189.5 -84t72.5 -191zM197 268q0 -71 44.5 -119.5t115.5 -48.5t115.5 48.5t44.5 119.5t-44.5 120t-115.5 49t-115.5 -49t-44.5 -120z" />
    <glyph glyph-name="uni0441" unicode="&#x441;" horiz-adv-x="601" 
d="M322 -9q-118 0 -198 79.5t-80 197.5q0 113 80 195t198 82q90 0 153 -44.5t87 -115.5l-102 -46q-35 98 -137 98q-66 0 -111.5 -47t-45.5 -120q0 -75 45 -123t113 -48q100 0 138 99l104 -46q-23 -65 -85 -113t-159 -48z" />
    <glyph glyph-name="uni0442" unicode="&#x442;" horiz-adv-x="509" 
d="M21 534h467v-107h-174v-427h-120v427h-173v107z" />
    <glyph glyph-name="uni0443" unicode="&#x443;" horiz-adv-x="612" 
d="M318 184l154 350h129l-367 -797h-127l147 323l-238 474h136z" />
    <glyph glyph-name="uni0444" unicode="&#x444;" horiz-adv-x="887" 
d="M384 -244v285q-52 -46 -121 -46q-106 0 -161 78t-55 195q0 116 56.5 194.5t160.5 78.5q35 0 69 -15t51 -34v291h119v-291q17 19 51 34t69 15q104 0 160 -78.5t56 -195.5q0 -116 -54.5 -194t-160.5 -78q-69 0 -121 46v-285h-119zM297 437q-63 0 -96 -47t-33 -125
q0 -80 32 -124t97 -44q47 0 87 35v268q-41 37 -87 37zM591 437q-48 0 -88 -37v-268q40 -35 87 -35q129 0 129 170q0 76 -32.5 123t-95.5 47z" />
    <glyph glyph-name="uni0445" unicode="&#x445;" horiz-adv-x="570" 
d="M217 270l-196 264h137l128 -177l129 177h134l-195 -262l202 -272h-137l-135 186l-134 -186h-136z" />
    <glyph glyph-name="uni0446" unicode="&#x446;" horiz-adv-x="670" 
d="M80 534h119v-427h238v427h119v-427h68v-271h-117v164h-427v534z" />
    <glyph glyph-name="uni0447" unicode="&#x447;" horiz-adv-x="590" 
d="M391 0v193q-87 -41 -154 -41q-85 0 -138 44.5t-53 131.5v206h120v-187q0 -41 24.5 -64.5t66.5 -23.5q69 0 134 38v237h120v-534h-120z" />
    <glyph glyph-name="uni0448" unicode="&#x448;" horiz-adv-x="927" 
d="M404 534h118v-427h206v427h120v-534h-768v534h119v-427h205v427z" />
    <glyph glyph-name="uni0449" unicode="&#x449;" horiz-adv-x="961" 
d="M404 534h118v-427h206v427h119v-427h69v-272h-113v165h-723v534h119v-427h205v427z" />
    <glyph glyph-name="uni044A" unicode="&#x44a;" horiz-adv-x="684" 
d="M654 184q0 -83 -54.5 -133.5t-155.5 -50.5h-268v428h-155v106h274v-176h141q98 0 158 -43.5t60 -130.5zM534 185q0 40 -29.5 60t-77.5 20h-132v-165h134q48 0 76.5 21t28.5 64z" />
    <glyph glyph-name="uni044B" unicode="&#x44b;" horiz-adv-x="866" 
d="M557 184q0 -83 -54 -133.5t-155 -50.5h-268v534h119v-176h140q98 0 158 -43.5t60 -130.5zM667 534h119v-534h-119v534zM437 185q0 40 -29.5 60t-77.5 20h-131v-165h133q105 0 105 85z" />
    <glyph glyph-name="uni044C" unicode="&#x44c;" horiz-adv-x="587" 
d="M557 184q0 -83 -54 -133.5t-155 -50.5h-268v534h119v-176h140q98 0 158 -43.5t60 -130.5zM437 185q0 40 -29.5 60t-77.5 20h-131v-165h133q105 0 105 85z" />
    <glyph glyph-name="uni044D" unicode="&#x44d;" horiz-adv-x="601" 
d="M285 545q121 0 196.5 -79t75.5 -195q0 -121 -77.5 -200.5t-199.5 -79.5q-97 0 -159.5 47.5t-85.5 111.5l102 45q38 -98 142 -98q60 0 101.5 36.5t52.5 96.5h-208v92h205q-13 53 -53 85t-94 32q-103 0 -144 -97l-100 44q25 70 90.5 114.5t155.5 44.5z" />
    <glyph glyph-name="uni044E" unicode="&#x44e;" horiz-adv-x="872" 
d="M198 318h91q17 99 91 163t177 64q117 0 193.5 -79t76.5 -198t-77.5 -198t-195.5 -79q-102 0 -174.5 63t-89.5 164h-92v-218h-118v534h118v-216zM406 268q0 -72 41.5 -120.5t109.5 -48.5q69 0 109 48.5t40 120.5q0 71 -41.5 120t-109.5 49q-70 0 -109.5 -48t-39.5 -121z
" />
    <glyph glyph-name="uni044F" unicode="&#x44f;" horiz-adv-x="614" 
d="M33 0l150 197q-128 41 -128 163q0 75 53.5 124.5t157.5 49.5h268v-534h-119v176h-110l-130 -176h-142zM415 434h-136q-40 0 -72 -18t-32 -62q0 -35 26 -59t80 -24h134v163z" />
    <glyph glyph-name="uni0451" unicode="&#x451;" horiz-adv-x="615" 
d="M200 621q-31 0 -53 22t-22 53t21.5 53t53.5 22q31 0 53 -22.5t22 -52.5q0 -31 -22 -53t-53 -22zM422 621q-32 0 -53.5 21.5t-21.5 53.5q0 31 21.5 53t53.5 22q31 0 53 -22.5t22 -52.5q0 -31 -22 -53t-53 -22zM571 232h-405q1 -60 48 -99.5t108 -39.5q100 0 144 83l86 -57
q-34 -62 -95 -95.5t-133 -33.5q-119 0 -199.5 79.5t-80.5 198.5q0 115 77 196t192 81q122 0 191 -76t69 -200q0 -24 -2 -37zM313 443q-55 0 -94 -33t-47 -88h280q-3 56 -42.5 88.5t-96.5 32.5z" />
    <glyph glyph-name="uni0452" unicode="&#x452;" horiz-adv-x="619" 
d="M561 329v-363q0 -111 -54.5 -170.5t-160.5 -59.5q-28 0 -60 9v100q15 -5 37 -5q64 0 91 28.5t27 100.5v330q0 60 -29.5 96.5t-88.5 36.5q-56 0 -90 -38t-34 -98v-296h-119v628h-71v87h71v99h119v-99h166v-87h-166v-163q63 80 161 80t149.5 -60t51.5 -156z" />
    <glyph glyph-name="uni0453" unicode="&#x453;" horiz-adv-x="475" 
d="M202 625l103 172h145l-145 -172h-103zM456 427h-257v-427h-119v534h376v-107z" />
    <glyph glyph-name="uni0454" unicode="&#x454;" horiz-adv-x="600" 
d="M464 195l101 -45q-23 -64 -84.5 -111.5t-158.5 -47.5q-118 0 -198 79.5t-80 197.5q0 113 80 195t198 82q90 0 153 -44t87 -115l-100 -44q-37 97 -139 97q-54 0 -96.5 -32t-55.5 -85h205v-92h-208q11 -59 54 -96t102 -37q100 0 140 98z" />
    <glyph glyph-name="uni0455" unicode="&#x455;" horiz-adv-x="502" 
d="M253 -9q-159 0 -221 134l93 52q43 -86 128 -86q34 0 59 16t25 43q0 47 -110 70q-89 18 -133 64q-38 40 -38 97q0 72 58 118t136 46q144 0 200 -120l-92 -52q-36 72 -112 72q-28 0 -51.5 -15t-23.5 -37q0 -26 23.5 -41.5t75.5 -26.5q91 -20 138 -63t47 -105
q0 -73 -56 -119.5t-146 -46.5z" />
    <glyph glyph-name="uni0456" unicode="&#x456;" horiz-adv-x="278" 
d="M61 707q0 32 23 55.5t55 23.5t55 -23.5t23 -55.5t-23 -55t-55 -23t-55 23t-23 55zM199 534h-119v-534h119v534z" />
    <glyph glyph-name="uni0457" unicode="&#x457;" horiz-adv-x="278" 
d="M25 621q-31 0 -52.5 22t-21.5 53q0 30 21.5 52.5t52.5 22.5t53.5 -22.5t22.5 -52.5q0 -31 -22 -53t-54 -22zM248 621q-32 0 -53.5 21.5t-21.5 53.5q0 31 21.5 53t53.5 22q31 0 52.5 -22.5t21.5 -52.5q0 -31 -21.5 -53t-52.5 -22zM80 534h119v-534h-119v534z" />
    <glyph glyph-name="uni0458" unicode="&#x458;" horiz-adv-x="286" 
d="M68 707q0 32 23 55.5t55 23.5q33 0 56.5 -23.5t23.5 -55.5t-23.5 -55t-56.5 -23q-32 0 -55 23t-23 55zM87 534v-584q0 -60 -22.5 -83.5t-75.5 -23.5q-17 0 -30 4v-104q25 -8 54 -8q194 0 194 202v597h-120z" />
    <glyph glyph-name="uni0459" unicode="&#x459;" horiz-adv-x="962" 
d="M933 184q0 -83 -54.5 -133.5t-155.5 -50.5h-268v427h-182l-26 -217q-5 -44 -16 -77.5t-34 -67t-65 -52t-101 -18.5h-3v107q87 0 102 124l37 308h407v-176h140q98 0 158.5 -43.5t60.5 -130.5zM813 185q0 40 -29.5 60t-77.5 20h-132v-165h134q48 0 76.5 21t28.5 64z" />
    <glyph glyph-name="uni045A" unicode="&#x45a;" horiz-adv-x="947" 
d="M80 0v534h119v-185h241v185h119v-185h140q99 0 158.5 -41.5t59.5 -128.5q0 -82 -53.5 -130.5t-155.5 -48.5h-268v255h-241v-255h-119zM559 100h133q106 0 106 82q0 75 -108 75h-131v-157z" />
    <glyph glyph-name="uni045B" unicode="&#x45b;" horiz-adv-x="633" 
d="M365 715v-87h-166v-162q62 79 160 79t149 -60t51 -156v-329h-119v299q0 60 -29.5 96.5t-88.5 36.5q-56 0 -89.5 -37t-33.5 -98v-297h-119v628h-71v87h71v99h119v-99h166z" />
    <glyph glyph-name="uni045C" unicode="&#x45c;" horiz-adv-x="586" 
d="M245 625l102 172h146l-145 -172h-103zM204 309h-5v225h-119v-534h119v247h5l226 -247h161l-261 278l244 256h-158z" />
    <glyph glyph-name="uni045E" unicode="&#x45e;" horiz-adv-x="612" 
d="M314 622q-69 0 -120.5 41t-61.5 123l80 15q15 -44 37 -67.5t65 -23.5q42 0 64.5 24t36.5 67l80 -15q-11 -82 -61 -123t-120 -41zM318 184l154 350h129l-367 -797h-127l147 323l-238 474h136z" />
    <glyph glyph-name="uni045F" unicode="&#x45f;" horiz-adv-x="636" 
d="M80 534h119v-427h238v427h119v-534h-179v-164h-116v164h-181v534z" />
    <glyph glyph-name="uni0490" unicode="&#x490;" horiz-adv-x="591" 
d="M449 783v162h123v-276h-349v-669h-123v783h349z" />
    <glyph glyph-name="uni0491" unicode="&#x491;" horiz-adv-x="475" 
d="M344 693h111v-266h-257v-427h-118v534h264v159z" />
    <glyph glyph-name="uni0496" unicode="&#x496;" horiz-adv-x="1077" 
d="M898 0l-303 380h-6v-380h-123v380h-5l-304 -380h-156l324 400l-315 383h155l297 -367h4v367h123v-367h5l297 367h154l-315 -383l233 -287h92v-278h-123v165h-34z" />
    <glyph glyph-name="uni0497" unicode="&#x497;" horiz-adv-x="892" 
d="M708 0l-208 259h-5v-259h-119v259h-5l-207 -259h-153l226 274l-220 260h152l201 -246h6v246h119v-246h6l201 246h152l-220 -260l138 -167h89v-272h-113v165h-40z" />
    <glyph glyph-name="uni0498" unicode="&#x498;" horiz-adv-x="644" 
d="M591 220q0 -84 -61 -146t-160 -78v-161h-122v161q-154 25 -213 172l106 52q52 -117 172 -117q65 0 108 35.5t43 83.5q0 50 -41.5 85.5t-107.5 35.5h-104v111h97q62 0 101.5 34.5t39.5 82.5q0 49 -36.5 80t-104.5 31q-107 0 -155 -114l-107 49q27 78 95 127.5t169 49.5
q122 0 193 -60.5t71 -149.5q0 -122 -118 -179v-1q135 -52 135 -184z" />
    <glyph glyph-name="uni0499" unicode="&#x499;" horiz-adv-x="513" 
d="M465 152q0 -63 -41 -104.5t-111 -53.5v-159h-112v159q-123 23 -171 131l95 51q38 -83 129 -83q40 0 65 19t25 47q0 66 -89 66h-69v90h68q39 0 60 17.5t21 47.5q0 26 -22 44t-61 18q-85 0 -125 -85l-93 50q31 67 89.5 102.5t133.5 35.5q91 0 144.5 -42.5t53.5 -110.5
q0 -37 -21 -67t-60 -46v-1q91 -36 91 -126z" />
    <glyph glyph-name="uni049A" unicode="&#x49a;" horiz-adv-x="735" 
d="M552 0l-329 370v-370h-123v783h123v-338l312 338h163l-350 -374l268 -296h103v-278h-123v165h-44z" />
    <glyph glyph-name="uni049B" unicode="&#x49b;" horiz-adv-x="609" 
d="M430 0l-226 247h-5v-247h-119v534h119v-225h5l212 225h158l-244 -256l161 -171h100v-272h-112v165h-49z" />
    <glyph glyph-name="uni04A2" unicode="&#x4a2;" horiz-adv-x="863" 
d="M610 0v338h-387v-338h-123v783h123v-328h387v328h123v-670h83v-278h-123v165h-83z" />
    <glyph glyph-name="uni04A3" unicode="&#x4a3;" horiz-adv-x="674" 
d="M441 0v218h-242v-218h-119v534h119v-212h242v212h119v-427h68v-272h-113l1 165h-75z" />
    <glyph glyph-name="uni04AA" unicode="&#x4aa;" horiz-adv-x="834" 
d="M692 278l112 -51q-17 -50 -54.5 -97t-105 -86.5t-149.5 -49.5v-159h-123v162q-137 24 -230.5 128.5t-93.5 263.5q0 174 118 289.5t281 115.5q74 0 137 -21.5t105 -57t70 -75t41 -81.5l-111 -51q-29 76 -90.5 123.5t-153.5 47.5q-107 0 -187 -79.5t-80 -206.5
q0 -126 79.5 -206.5t187.5 -80.5q81 0 149.5 47.5t97.5 124.5z" />
    <glyph glyph-name="uni04AB" unicode="&#x4ab;" horiz-adv-x="601" 
d="M462 198l104 -46q-19 -54 -67 -98.5t-122 -57.5v-161h-113v162q-97 19 -158.5 94t-61.5 177q0 113 80 195t198 82q90 0 153 -44.5t87 -115.5l-102 -46q-35 98 -137 98q-66 0 -111.5 -47t-45.5 -120q0 -75 45 -123t113 -48q100 0 138 99z" />
    <glyph glyph-name="uni04AC" unicode="&#x4ac;" horiz-adv-x="663" 
d="M268 0v669h-249v114h621v-114h-249v-556h82v-278h-123v165h-82z" />
    <glyph glyph-name="uni04AD" unicode="&#x4ad;" horiz-adv-x="514" 
d="M194 0v427h-173v107h467v-107h-174v-320h68v-272h-112v165h-76z" />
    <glyph glyph-name="uni04B2" unicode="&#x4b2;" horiz-adv-x="752" 
d="M583 0l-218 308l-219 -308h-144l291 403l-274 380h148l200 -285l201 285h145l-272 -379l208 -291h80v-278h-122v165h-24z" />
    <glyph glyph-name="uni04B3" unicode="&#x4b3;" horiz-adv-x="589" 
d="M419 0l-135 186l-134 -186h-136l203 270l-196 264h137l128 -177l129 177h134l-195 -262l122 -165h80v-272h-113v165h-24z" />
    <glyph glyph-name="uni04B6" unicode="&#x4b6;" horiz-adv-x="792" 
d="M538 0v320q-134 -67 -225 -67q-124 0 -190.5 66t-66.5 185v279h123v-245q0 -82 36.5 -125.5t122.5 -43.5q54 0 109 20.5t91 45.5v348h125v-671h82v-277h-123v165h-84z" />
    <glyph glyph-name="uni04B7" unicode="&#x4b7;" horiz-adv-x="625" 
d="M391 0v193q-87 -41 -154 -41q-85 0 -138 44.5t-53 131.5v206h120v-187q0 -41 24.5 -64.5t66.5 -23.5q69 0 134 38v237h120v-427h68v-272h-113v165h-75z" />
    <glyph glyph-name="uni04C0" unicode="&#x4c0;" horiz-adv-x="322" 
d="M100 783h123v-783h-123v783z" />
    <glyph glyph-name="uni04C1" unicode="&#x4c1;" horiz-adv-x="1056" 
d="M527 851q-69 0 -120.5 41t-61.5 123l81 15q14 -44 36 -67.5t65 -23.5q42 0 64.5 24t36.5 67l80 -15q-11 -82 -60.5 -123t-120.5 -41zM1045 783l-315 -383l325 -400h-157l-303 380h-6v-380h-123v380h-5l-304 -380h-156l324 400l-315 383h155l297 -367h4v367h123v-367h5
l297 367h154z" />
    <glyph glyph-name="uni04C2" unicode="&#x4c2;" horiz-adv-x="871" 
d="M437 622q-70 0 -121.5 41t-61.5 123l81 15q14 -44 36.5 -67.5t65.5 -23.5q42 0 64 23.5t37 67.5l79 -15q-11 -82 -60.5 -123t-119.5 -41zM854 534l-220 -260l226 -274h-152l-208 259h-5v-259h-119v259h-5l-207 -259h-153l226 274l-220 260h152l201 -246h6v246h119v-246h6
l201 246h152z" />
    <glyph glyph-name="uni04CF" unicode="&#x4cf;" horiz-adv-x="278" 
d="M80 534h119v-534h-119v534z" />
    <glyph glyph-name="uni04D0" unicode="&#x4d0;" horiz-adv-x="783" 
d="M392 851q-70 0 -121.5 41t-61.5 123l81 15q14 -44 36.5 -67.5t65.5 -23.5q42 0 64.5 24t36.5 67l79 -15q-11 -82 -60.5 -123t-119.5 -41zM319 783h145l317 -783h-128l-71 184h-384l-72 -184h-126zM242 293h297l-149 372z" />
    <glyph glyph-name="uni04D1" unicode="&#x4d1;" horiz-adv-x="575" 
d="M277 622q-70 0 -121.5 41t-60.5 123l80 15q14 -44 36.5 -67.5t65.5 -23.5q42 0 64.5 24t36.5 67l80 -15q-11 -82 -61 -123t-120 -41zM385 362q0 33 -27.5 56.5t-77.5 23.5q-92 0 -133 -85l-91 52q63 136 227 136q150 0 200 -109q18 -40 18 -96v-340h-117v73
q-49 -82 -157 -82q-78 0 -129 44t-51 113v6q0 44 21 77.5t55.5 51t71 26t74.5 8.5h66q50 0 50 45zM384 233h-115q-38 0 -70.5 -19.5t-32.5 -54.5q0 -33 23.5 -53t61.5 -20q61 0 97 35t36 95v17z" />
    <glyph glyph-name="uni04D2" unicode="&#x4d2;" horiz-adv-x="783" 
d="M277 849q-31 0 -52.5 22t-21.5 53t21 53.5t53 22.5q31 0 53 -22.5t22 -53.5t-22 -53t-53 -22zM509 849q-31 0 -52.5 21.5t-21.5 53.5q0 31 21 53.5t53 22.5q31 0 53 -22.5t22 -53.5t-22 -53t-53 -22zM319 783h145l317 -783h-128l-71 184h-384l-72 -184h-126zM242 293h297
l-149 372z" />
    <glyph glyph-name="uni04D3" unicode="&#x4d3;" horiz-adv-x="575" 
d="M171 621q-31 0 -52.5 22t-21.5 53q0 30 21.5 52.5t52.5 22.5t53.5 -22.5t22.5 -52.5q0 -31 -22 -53t-54 -22zM394 621q-32 0 -53.5 21.5t-21.5 53.5q0 31 21.5 53t53.5 22q31 0 52.5 -22.5t21.5 -52.5q0 -31 -21.5 -53t-52.5 -22zM385 362q0 33 -27.5 56.5t-77.5 23.5
q-92 0 -133 -85l-91 52q63 136 227 136q150 0 200 -109q18 -40 18 -96v-340h-117v73q-49 -82 -157 -82q-78 0 -129 44t-51 113v6q0 44 21 77.5t55.5 51t71 26t74.5 8.5h66q50 0 50 45zM384 233h-115q-38 0 -70.5 -19.5t-32.5 -54.5q0 -33 23.5 -53t61.5 -20q61 0 97 35
t36 95v17z" />
    <glyph glyph-name="uni04D4" unicode="&#x4d4;" horiz-adv-x="1053" 
d="M991 783v-111h-374v-218h340v-111h-340v-231h378v-112h-500v184h-274l-99 -184h-134l426 783h577zM484 673l-204 -380h215v380h-11z" />
    <glyph glyph-name="uni04D5" unicode="&#x4d5;" horiz-adv-x="951" 
d="M389 362q0 34 -27.5 57t-78.5 23q-95 0 -136 -85l-91 52q63 136 227 136q126 0 179 -77q74 77 189 77q121 0 189.5 -76.5t68.5 -199.5q0 -24 -1 -37h-409q2 -60 50 -99.5t109 -39.5q100 0 144 83l86 -57q-34 -62 -95 -95.5t-133 -33.5q-133 0 -215 97q-83 -96 -213 -96
h-3q-78 0 -130 44t-52 113v6q0 44 21 77.5t55.5 51t71 26t74.5 8.5h76q44 0 44 45zM505 322h285q-3 56 -42 88.5t-99 32.5q-56 0 -96 -33t-48 -88zM387 233h-118q-38 0 -70.5 -19.5t-32.5 -54.5q0 -33 23.5 -53t61.5 -20q62 0 99 34.5t37 95.5v17z" />
    <glyph glyph-name="uni04D6" unicode="&#x4d6;" horiz-adv-x="663" 
d="M351 851q-70 0 -121.5 41t-61.5 123l81 15q14 -44 36.5 -67.5t65.5 -23.5q42 0 64.5 24t36.5 67l79 -15q-11 -82 -60.5 -123t-119.5 -41zM223 672v-218h344v-111h-344v-231h382v-112h-505v783h501v-111h-378z" />
    <glyph glyph-name="uni04D7" unicode="&#x4d7;" horiz-adv-x="615" 
d="M312 622q-70 0 -121 41t-61 123l80 15q15 -44 37 -67.5t65 -23.5q42 0 64.5 24t36.5 67l80 -15q-11 -82 -61 -123t-120 -41zM571 232h-405q1 -60 48 -99.5t108 -39.5q100 0 144 83l86 -57q-34 -62 -95 -95.5t-133 -33.5q-119 0 -199.5 79.5t-80.5 198.5q0 115 77 196
t192 81q122 0 191 -76t69 -200q0 -24 -2 -37zM313 443q-55 0 -94 -33t-47 -88h280q-3 56 -42.5 88.5t-96.5 32.5z" />
    <glyph glyph-name="uni04DC" unicode="&#x4dc;" horiz-adv-x="1056" 
d="M412 849q-31 0 -53 22t-22 53t21.5 53t53.5 22q31 0 53 -22t22 -53t-22 -53t-53 -22zM644 849q-32 0 -53.5 21.5t-21.5 53.5q0 31 21.5 53t53.5 22q31 0 52.5 -22t21.5 -53t-21.5 -53t-52.5 -22zM1045 783l-315 -383l325 -400h-157l-303 380h-6v-380h-123v380h-5
l-304 -380h-156l324 400l-315 383h155l297 -367h4v367h123v-367h5l297 367h154z" />
    <glyph glyph-name="uni04DD" unicode="&#x4dd;" horiz-adv-x="871" 
d="M324 621q-31 0 -52.5 22t-21.5 53q0 30 21.5 52.5t52.5 22.5t53 -22.5t22 -52.5q0 -32 -21.5 -53.5t-53.5 -21.5zM546 621q-31 0 -52.5 22t-21.5 53t21 53t53 22q31 0 53 -22.5t22 -52.5q0 -31 -22 -53t-53 -22zM854 534l-220 -260l226 -274h-152l-208 259h-5v-259h-119
v259h-5l-207 -259h-153l226 274l-220 260h152l201 -246h6v246h119v-246h6l201 246h152z" />
    <glyph glyph-name="uni04DE" unicode="&#x4de;" horiz-adv-x="644" 
d="M192 849q-31 0 -52.5 22t-21.5 53t21.5 53t52.5 22t53.5 -22t22.5 -53t-22 -53t-54 -22zM424 849q-31 0 -52.5 22t-21.5 53t21 53t53 22q31 0 53 -22t22 -53t-22 -53t-53 -22zM591 220q0 -97 -79.5 -163t-200.5 -66q-205 0 -276 177l106 52q52 -117 172 -117
q65 0 108 35.5t43 83.5q0 50 -41.5 85.5t-107.5 35.5h-104v111h97q62 0 101.5 34.5t39.5 82.5q0 49 -36.5 80t-104.5 31q-107 0 -155 -114l-107 49q27 78 95 127.5t169 49.5q122 0 193 -60.5t71 -149.5q0 -122 -118 -179v-1q135 -52 135 -184z" />
    <glyph glyph-name="uni04DF" unicode="&#x4df;" horiz-adv-x="513" 
d="M145 621q-31 0 -52.5 22t-21.5 53t21 53t53 22q31 0 53 -22.5t22 -52.5q0 -31 -22 -53t-53 -22zM367 621q-31 0 -53 21.5t-22 53.5q0 31 21.5 53t53.5 22q31 0 53 -22.5t22 -52.5q0 -31 -22 -53t-53 -22zM257 -11q-78 0 -137.5 34.5t-89.5 101.5l95 51q38 -83 129 -83
q40 0 65 19t25 47q0 66 -89 66h-69v90h68q39 0 60 17.5t21 47.5q0 26 -22 44t-61 18q-85 0 -125 -85l-93 50q31 67 89.5 102.5t133.5 35.5q91 0 144.5 -42.5t53.5 -110.5q0 -37 -21 -67t-60 -46v-1q91 -36 91 -126q0 -76 -57 -119.5t-151 -43.5z" />
    <glyph glyph-name="uni04E2" unicode="&#x4e2;" horiz-adv-x="848" 
d="M598 984v-95h-347v95h347zM100 0v783h121v-587l382 587h145v-783h-122v608l-394 -608h-132z" />
    <glyph glyph-name="uni04E3" unicode="&#x4e3;" horiz-adv-x="644" 
d="M496 730v-95h-347v95h347zM80 534h116v-357l253 357h115v-534h-116v356l-253 -356h-115v534z" />
    <glyph glyph-name="uni04E4" unicode="&#x4e4;" horiz-adv-x="848" 
d="M309 849q-31 0 -53 22t-22 53t21.5 53t53.5 22q31 0 53 -22t22 -53t-22 -53t-53 -22zM540 849q-31 0 -52.5 22t-21.5 53t21 53t53 22q31 0 53 -22t22 -53t-22 -53t-53 -22zM100 0v783h121v-587l382 587h145v-783h-122v608l-394 -608h-132z" />
    <glyph glyph-name="uni04E5" unicode="&#x4e5;" horiz-adv-x="644" 
d="M211 621q-31 0 -52.5 22t-21.5 53t21 53t53 22q31 0 53 -22.5t22 -52.5q0 -31 -22 -53t-53 -22zM433 621q-31 0 -53 22t-22 53t21.5 53t53.5 22q31 0 53 -22.5t22 -52.5q0 -31 -22 -53t-53 -22zM80 534h116v-357l253 357h115v-534h-116v356l-253 -356h-115v534z" />
    <glyph glyph-name="uni04E6" unicode="&#x4e6;" horiz-adv-x="900" 
d="M336 849q-32 0 -53.5 21.5t-21.5 53.5q0 31 21.5 53.5t53.5 22.5q31 0 53 -22.5t22 -53.5t-22 -53t-53 -22zM567 849q-31 0 -52.5 22t-21.5 53t21.5 53.5t52.5 22.5t53.5 -22.5t22.5 -53.5t-22 -53t-54 -22zM48 390q0 170 118 287t285 117q168 0 284.5 -115t116.5 -286
t-118 -286.5t-286 -115.5t-284 113.5t-116 285.5zM177 393q0 -120 79 -204t194 -84q114 0 193.5 84t79.5 204t-79.5 203.5t-193.5 83.5q-115 0 -194 -83.5t-79 -203.5z" />
    <glyph glyph-name="uni04E7" unicode="&#x4e7;" horiz-adv-x="650" 
d="M213 621q-31 0 -52.5 22t-21.5 53q0 30 21.5 52.5t52.5 22.5t53.5 -22.5t22.5 -52.5q0 -31 -22 -53t-54 -22zM436 621q-32 0 -53.5 21.5t-21.5 53.5q0 31 21.5 53t53.5 22q31 0 52.5 -22.5t21.5 -52.5q0 -31 -21.5 -53t-52.5 -22zM43 268q0 117 83 197t200 80
q116 0 198 -79t82 -196q0 -118 -81.5 -198.5t-199.5 -80.5q-117 0 -199.5 80t-82.5 197zM165 270q0 -70 45 -120.5t116 -50.5t115 49t44 120t-44.5 120t-115.5 49t-115.5 -48.5t-44.5 -118.5z" />
    <glyph glyph-name="uni04E8" unicode="&#x4e8;" horiz-adv-x="900" 
d="M48 390q0 170 118 287t285 117q168 0 284.5 -115t116.5 -286t-118 -286.5t-286 -115.5t-284 113.5t-116 285.5zM182 452h536q-17 99 -93 163.5t-175 64.5q-100 0 -175.5 -65t-92.5 -163zM720 344h-540q14 -102 90.5 -170.5t179.5 -68.5q102 0 179 69t91 170z" />
    <glyph glyph-name="uni04E9" unicode="&#x4e9;" horiz-adv-x="650" 
d="M606 270q0 -118 -81.5 -198.5t-199.5 -80.5q-117 0 -199.5 80t-82.5 197t83 197t200 80q116 0 198 -79t82 -196zM167 312h316q-11 56 -54 91.5t-104 35.5t-104.5 -36t-53.5 -91zM483 224h-315q10 -54 54 -90.5t104 -36.5t104 36.5t53 90.5z" />
    <glyph glyph-name="uni04EA" unicode="&#x4ea;" horiz-adv-x="900" 
d="M331 849q-31 0 -53 22t-22 53t21.5 53.5t53.5 22.5q31 0 53 -22.5t22 -53.5t-22 -53t-53 -22zM572 849q-31 0 -52.5 22t-21.5 53t21.5 53.5t52.5 22.5t53 -22.5t22 -53.5q0 -32 -21.5 -53.5t-53.5 -21.5zM48 390q0 -172 116 -285.5t284 -113.5t286 115.5t118 286.5
t-116.5 286t-284.5 115q-167 0 -285 -117t-118 -287zM718 452h-536q17 98 92.5 163t175.5 65q99 0 175 -64.5t93 -163.5zM180 344h540q-14 -101 -91 -170t-179 -69q-103 0 -179.5 68.5t-90.5 170.5z" />
    <glyph glyph-name="uni04EB" unicode="&#x4eb;" horiz-adv-x="650" 
d="M289 696q0 -31 -22 -53t-54 -22q-31 0 -52.5 22t-21.5 53q0 30 21.5 52.5t52.5 22.5t53.5 -22.5t22.5 -52.5zM510 696q0 -31 -21.5 -53t-52.5 -22q-32 0 -53.5 21.5t-21.5 53.5q0 31 21.5 53t53.5 22q31 0 52.5 -22.5t21.5 -52.5zM606 270q0 -118 -81.5 -198.5
t-199.5 -80.5q-117 0 -199.5 80t-82.5 197t83 197t200 80q116 0 198 -79t82 -196zM167 312h316q-11 56 -54 91.5t-104 35.5t-104.5 -36t-53.5 -91zM483 224h-315q10 -54 54 -90.5t104 -36.5t104 36.5t53 90.5z" />
    <glyph glyph-name="uni04EC" unicode="&#x4ec;" horiz-adv-x="834" 
d="M294 849q-31 0 -52.5 22t-21.5 53t21.5 53t52.5 22t53.5 -22t22.5 -53t-22 -53t-54 -22zM526 849q-31 0 -52.5 22t-21.5 53t21 53t53 22q31 0 53 -22t22 -53t-22 -53t-53 -22zM394 794q77 0 147 -27t125 -76.5t87.5 -126t32.5 -168.5q0 -174 -117 -289.5t-280 -115.5
q-74 0 -137 21.5t-106 57t-71 75.5t-41 81l112 52q28 -76 90.5 -123.5t154.5 -47.5q96 0 171 65t90 172h-343v109h341q-18 103 -90.5 164t-168.5 61q-81 0 -148.5 -47t-99.5 -125l-113 52q37 97 131.5 166.5t232.5 69.5z" />
    <glyph glyph-name="uni04ED" unicode="&#x4ed;" horiz-adv-x="601" 
d="M165 621q-31 0 -52.5 22t-21.5 53t21 53t53 22q31 0 53 -22.5t22 -52.5q0 -31 -22 -53t-53 -22zM387 621q-31 0 -53 21.5t-22 53.5q0 31 21.5 53t53.5 22q31 0 53 -22.5t22 -52.5q0 -31 -22 -53t-53 -22zM285 545q121 0 196.5 -79t75.5 -195q0 -121 -77.5 -200.5
t-199.5 -79.5q-97 0 -159.5 47.5t-85.5 111.5l102 45q38 -98 142 -98q60 0 101.5 36.5t52.5 96.5h-208v92h205q-13 53 -53 85t-94 32q-103 0 -144 -97l-100 44q25 70 90.5 114.5t155.5 44.5z" />
    <glyph glyph-name="uni04EE" unicode="&#x4ee;" horiz-adv-x="708" 
d="M535 984v-95h-347v95h347zM141 783l234 -436l208 436h133l-308 -624q-43 -89 -97.5 -128.5t-127.5 -39.5q-94 0 -166 51l66 98q49 -36 95 -36q54 0 87 41q21 26 46 78l-307 560h137z" />
    <glyph glyph-name="uni04EF" unicode="&#x4ef;" horiz-adv-x="612" 
d="M483 730v-95h-347v95h347zM318 184l154 350h129l-367 -797h-127l147 323l-238 474h136z" />
    <glyph glyph-name="uni04F0" unicode="&#x4f0;" horiz-adv-x="708" 
d="M249 849q-31 0 -53 22t-22 53t21.5 53t53.5 22q31 0 53 -22t22 -53t-22 -53t-53 -22zM480 849q-31 0 -52.5 22t-21.5 53t21 53t53 22q31 0 53 -22t22 -53t-22 -53t-53 -22zM141 783l234 -436l208 436h133l-308 -624q-43 -89 -97.5 -128.5t-127.5 -39.5q-94 0 -166 51
l66 98q49 -36 95 -36q54 0 87 41q21 26 46 78l-307 560h137z" />
    <glyph glyph-name="uni04F1" unicode="&#x4f1;" horiz-adv-x="612" 
d="M200 621q-31 0 -53 22t-22 53t21.5 53t53.5 22q31 0 53 -22.5t22 -52.5q0 -31 -22 -53t-53 -22zM422 621q-32 0 -53.5 21.5t-21.5 53.5q0 31 21.5 53t53.5 22q31 0 53 -22.5t22 -52.5q0 -31 -22 -53t-53 -22zM318 184l154 350h129l-367 -797h-127l147 323l-238 474h136z
" />
    <glyph glyph-name="uni04F2" unicode="&#x4f2;" horiz-adv-x="708" 
d="M213 854l98 172h141l-140 -172h-99zM411 854l97 172h141l-140 -172h-98zM141 783l234 -436l208 436h133l-308 -624q-43 -89 -97.5 -128.5t-127.5 -39.5q-94 0 -166 51l66 98q49 -36 95 -36q54 0 87 41q21 26 46 78l-307 560h137z" />
    <glyph glyph-name="uni04F3" unicode="&#x4f3;" horiz-adv-x="612" 
d="M163 625l98 172h140l-140 -172h-98zM360 625l98 172h141l-141 -172h-98zM318 184l154 350h129l-367 -797h-127l147 323l-238 474h136z" />
    <glyph glyph-name="uni04F4" unicode="&#x4f4;" horiz-adv-x="761" 
d="M242 849q-31 0 -52.5 22t-21.5 53t21.5 53t52.5 22t53 -22t22 -53q0 -32 -21.5 -53.5t-53.5 -21.5zM474 849q-31 0 -53 22t-22 53t21.5 53t53.5 22q31 0 53 -22t22 -53t-22 -53t-53 -22zM538 0v320q-134 -67 -225 -67q-124 0 -190.5 66t-66.5 185v279h123v-245
q0 -82 36.5 -125.5t122.5 -43.5q54 0 109 20.5t91 45.5v348h123v-783h-123z" />
    <glyph glyph-name="uni04F5" unicode="&#x4f5;" horiz-adv-x="590" 
d="M167 621q-31 0 -52.5 22t-21.5 53q0 30 21.5 52.5t52.5 22.5t53 -22.5t22 -52.5q0 -31 -22 -53t-53 -22zM389 621q-31 0 -53 22t-22 53t21.5 53t53.5 22q31 0 53 -22.5t22 -52.5q0 -31 -22 -53t-53 -22zM391 0v193q-87 -41 -154 -41q-85 0 -138 44.5t-53 131.5v206h120
v-187q0 -41 24.5 -64.5t66.5 -23.5q69 0 134 38v237h120v-534h-120z" />
    <glyph glyph-name="uni04F8" unicode="&#x4f8;" horiz-adv-x="1007" 
d="M388 849q-31 0 -53 22t-22 53t21.5 53t53.5 22q31 0 53 -22t22 -53t-22 -53t-53 -22zM620 849q-32 0 -53.5 21.5t-21.5 53.5q0 31 21.5 53t53.5 22q31 0 52.5 -22t21.5 -53t-21.5 -53t-52.5 -22zM685 244q0 -105 -71.5 -174.5t-209.5 -69.5h-304v783h122v-305h183
q54 0 101.5 -12.5t89 -39t65.5 -73.5t24 -109zM778 783h130v-783h-130v783zM563 245q0 54 -39.5 89t-124.5 35h-177v-257h178q89 0 126 38t37 95z" />
    <glyph glyph-name="uni04F9" unicode="&#x4f9;" horiz-adv-x="866" 
d="M321 621q-31 0 -52.5 22t-21.5 53q0 30 21.5 52.5t52.5 22.5t53 -22.5t22 -52.5q0 -32 -22 -53.5t-53 -21.5zM543 621q-31 0 -52.5 22t-21.5 53t21 53t53 22q31 0 53 -22.5t22 -52.5q0 -31 -22 -53t-53 -22zM557 184q0 -83 -54 -133.5t-155 -50.5h-268v534h119v-176h140
q98 0 158 -43.5t60 -130.5zM667 534h119v-534h-119v534zM437 185q0 40 -29.5 60t-77.5 20h-131v-165h133q105 0 105 85z" />
    <glyph glyph-name="uni0E3F" unicode="&#xe3f;" horiz-adv-x="734" 
d="M328 891h80v-108q110 -2 176.5 -57t66.5 -148q0 -44 -26 -93t-88 -77q81 -26 115.5 -79.5t34.5 -109.5q0 -99 -71 -159t-207 -60h-1v-102h-80v102h-228v783h228v108zM329 673h-108v-221h108v221zM407 672v-219q61 6 91.5 37t30.5 75t-30 73t-92 34zM329 344h-107v-234
h107v234zM407 110h4q74 0 113.5 32.5t39.5 85.5q0 52 -39 83.5t-118 32.5v-234z" />
    <glyph glyph-name="uni1E20" unicode="&#x1e20;" horiz-adv-x="854" 
d="M620 984v-95h-347v95h347zM800 562l-109 -50q-31 75 -91.5 121.5t-153.5 46.5q-115 0 -192.5 -82t-77.5 -205t76 -206t193 -83q99 0 159 49.5t74 126.5h-281v112h414v-43q0 -153 -99.5 -255.5t-265.5 -102.5q-176 0 -287 113t-111 286q0 172 118 288t281 116
q134 0 227 -67.5t126 -164.5z" />
    <glyph glyph-name="uni1E21" unicode="&#x1e21;" horiz-adv-x="677" 
d="M494 730v-95h-348v95h348zM303 -4q-113 0 -186.5 81t-73.5 192q0 106 72.5 190t191.5 84q43 0 94 -22.5t80 -67.5v81h116v-527q0 -126 -76.5 -200t-202.5 -74q-195 0 -269 162l99 57q56 -113 168 -113q70 0 116 41.5t46 121.5v84q-29 -46 -81 -68t-94 -22zM480 271
q0 70 -44 118t-115 48t-115 -47.5t-44 -118.5t44.5 -119.5t114.5 -48.5t114.5 48.5t44.5 119.5z" />
    <glyph glyph-name="uni1E30" unicode="&#x1e30;" horiz-adv-x="711" 
d="M314 854l103 172h145l-145 -172h-103zM223 783h-123v-783h123v370l329 -370h167l-371 409l350 374h-162l-313 -338v338z" />
    <glyph glyph-name="uni1E31" unicode="&#x1e31;" horiz-adv-x="581" 
d="M80 814h120v-490h1l207 210h162l-241 -242l254 -292h-157l-223 261h-3v-261h-120v814zM291 625l102 172h146l-145 -172h-103z" />
    <glyph glyph-name="uni1E60" unicode="&#x1e60;" horiz-adv-x="641" 
d="M325 849q-32 0 -55 23t-23 56t22.5 56t55.5 23t56 -23t23 -56t-23 -56t-56 -23zM327 -9q-103 0 -179 49t-109 139l104 54q25 -63 73.5 -96.5t112.5 -33.5q60 0 98.5 29t38.5 78q0 43 -36.5 71t-120.5 54q-127 40 -184 91q-60 53 -60 143q0 94 75.5 159.5t184.5 65.5
q99 0 164 -46.5t93 -119.5l-102 -55q-45 110 -158 110q-57 0 -94 -30t-37 -77q0 -44 36.5 -71t108.5 -49q145 -43 201 -99q56 -54 56 -140q0 -91 -72 -158.5t-194 -67.5z" />
    <glyph glyph-name="uni1E61" unicode="&#x1e61;" horiz-adv-x="502" 
d="M248 621q-32 0 -55 23t-23 56t22.5 56t55.5 23t56 -23t23 -56t-23 -56t-56 -23zM253 -9q-159 0 -221 134l93 52q43 -86 128 -86q34 0 59 16t25 43q0 47 -110 70q-89 18 -133 64q-38 40 -38 97q0 72 58 118t136 46q144 0 200 -120l-92 -52q-36 72 -112 72q-28 0 -51.5 -15
t-23.5 -37q0 -26 23.5 -41.5t75.5 -26.5q91 -20 138 -63t47 -105q0 -73 -56 -119.5t-146 -46.5z" />
    <glyph glyph-name="Wgrave" unicode="&#x1e80;" horiz-adv-x="1174" 
d="M390 1026h146l102 -172h-103zM519 783h137l189 -609l179 609h128l-238 -783h-140l-187 612h-1l-189 -612h-138l-236 783h132l176 -609z" />
    <glyph glyph-name="wgrave" unicode="&#x1e81;" horiz-adv-x="879" 
d="M392 797l103 -172h-103l-145 172h145zM858 534l-171 -534h-124l-123 375h-2l-124 -375h-122l-171 534h125l112 -377h1l121 377h120l122 -378h2l112 378h122z" />
    <glyph glyph-name="Wacute" unicode="&#x1e82;" horiz-adv-x="1174" 
d="M533 854l103 172h145l-145 -172h-103zM519 783h137l189 -609l179 609h128l-238 -783h-140l-187 612h-1l-189 -612h-138l-236 783h132l176 -609z" />
    <glyph glyph-name="wacute" unicode="&#x1e83;" horiz-adv-x="879" 
d="M387 625l103 172h145l-145 -172h-103zM858 534l-171 -534h-124l-123 375h-2l-124 -375h-122l-171 534h125l112 -377h1l121 377h120l122 -378h2l112 378h122z" />
    <glyph glyph-name="Wdieresis" unicode="&#x1e84;" horiz-adv-x="1174" 
d="M477 849q-31 0 -53 22t-22 53t21.5 53t53.5 22q31 0 53 -22t22 -53t-22 -53t-53 -22zM699 849q-31 0 -53 21.5t-22 53.5q0 31 21.5 53t53.5 22q31 0 52.5 -22t21.5 -53t-21.5 -53t-52.5 -22zM519 783h137l189 -609l179 609h128l-238 -783h-140l-187 612h-1l-189 -612
h-138l-236 783h132l176 -609z" />
    <glyph glyph-name="wdieresis" unicode="&#x1e85;" horiz-adv-x="879" 
d="M329 621q-31 0 -53 22t-22 53t21.5 53t53.5 22q31 0 53 -22.5t22 -52.5q0 -31 -22 -53t-53 -22zM551 621q-31 0 -53 21.5t-22 53.5q0 31 21.5 53t53.5 22q31 0 52.5 -22.5t21.5 -52.5q0 -31 -21.5 -53t-52.5 -22zM858 534l-171 -534h-124l-123 375h-2l-124 -375h-122
l-171 534h125l112 -377h1l121 377h120l122 -378h2l112 378h122z" />
    <glyph glyph-name="uni1E90" unicode="&#x1e90;" horiz-adv-x="666" 
d="M375 1026l144 -172h-114l-73 92l-70 -92h-118l138 172h93zM54 783v-110h412l-428 -567v-106h587v110h-437l428 568v105h-562z" />
    <glyph glyph-name="uni1E91" unicode="&#x1e91;" horiz-adv-x="529" 
d="M307 797l144 -172h-114l-74 92l-69 -92h-118l138 172h93zM51 534v-104h282l-290 -331v-99h440v104h-295l294 335v95h-431z" />
    <glyph glyph-name="uni1EBC" unicode="&#x1ebc;" horiz-adv-x="663" 
d="M280 922q-38 0 -39 -66h-81q-4 72 28 113.5t92 41.5q35 0 61 -17.5t45 -34.5t37 -17q38 0 39 66h82q3 -72 -29 -113.5t-92 -41.5q-34 0 -60.5 17.5t-46 34.5t-36.5 17zM223 672v-218h344v-111h-344v-231h382v-112h-505v783h501v-111h-378z" />
    <glyph glyph-name="uni1EBD" unicode="&#x1ebd;" horiz-adv-x="615" 
d="M237 693q-38 0 -39 -66h-81q-4 72 28 113.5t92 41.5q27 0 49.5 -11t35 -23.5t28 -23.5t30.5 -11q38 0 39 66h82q3 -72 -29 -113.5t-92 -41.5q-27 0 -49.5 11t-35 23.5t-28.5 23.5t-30 11zM571 232h-405q1 -60 48 -99.5t108 -39.5q100 0 144 83l86 -57q-34 -62 -95 -95.5
t-133 -33.5q-119 0 -199.5 79.5t-80.5 198.5q0 115 77 196t192 81q122 0 191 -76t69 -200q0 -24 -2 -37zM313 443q-55 0 -94 -33t-47 -88h280q-3 56 -42.5 88.5t-96.5 32.5z" />
    <glyph glyph-name="Ygrave" unicode="&#x1ef2;" horiz-adv-x="751" 
d="M191 1026h145l103 -172h-103zM162 783l214 -351l216 351h141l-296 -467v-316h-124v313l-293 470h142z" />
    <glyph glyph-name="ygrave" unicode="&#x1ef3;" horiz-adv-x="612" 
d="M275 797l103 -172h-103l-145 172h145zM318 184l154 350h129l-367 -797h-127l147 323l-238 474h136z" />
    <glyph glyph-name="endash" unicode="&#x2013;" horiz-adv-x="605" 
d="M73 382h459v-115h-459v115z" />
    <glyph glyph-name="emdash" unicode="&#x2014;" horiz-adv-x="1018" 
d="M73 382h872v-115h-872v115z" />
    <glyph glyph-name="quoteleft" unicode="&#x2018;" horiz-adv-x="293" 
d="M174 790l54 -49q-67 -47 -98 -120q13 5 29 5q32 0 54.5 -23t22.5 -58q0 -37 -25 -62.5t-65 -25.5q-39 0 -66 32t-27 83v5q0 59 33 116.5t88 96.5z" />
    <glyph glyph-name="quoteright" unicode="&#x2019;" horiz-adv-x="296" 
d="M126 455l-54 49q34 24 57 51t41 70q-12 -6 -29 -6q-32 0 -54.5 23t-22.5 58q0 37 25 62.5t65 25.5q39 0 66 -32t27 -83v-4q0 -60 -33 -117t-88 -97z" />
    <glyph glyph-name="quotesinglbase" unicode="&#x201a;" horiz-adv-x="307" 
d="M124 -162l-54 48q67 47 99 121q-14 -6 -30 -6q-31 0 -54 23.5t-23 58.5q0 37 25 62t65 25q39 0 66 -32t27 -82v-5q0 -60 -33 -117t-88 -96z" />
    <glyph glyph-name="quotedblleft" unicode="&#x201c;" horiz-adv-x="522" 
d="M173 790l54 -49q-67 -47 -98 -120q13 5 29 5q32 0 54.5 -23t22.5 -58q0 -37 -25 -62.5t-65 -25.5q-39 0 -66 32t-27 83v5q0 59 33 116.5t88 96.5zM402 790l55 -49q-67 -47 -99 -120q15 5 30 5q32 0 54.5 -23t22.5 -58q0 -37 -25 -62.5t-65 -25.5q-39 0 -66 32t-27 83v5
q0 59 33 116.5t87 96.5z" />
    <glyph glyph-name="quotedblright" unicode="&#x201d;" horiz-adv-x="526" 
d="M126 455l-54 49q34 24 57 51t41 70q-12 -6 -29 -6q-32 0 -54.5 23t-22.5 58q0 37 25 62.5t65 25.5q39 0 66 -32t27 -83v-4q0 -60 -33 -117t-88 -97zM356 455l-55 49q67 47 99 121q-14 -6 -29 -6q-32 0 -54.5 23t-22.5 58q0 37 25 62.5t64 25.5t66.5 -32t27.5 -83v-4
q0 -59 -33 -116.5t-88 -97.5z" />
    <glyph glyph-name="quotedblbase" unicode="&#x201e;" horiz-adv-x="521" 
d="M73 -162v56q39 7 65 39t27 72q-11 -7 -29 -7q-33 0 -54 21.5t-21 54.5q0 35 24 57t59 22q44 0 68.5 -31t24.5 -77q0 -79 -44 -137t-120 -70zM296 -162v56q39 7 65 39t27 72q-11 -7 -29 -7q-33 0 -54 21.5t-21 54.5q0 35 24 57t59 22q44 0 68.5 -31t24.5 -77
q0 -79 -44 -137t-120 -70z" />
    <glyph glyph-name="dagger" unicode="&#x2020;" horiz-adv-x="629" 
d="M61 534h192v206h122v-206h193v-112h-193v-422h-122v422h-192v112z" />
    <glyph glyph-name="daggerdbl" unicode="&#x2021;" horiz-adv-x="629" 
d="M253 0h-192v112h192v310h-192v112h192v206h122v-206h193v-112h-193v-310h193v-112h-193v-207h-122v207z" />
    <glyph glyph-name="bullet" unicode="&#x2022;" horiz-adv-x="492" 
d="M246 190q-72 0 -123 51.5t-51 123.5t51 124.5t123 52.5q71 0 122 -52.5t51 -124.5t-50.5 -123.5t-122.5 -51.5z" />
    <glyph glyph-name="ellipsis" unicode="&#x2026;" horiz-adv-x="900" 
d="M59 82q0 37 25.5 62.5t61.5 25.5q37 0 62 -25.5t25 -62.5q0 -36 -25.5 -61t-61.5 -25t-61.5 25.5t-25.5 60.5zM362 82q0 37 26 62.5t62 25.5q37 0 62 -25.5t25 -62.5q0 -36 -25.5 -61t-61.5 -25t-62 25.5t-26 60.5zM666 82q0 36 26 62t61 26q37 0 62.5 -25.5t25.5 -62.5
q0 -36 -25.5 -61t-62.5 -25q-35 0 -61 25.5t-26 60.5z" />
    <glyph glyph-name="perthousand" unicode="&#x2030;" horiz-adv-x="1277" 
d="M390 614q0 -73 -52 -125t-125 -52t-124.5 52t-51.5 125t51.5 125t124.5 52t125 -51.5t52 -125.5zM242 0h-118l510 783h117zM290 614q0 31 -22.5 53.5t-54.5 22.5q-31 0 -53.5 -22t-22.5 -54t22.5 -54t53.5 -22q32 0 54.5 22.5t22.5 53.5zM838 171q0 -73 -52 -124.5
t-125 -51.5t-125 51.5t-52 124.5t52 125t125 52t125 -52t52 -125zM1241 171q0 -73 -52 -124.5t-125 -51.5t-125 51.5t-52 124.5t51.5 125t125.5 52t125.5 -52t51.5 -125zM737 171q0 32 -22.5 54.5t-53.5 22.5t-53.5 -22.5t-22.5 -54.5q0 -31 22.5 -53.5t53.5 -22.5
t53.5 22.5t22.5 53.5zM1140 171q0 32 -22.5 54.5t-53.5 22.5t-53.5 -22.5t-22.5 -54.5q0 -31 22 -53.5t54 -22.5t54 22.5t22 53.5z" />
    <glyph glyph-name="guilsinglleft" unicode="&#x2039;" horiz-adv-x="385" 
d="M259 81l-224 220l225 221l69 -67l-157 -154l157 -153z" />
    <glyph glyph-name="guilsinglright" unicode="&#x203a;" horiz-adv-x="385" 
d="M350 301l-225 -220l-69 67l156 152l-155 155l68 67z" />
    <glyph glyph-name="uni203D" unicode="&#x203d;" horiz-adv-x="537" 
d="M268 794q98 0 163.5 -59.5t65.5 -151.5q0 -56 -40 -112q-30 -40 -87 -91q-41 -35 -58.5 -61.5t-17.5 -64.5v-36h-108l-8 357h120l-3 -115q44 39 62 68t18 64q0 42 -29.5 68.5t-78.5 26.5q-93 0 -142 -90l-93 57q31 63 90 101.5t146 38.5zM241 150q32 0 55.5 -23t23.5 -56
t-23 -55.5t-56 -22.5q-32 0 -55 22.5t-23 55.5t23 56t55 23z" />
    <glyph glyph-name="uni2042" unicode="&#x2042;" horiz-adv-x="915" 
d="M313 459l79 110l-129 43l25 74l129 -42v139h81v-139l129 42l25 -74l-129 -43l79 -110l-63 -46l-82 111l-81 -111zM83 29l80 110l-130 43l25 73l129 -42v140h81v-140l129 42l26 -73l-130 -43l80 -110l-63 -47l-82 111l-82 -111zM542 29l80 110l-130 43l25 73l129 -42v140
h81v-140l129 42l26 -73l-130 -43l80 -110l-63 -47l-82 111l-82 -111z" />
    <glyph glyph-name="fraction" unicode="&#x2044;" horiz-adv-x="638" 
d="M125 0h-119l511 785h117z" />
    <glyph glyph-name="uni2051" unicode="&#x2051;" horiz-adv-x="494" 
d="M103 459l79 110l-129 43l24 74l130 -42v139h81v-139l129 42l25 -74l-130 -43l80 -110l-63 -46l-82 111l-81 -111zM103 29l79 110l-129 43l24 73l130 -42v140h81v-140l129 42l25 -73l-130 -43l80 -110l-63 -47l-82 111l-81 -111z" />
    <glyph glyph-name="lira" unicode="&#x20a4;" horiz-adv-x="650" 
d="M538 171l83 -58q-23 -59 -71 -91.5t-111 -32.5q-50 0 -104.5 23.5t-90.5 23.5q-56 0 -130 -41l-66 116q131 79 150 152h-136v82h126l-1 3q-22 46 -25 52l-13 24h-87v82h50q-9 34 -9 59q0 92 74.5 160.5t179.5 68.5q97 0 159 -46.5t85 -119.5l-105 -51q-37 106 -138 106
q-54 0 -91.5 -33.5t-37.5 -93.5q0 -22 10 -50h252v-82h-212q26 -52 34 -79h178v-82h-173q-15 -74 -99 -126v-1q25 10 46 10q43 0 92 -22t84 -22q28 0 54 19t43 50z" />
    <glyph glyph-name="uni20A6" unicode="&#x20a6;" horiz-adv-x="927" 
d="M868 273h-78v-273h-124l-184 274h-224v-274h-121v274h-78v90h78v80h-78v92h78v247h141l166 -247h224v247h122v-247l78 -1v-92h-78v-79h78v-91zM257 532h53l-53 80v-80zM421 364l-52 80h-111v-80h163zM668 364v80h-162l53 -80h109zM669 198v79h-53z" />
    <glyph glyph-name="uni20A9" unicode="&#x20a9;" horiz-adv-x="1209" 
d="M930 0h-139l-110 358h-157l-110 -358h-138l-108 356h-118v73h96l-106 354h131l103 -356h152l110 356h136l111 -356h154l104 356h128l-108 -354h98v-73h-120zM660 427l-56 185h-1l-58 -185h115zM294 358l54 -184l57 184h-111zM916 358h-112l58 -184z" />
    <glyph glyph-name="uni20AA" unicode="&#x20aa;" horiz-adv-x="1029" 
d="M572 221v205q0 70 -28 96.5t-88 26.5h-236v-549h-120v658h357q123 0 179.5 -52t56.5 -168v-217h-121zM929 658v-438q0 -116 -56.5 -168t-179.5 -52h-357v436h121v-327h235q60 0 88 26.5t28 96.5v426h121z" />
    <glyph glyph-name="dong" unicode="&#x20ab;" horiz-adv-x="714" 
d="M482 0v83q-28 -46 -82.5 -68.5t-96.5 -22.5q-113 0 -187.5 82.5t-74.5 193.5q0 108 73.5 192t192.5 84q42 0 93.5 -21.5t78.5 -64.5v170h-156v87h156v99h120v-99h65v-87h-65v-628h-117zM321 100q71 0 115.5 48.5t44.5 119.5t-45 120t-115 49t-115 -49t-45 -120
t44.5 -119.5t115.5 -48.5zM61 -87h538v-107h-538v107z" />
    <glyph glyph-name="Euro" unicode="&#x20ac;" horiz-adv-x="911" 
d="M759 278l112 -51q-14 -41 -43 -80.5t-73 -75.5t-108 -58t-138 -22q-127 0 -233.5 74t-143.5 203h-89v86h73q-1 11 -1 35q0 16 2 44h-74v86h92q40 124 145 199.5t234 75.5q74 0 137 -21.5t105 -57t70 -75t41 -81.5l-111 -51q-29 76 -90.5 123.5t-153.5 47.5
q-76 0 -142.5 -43t-98.5 -117h316l-27 -86h-313q-2 -26 -2 -40q0 -13 2 -39h293l-27 -86h-243q33 -75 99 -118.5t143 -43.5q81 0 149.5 47.5t97.5 124.5z" />
    <glyph glyph-name="uni20AE" unicode="&#x20ae;" horiz-adv-x="706" 
d="M418 397v-84l205 73v-91l-205 -73v-222h-123v178l-205 -73v92l205 73v83l-205 -73v92l205 72v225h-249v114h621v-114h-249v-181l205 73v-91z" />
    <glyph glyph-name="uni20B1" unicode="&#x20b1;" horiz-adv-x="791" 
d="M756 495h-75q-16 -91 -90 -148t-195 -57h-140v-290h-123v495h-81v82h81v206h278q123 0 191 -58.5t80 -147.5h74v-82zM256 575h300q-25 94 -155 94h-145v-94zM256 403h145q66 0 104 26.5t50 67.5h-299v-94z" />
    <glyph glyph-name="uni20B4" unicode="&#x20b4;" horiz-adv-x="750" 
d="M53 521h447q14 24 14 55q0 49 -41 79.5t-106 30.5q-35 0 -74.5 -18t-66.5 -56l-95 67q39 56 103 85.5t137 29.5q116 0 191 -62.5t75 -161.5q0 -24 -5 -49h64v-87h-643v87zM696 278h-450q-24 -27 -24 -66q0 -50 41.5 -80.5t113.5 -30.5q117 0 185 86l96 -65
q-96 -131 -287 -131q-133 0 -203.5 64.5t-70.5 155.5q0 36 9 67h-53v87h643v-87z" />
    <glyph glyph-name="uni20B8" unicode="&#x20b8;" horiz-adv-x="713" 
d="M667 783v-113h-621v113h621zM46 592h621v-113h-249v-479h-123v479h-249v113z" />
    <glyph glyph-name="uni20B9" unicode="&#x20b9;" horiz-adv-x="633" 
d="M588 682h-177q53 -34 70 -96h107v-94h-105q-24 -124 -151 -170l169 -322h-136l-151 297l-154 1v110h151q117 0 145 84h-296v94h297q-24 83 -146 83h-151v114h528v-101z" />
    <glyph glyph-name="uni20BA" unicode="&#x20ba;" horiz-adv-x="734" 
d="M580 340l119 -12q-12 -151 -122 -239.5t-308 -88.5h-97v273l-110 -52v95l110 53v87l-110 -53v96l110 52v232h122v-174l244 117v-97l-244 -115v-87l244 116v-95l-244 -116v-221q137 4 205.5 66t80.5 163z" />
    <glyph glyph-name="uni20BD" unicode="&#x20bd;" horiz-adv-x="735" 
d="M280 120v-120h-123v120h-96v91h96v79h-96v113h96v380h268q137 0 205.5 -71t68.5 -172q0 -107 -76.5 -178.5t-212.5 -71.5h-130v-79h215v-91h-215zM280 403h134q82 0 121 40t39 94t-36.5 93t-123.5 39h-134v-266z" />
    <glyph glyph-name="uni2113" unicode="&#x2113;" horiz-adv-x="468" 
d="M395 95v-90q-31 -10 -66 -10q-89 0 -145.5 55t-56.5 156v10l-50 -45l-63 68l113 102v278q0 76 40 125.5t117 49.5q75 0 115 -43.5t40 -112.5q0 -139 -176 -298l-32 -29v-96q0 -66 29 -95.5t87 -29.5q24 0 48 5zM284 701q-53 0 -53 -79v-185q109 109 109 198q0 66 -56 66z
" />
    <glyph glyph-name="uni2116" unicode="&#x2116;" horiz-adv-x="1317" 
d="M221 0h-121v783h141l398 -596v596h121v-783h-137l-402 600v-600zM1070 293q-81 0 -138.5 55.5t-57.5 137.5t57 137t139 55q80 0 137.5 -55.5t57.5 -136.5q0 -82 -56.5 -137.5t-138.5 -55.5zM1070 573q-38 0 -62 -25t-24 -62t24 -62.5t62 -25.5q37 0 61 25.5t24 62.5
t-23.5 62t-61.5 25zM889 102v105h366v-105h-366z" />
    <glyph glyph-name="trademark" unicode="&#x2122;" horiz-adv-x="1064" 
d="M39 696v87h359v-87h-131v-364h-97v364h-131zM572 681h-6v-349h-90v451h141l112 -311l105 311h147v-451h-93v356h-5l-123 -356h-64z" />
    <glyph glyph-name="estimated" unicode="&#x212e;" horiz-adv-x="867" 
d="M441 -12q-179 0 -283.5 116.5t-104.5 293.5q0 168 108.5 282.5t279.5 114.5q170 0 278.5 -113.5t108.5 -281.5v-9h-604v-254q39 -40 98.5 -64t118.5 -24q102 0 175.5 43.5t112.5 123.5l53 -29q-41 -91 -131 -145t-210 -54zM659 453v197q-39 41 -99 63t-121 22
q-128 0 -215 -84v-198h435z" />
    <glyph glyph-name="uni2153" unicode="&#x2153;" horiz-adv-x="1009" 
d="M665 785h117l-509 -785h-119zM284 328h-103v350l-104 -61l-45 74l152 92h100v-455zM779 -9q-63 0 -107 30.5t-61 81.5l83 37q24 -62 87 -62q32 0 53.5 14.5t21.5 39.5q0 54 -75 54h-53v88h49q70 0 70 53q0 23 -17 37.5t-53 14.5q-56 0 -80 -61l-84 37q18 50 61.5 80
t104.5 30q70 0 118 -36.5t48 -94.5q0 -32 -18.5 -59.5t-49.5 -40.5v-1q36 -11 56 -38.5t20 -65.5q0 -60 -50.5 -99t-123.5 -39z" />
    <glyph glyph-name="uni2154" unicode="&#x2154;" horiz-adv-x="1091" 
d="M218 793q75 0 119.5 -41.5t44.5 -103.5q0 -46 -24.5 -80.5t-79.5 -79.5l-89 -71h195v-89h-339v83l174 141q64 52 64 91q0 25 -17.5 42.5t-50.5 17.5q-51 0 -75 -64l-89 37q17 54 61.5 85.5t105.5 31.5zM752 785h117l-509 -785h-118zM870 -9q-63 0 -107 30.5t-61 81.5
l83 37q24 -62 87 -62q32 0 53.5 14.5t21.5 39.5q0 54 -75 54h-53v88h49q70 0 70 53q0 23 -17 37.5t-53 14.5q-56 0 -80 -61l-84 37q18 50 61.5 80t104.5 30q70 0 118 -36.5t48 -94.5q0 -32 -18.5 -59.5t-49.5 -40.5v-1q36 -11 56 -38.5t20 -65.5q0 -60 -50.5 -99t-123.5 -39
z" />
    <glyph glyph-name="oneeighth" unicode="&#x215b;" horiz-adv-x="975" 
d="M273 0h-119l511 785h117zM184 783h100v-455h-103v350l-104 -61l-45 74zM914 333q0 -32 -22.5 -60.5t-53.5 -39.5q39 -13 63 -40.5t24 -66.5q0 -67 -53.5 -101t-124.5 -34t-125 34t-54 101q0 39 24 66.5t64 40.5q-31 11 -53.5 39.5t-22.5 60.5q0 60 52 95t115 35t115 -35
t52 -95zM816 326q0 25 -21.5 38t-47.5 13t-48 -13t-22 -38t22 -38.5t48 -13.5q25 0 47 13.5t22 38.5zM826 133q0 27 -25 41.5t-54 14.5q-30 0 -55 -14.5t-25 -41.5t25.5 -42t54.5 -15t54 15t25 42z" />
    <glyph glyph-name="threeeighths" unicode="&#x215c;" horiz-adv-x="993" 
d="M210 319q-63 0 -107 30.5t-61 81.5l83 37q24 -62 87 -62q32 0 53.5 14.5t21.5 39.5q0 54 -75 54h-53v88h49q70 0 70 53q0 23 -17 37.5t-53 14.5q-56 0 -80 -61l-84 37q18 50 61.5 80t104.5 30q70 0 118 -36.5t48 -94.5q0 -32 -18.5 -59.5t-49.5 -40.5v-1q36 -11 56 -38.5
t20 -65.5q0 -60 -50.5 -99t-123.5 -39zM693 785h117l-509 -785h-118zM954 126q0 -67 -54 -101t-125 -34t-124.5 34t-53.5 101q0 39 24 66.5t63 40.5q-31 11 -53.5 39.5t-22.5 60.5q0 60 52 95t115 35t115 -35t52 -95q0 -32 -22.5 -60.5t-53.5 -39.5q40 -13 64 -40.5
t24 -66.5zM845 326q0 25 -22 38t-48 13t-47.5 -13t-21.5 -38t22 -38.5t47 -13.5q26 0 48 13.5t22 38.5zM854 133q0 27 -25 41.5t-54 14.5t-54 -14.5t-25 -41.5t25 -42t54 -15t54 15t25 42z" />
    <glyph glyph-name="fiveeighths" unicode="&#x215d;" horiz-adv-x="1011" 
d="M699 785h117l-509 -785h-119zM382 482q0 -73 -51.5 -118t-123.5 -45q-62 0 -105.5 28.5t-62.5 78.5l83 41q25 -60 86 -60q34 0 55 21t21 52q0 30 -20 50t-55 20q-41 0 -72 -36l-80 32l33 237h274v-88h-197l-14 -93q36 25 84 25q62 0 103.5 -37.5t41.5 -107.5zM969 126
q0 -67 -54 -101t-125 -34t-124.5 34t-53.5 101q0 39 24 66.5t64 40.5q-31 11 -54 40t-23 60q0 60 52.5 95t115.5 35t115 -35t52 -95q0 -32 -22.5 -60.5t-53.5 -39.5q39 -13 63 -40.5t24 -66.5zM860 326q0 25 -22 38t-48 13t-47.5 -13t-21.5 -38t22 -38.5t48 -13.5
q25 0 47 13.5t22 38.5zM870 133q0 27 -25 41.5t-55 14.5q-29 0 -54 -14.5t-25 -41.5t25.5 -42t54.5 -15t54 15t25 42z" />
    <glyph glyph-name="seveneighths" unicode="&#x215e;" horiz-adv-x="921" 
d="M220 0h-118l510 785h117zM380 783v-88l-194 -367h-112l195 367h-229v88h340zM871 333q0 -32 -22.5 -60.5t-53.5 -39.5q39 -13 63 -40.5t24 -66.5q0 -67 -53.5 -101t-124.5 -34t-125 34t-54 101q0 39 24 66.5t64 40.5q-31 11 -53.5 39.5t-22.5 60.5q0 60 52 95t115 35
t115 -35t52 -95zM773 326q0 25 -21.5 38t-47.5 13t-48 -13t-22 -38t22 -38.5t48 -13.5q25 0 47 13.5t22 38.5zM783 133q0 27 -25 41.5t-54 14.5q-30 0 -54.5 -14.5t-24.5 -41.5t25 -42t54 -15t54 15t25 42z" />
    <glyph glyph-name="arrowleft" unicode="&#x2190;" horiz-adv-x="664" 
d="M309 687l71 -66l-186 -198h435v-117h-435l186 -198l-71 -66l-289 313v19z" />
    <glyph glyph-name="arrowup" unicode="&#x2191;" horiz-adv-x="664" 
d="M654 380l-66 -71l-198 186v-435h-117v435l-197 -186l-66 71l313 289h18z" />
    <glyph glyph-name="arrowright" unicode="&#x2192;" horiz-adv-x="664" 
d="M354 42l-70 66l186 198h-436v117h436l-186 198l70 66l290 -313v-19z" />
    <glyph glyph-name="arrowdown" unicode="&#x2193;" horiz-adv-x="664" 
d="M10 349l66 71l197 -186v435h118v-435l197 186l66 -71l-313 -289h-18z" />
    <glyph glyph-name="uni2196" unicode="&#x2196;" horiz-adv-x="664" 
d="M558 599l3 -97q-184 -6 -271 -8l308 -308l-83 -83l-308 308q-2 -95 -8 -271l-97 3l17 426l12 13z" />
    <glyph glyph-name="uni2197" unicode="&#x2197;" horiz-adv-x="664" 
d="M562 143l-97 -3q-6 113 -8 271l-309 -308l-82 83l308 308q-95 2 -271 8l3 97l426 -17l13 -13z" />
    <glyph glyph-name="uni2198" unicode="&#x2198;" horiz-adv-x="664" 
d="M105 103l-2 97q178 6 270 8l-308 308l83 83l308 -308q2 87 8 271l97 -3l-17 -427l-12 -12z" />
    <glyph glyph-name="uni2199" unicode="&#x2199;" horiz-adv-x="664" 
d="M103 559l96 3q9 -268 9 -271l307 308l83 -83l-308 -308q87 -2 271 -8l-3 -97l-426 17l-13 12z" />
    <glyph glyph-name="uni21A9" unicode="&#x21a9;" horiz-adv-x="1102" 
d="M726 151h-521l186 -197l-71 -66l-290 313v18l290 313l71 -66l-186 -197h516q95 0 155 54t60 142q0 92 -58 144.5t-160 53.5h-199v115h207q148 0 239.5 -88t91.5 -225q0 -136 -91 -225t-240 -89z" />
    <glyph glyph-name="uni21B0" unicode="&#x21b0;" horiz-adv-x="846" 
d="M456 466h-251l186 -197l-71 -66l-289 313v18l289 313l71 -66l-186 -197h265q152 0 234.5 -71t82.5 -205v-308h-121v296q0 86 -56 128t-154 42z" />
    <glyph glyph-name="uni21B1" unicode="&#x21b1;" horiz-adv-x="846" 
d="M641 466h-251q-98 0 -153.5 -42t-55.5 -128v-296h-121v308q0 134 82 205t234 71h265l-185 197l70 66l289 -313v-18l-289 -313l-70 66z" />
    <glyph glyph-name="uni21B2" unicode="&#x21b2;" horiz-adv-x="846" 
d="M205 317h251q98 0 154 42t56 128v296h121v-308q0 -134 -82.5 -204.5t-234.5 -70.5h-265l186 -198l-71 -66l-289 313v18l289 313l71 -66z" />
    <glyph glyph-name="uni21B3" unicode="&#x21b3;" horiz-adv-x="846" 
d="M390 317h251l-185 197l70 66l289 -313v-18l-289 -313l-70 66l185 198h-265q-152 0 -234 70.5t-82 204.5v308h121v-296q0 -86 55.5 -128t153.5 -42z" />
    <glyph glyph-name="uni21B4" unicode="&#x21b4;" horiz-adv-x="917" 
d="M242 317l66 70l197 -185v251q0 53 -6.5 87t-25.5 65t-59 45.5t-103 14.5h-272v118h284q166 0 233 -78.5t67 -237.5v-265l197 185l66 -70l-313 -290h-18z" />
    <glyph glyph-name="partialdiff" unicode="&#x2202;" horiz-adv-x="662" 
d="M305 -10q-110 0 -185 73.5t-75 188.5q0 109 75 176.5t183 67.5q103 0 183 -61q-15 120 -71.5 185.5t-150.5 65.5q-76 0 -151 -35l-42 94q89 49 201 49q83 0 148.5 -35t105.5 -95t61 -136t21 -163q0 -78 -18.5 -145t-55 -119t-95.5 -81.5t-134 -29.5zM331 396
q-67 0 -116 -39.5t-49 -113.5q0 -62 44.5 -103.5t101.5 -41.5q83 0 130 71.5t47 163.5q-29 31 -74 47t-84 16z" />
    <glyph glyph-name="uni2206" unicode="&#x2206;" horiz-adv-x="846" 
d="M351 783h146l316 -783h-780zM643 111l-221 550l-219 -550h440z" />
    <glyph glyph-name="product" unicode="&#x220f;" horiz-adv-x="778" 
d="M292 0h-124v669h-132v114h706v-114h-133v-669h-122v669h-195v-669z" />
    <glyph glyph-name="summation" unicode="&#x2211;" horiz-adv-x="639" 
d="M326 397l-267 276v110h524v-110h-370l276 -276l-283 -287h377v-110h-536v113z" />
    <glyph glyph-name="minus" unicode="&#x2212;" horiz-adv-x="630" 
d="M72 422h486v-110h-486v110z" />
    <glyph glyph-name="radical" unicode="&#x221a;" horiz-adv-x="768" 
d="M463 0h-135l-188 514h-121v101h214l163 -477l252 820h110z" />
    <glyph glyph-name="infinity" unicode="&#x221e;" horiz-adv-x="1009" 
d="M739 109q-34 0 -66 11t-66 37.5t-51 41.5t-52 50q-5 -4 -24 -22.5t-24.5 -23.5t-23 -20.5t-26 -21t-24.5 -16.5t-28.5 -15.5t-28.5 -10.5t-32.5 -8t-34.5 -2q-91 0 -147.5 62t-56.5 153q0 92 61.5 155t153.5 63q34 0 66.5 -11.5t66 -37.5t51.5 -42.5t52 -50.5
q75 73 104 94q68 48 142 48q92 0 148 -63t56 -155q0 -91 -62 -153t-154 -62zM271 435q-45 0 -74.5 -33t-29.5 -78t28.5 -76.5t73.5 -31.5q60 0 140 80q1 1 26 27q-4 4 -26 27t-32.5 32t-30 24.5t-38 22t-37.5 6.5zM742 435q-12 0 -25 -3.5t-23 -7t-23.5 -13t-21 -14.5
t-21.5 -18t-18.5 -17t-19 -19.5t-16.5 -17.5q2 -2 26 -26.5t33.5 -32t30 -23t38.5 -21.5t37 -6q43 0 73 32t30 76q0 45 -28 78t-72 33z" />
    <glyph glyph-name="integral" unicode="&#x222b;" horiz-adv-x="409" 
d="M265 551v-571q0 -123 -62.5 -184t-175.5 -61h-13v108q64 2 97 32t33 107v569q0 119 62.5 181t174.5 62h14v-108q-65 -2 -97.5 -30t-32.5 -105z" />
    <glyph glyph-name="uni2236" unicode="&#x2236;" horiz-adv-x="327" 
d="M76 542q0 37 26 62.5t62 25.5t61.5 -25.5t25.5 -62.5q0 -35 -25.5 -61t-61.5 -26t-62 26t-26 61zM76 169q0 37 26 63t62 26q37 0 62 -26t25 -63q0 -35 -25.5 -60.5t-61.5 -25.5t-62 25.5t-26 60.5z" />
    <glyph glyph-name="approxequal" unicode="&#x2248;" horiz-adv-x="629" 
d="M420 396q-42 0 -111 41t-99 41q-44 0 -78 -45l-65 61q54 90 143 90q31 0 63.5 -12.5t54.5 -28t47.5 -28t44.5 -12.5q44 0 79 45l64 -61q-53 -91 -143 -91zM420 146q-42 0 -111 41t-99 41q-44 0 -78 -45l-65 61q54 90 143 90q31 0 63.5 -12.5t54.5 -28t47.5 -28
t44.5 -12.5q44 0 79 45l64 -61q-53 -91 -143 -91z" />
    <glyph glyph-name="notequal" unicode="&#x2260;" horiz-adv-x="627" 
d="M269 171l-65 -133l-84 42l46 91h-94v111h148l85 169h-233v110h286l67 132l83 -38l-47 -94h94v-110h-146l-85 -169h231v-111h-286z" />
    <glyph glyph-name="lessequal" unicode="&#x2264;" horiz-adv-x="681" 
d="M602 282v-114l-537 206v103l537 205v-112l-389 -144zM65 131h538v-107h-538v107z" />
    <glyph glyph-name="greaterequal" unicode="&#x2265;" horiz-adv-x="681" 
d="M616 477v-103l-536 -206v113l388 144l-388 144v113zM79 131h537v-107h-537v107z" />
    <glyph glyph-name="uni2318" unicode="&#x2318;" horiz-adv-x="698" 
d="M546 69q-50 0 -87 37q-36 36 -36 86v63h-148v-63q0 -50 -36 -86q-35 -37 -87 -37q-51 0 -86 37q-36 36 -36 86t36 86t86 36h62v148h-61q-51 0 -86 37q-37 35 -37 86t37 86q36 36 86 36t86 -36t36 -86v-63h148v63q0 50 36 86q38 36 87 36q50 0 86 -36t36 -86t-36 -86
q-35 -37 -86 -37h-62v-148h62q50 0 86 -36t36 -86t-36 -86q-35 -37 -86 -37zM214 522v63q0 26 -18 44q-17 18 -43 18q-29 0 -45 -18q-18 -17 -18 -44q0 -26 18 -44q21 -19 45 -19h61zM546 647q-28 0 -44 -18q-18 -17 -18 -44v-63h62q25 0 44 19q18 18 18 44t-18 44t-44 18z
M275 462v-148h148v148h-148zM214 255h-62q-27 0 -44 -19q-18 -16 -18 -44q0 -25 18 -45q20 -18 44 -18t44 18q18 20 18 45v63zM484 255v-63q0 -25 18 -45q18 -18 44 -18q24 0 44 18q18 20 18 45q0 28 -18 44q-17 19 -44 19h-62z" />
    <glyph glyph-name="filledbox" unicode="&#x25a0;" horiz-adv-x="908" 
d="M810 711v-711h-709v711h709z" />
    <glyph glyph-name="uni25A1" unicode="&#x25a1;" horiz-adv-x="908" 
d="M101 711h709v-711h-709v711zM198 616v-522h511v522h-511z" />
    <glyph glyph-name="triagup" unicode="&#x25b2;" horiz-adv-x="838" 
d="M421 730l417 -730h-838z" />
    <glyph glyph-name="uni25B3" unicode="&#x25b3;" horiz-adv-x="838" 
d="M831 0h-824l412 720zM661 95l-242 428l-243 -428h485z" />
    <glyph glyph-name="lozenge" unicode="&#x25ca;" horiz-adv-x="716" 
d="M709 393l-290 -393h-121l-292 393l292 390h121zM159 393l199 -271l199 273l-199 268z" />
    <glyph glyph-name="circle" unicode="&#x25cb;" horiz-adv-x="813" 
d="M407 -14q-154 0 -262.5 108t-108.5 262t108.5 263t262.5 109t262 -108.5t108 -263.5q0 -154 -108 -262t-262 -108zM407 631q-114 0 -193.5 -80.5t-79.5 -194.5t79.5 -194t193.5 -80q112 0 191 80.5t79 193.5q0 114 -79 194.5t-191 80.5z" />
    <glyph glyph-name="uni25CF" unicode="&#x25cf;" horiz-adv-x="813" 
d="M36 356q0 155 108 263.5t262 108.5t262.5 -109t108.5 -263t-108.5 -262t-262.5 -108t-262 108t-108 262z" />
    <glyph glyph-name="uni2605" unicode="&#x2605;" horiz-adv-x="838" 
d="M419 156l-245 -175l94 285l-244 177h302l93 287l93 -287h302l-244 -177l93 -287z" />
    <glyph glyph-name="uni2611" unicode="&#x2611;" horiz-adv-x="956" 
d="M721 711l128 225l92 -56l-131 -227v-653h-709v711h620zM474 282l193 336h-470v-526h514v390l-223 -384l-274 329l83 72z" />
    <glyph glyph-name="uni2612" unicode="&#x2612;" horiz-adv-x="908" 
d="M101 0v711h709v-711h-709zM711 618h-514v-526h514v526zM226 513l72 71l157 -157l155 157l72 -71l-156 -158l156 -156l-72 -72l-155 156l-158 -159l-71 72l157 159z" />
    <glyph glyph-name="uni2639" unicode="&#x2639;" horiz-adv-x="813" 
d="M407 -14q-154 0 -262.5 108t-108.5 262t108.5 263t262.5 109t262 -108.5t108 -263.5q0 -154 -108 -262t-262 -108zM407 649q-120 0 -205 -86t-85 -207q0 -120 85 -206t205 -86q119 0 203 86t84 206q0 121 -84 207t-203 86zM382 454q0 -28 -19 -47t-47 -19t-47 19t-19 47
t19 47.5t47 19.5t47 -19.5t19 -47.5zM563 454q0 -28 -19 -47t-47 -19t-47 19t-19 47t19 47.5t47 19.5t47 -19.5t19 -47.5zM603 180h-78q-6 46 -41.5 74.5t-76.5 28.5q-43 0 -78.5 -28t-41.5 -75h-78q10 78 66.5 127t131.5 49q74 0 130 -50t66 -126z" />
    <glyph glyph-name="smileface" unicode="&#x263a;" horiz-adv-x="813" 
d="M407 -14q-154 0 -262.5 108t-108.5 262t108.5 263t262.5 109t262 -108.5t108 -263.5q0 -154 -108 -262t-262 -108zM407 649q-120 0 -205 -86t-85 -207q0 -120 85 -206t205 -86q119 0 203 86t84 206q0 121 -84 207t-203 86zM382 454q0 -28 -19 -47t-47 -19t-47 19t-19 47
t19 47.5t47 19.5t47 -19.5t19 -47.5zM563 454q0 -28 -19 -47t-47 -19t-47 19t-19 47t19 47.5t47 19.5t47 -19.5t19 -47.5zM525 332h78q-10 -77 -66.5 -127t-129.5 -50q-75 0 -131.5 49.5t-66.5 127.5h78q6 -47 41.5 -75t78.5 -28q41 0 76.5 28.5t41.5 74.5z" />
    <glyph glyph-name="invsmileface" unicode="&#x263b;" horiz-adv-x="813" 
d="M407 -14q-154 0 -262.5 108t-108.5 262t108.5 263t262.5 109t262 -108.5t108 -263.5q0 -154 -108 -262t-262 -108zM382 454q0 28 -19 47.5t-47 19.5t-47 -19.5t-19 -47.5t19 -47t47 -19t47 19t19 47zM563 454q0 28 -19 47.5t-47 19.5t-47 -19.5t-19 -47.5t19 -47t47 -19
t47 19t19 47zM603 332h-78q-6 -46 -41.5 -74.5t-76.5 -28.5q-43 0 -78.5 28t-41.5 75h-78q10 -78 66.5 -127.5t131.5 -49.5q73 0 129.5 50t66.5 127z" />
    <glyph glyph-name="heart" unicode="&#x2665;" horiz-adv-x="872" 
d="M3 480q0 97 65.5 163t162.5 66q58 0 106 -28t72 -78q24 52 73 79t108 27q95 0 160 -67t65 -162q0 -61 -27 -123.5t-68 -113.5t-97.5 -101.5t-107 -86.5t-106.5 -69q-56 33 -106.5 69t-107 86.5t-97.5 101.5t-68 113.5t-27 123.5z" />
    <glyph glyph-name="uni2713" unicode="&#x2713;" horiz-adv-x="942" 
d="M909 640l-602 -653l-290 319l75 71l218 -236l524 572z" />
    <glyph glyph-name="uni2715" unicode="&#x2715;" horiz-adv-x="755" 
d="M21 637l74 72l281 -280l279 280l73 -72l-279 -282l284 -284l-72 -73l-285 283l-282 -283l-73 73l282 284z" />
    <glyph glyph-name="uni2E18" unicode="&#x2e18;" horiz-adv-x="530" 
d="M289 384q-32 0 -55.5 23t-23.5 56t23 55.5t56 22.5q32 0 55 -22.5t23 -55.5t-23 -56t-55 -23zM405 -63l93 -57q-31 -63 -90 -101.5t-146 -38.5q-98 0 -163.5 59.5t-65.5 151.5q0 56 40 112q30 40 87 91q41 35 58.5 61.5t17.5 64.5v36h108l8 -357h-120l3 115
q-44 -39 -62 -68t-18 -64q0 -42 29.5 -68.5t78.5 -26.5q93 0 142 90z" />
    <glyph glyph-name="uniE09D" unicode="&#xe09d;" horiz-adv-x="781" 
d="M605 429v-238q0 -48 23 -68.5t69 -20.5q18 0 38 4v-101q-29 -11 -64 -11q-88 0 -136.5 45.5t-48.5 132.5v257h-241v-429h-120v429h-98v105h98v75q0 99 56 153.5t154 54.5q27 0 55 -8v-102q-18 4 -43 4q-102 0 -102 -106v-71h241v165h119v-165h131v-105h-131z" />
    <glyph glyph-name="at.case" unicode="&#xf633;" horiz-adv-x="867" 
d="M624 192q-35 0 -66.5 17t-45.5 45q-21 -29 -54.5 -45t-63.5 -16q-69 0 -116 52t-47 115q0 94 58.5 161t144.5 67q26 0 54.5 -13.5t41.5 -44.5l10 55h110l-42 -249q-11 -61 35 -61q43 0 81.5 52t38.5 125q0 118 -85 197t-218 79q-140 0 -240.5 -100t-100.5 -242
q0 -137 91 -233t244 -96q115 0 210 69l35 -54q-41 -36 -111.5 -58.5t-133.5 -22.5q-176 0 -289 113.5t-113 281.5q0 111 55.5 205t149 148t202.5 54q158 0 264 -96.5t106 -243.5q0 -115 -61 -188t-144 -73zM445 485q-42 0 -71.5 -34.5t-28.5 -77.5q1 -30 21 -54t52 -24
q40 0 68.5 35.5t28.5 80.5q0 33 -19.5 53.5t-50.5 20.5z" />
    <glyph glyph-name="dollar.lowercase" unicode="&#xf653;" horiz-adv-x="502" 
d="M455 157q0 -61 -40.5 -104.5t-108.5 -56.5v-98h-114v98q-111 21 -160 129l93 52q43 -86 128 -86q34 0 59 16t25 43q0 47 -110 70q-89 18 -133 64q-38 40 -38 97q0 58 38.5 99.5t97.5 57.5v99h114v-97q100 -19 144 -115l-92 -52q-36 72 -112 72q-28 0 -51.5 -15t-23.5 -37
q0 -26 23.5 -41.5t75.5 -26.5q91 -20 138 -63t47 -105z" />
    <glyph glyph-name="commaaccent" unicode="&#xf6c3;" horiz-adv-x="0" 
d="M68 -326l-42 38q52 38 77 94q-9 -4 -23 -4q-25 0 -42.5 18t-17.5 45q0 29 19.5 48.5t49.5 19.5t51.5 -25t21.5 -64v-3q0 -47 -25.5 -92t-68.5 -75z" />
    <glyph glyph-name="uniF730" unicode="&#xf730;" horiz-adv-x="649" 
d="M325 -9q-117 0 -197 79.5t-80 197.5t80.5 197.5t197.5 79.5q115 0 195 -79t80 -196q0 -118 -79.5 -198.5t-196.5 -80.5zM325 437q-71 0 -114 -47.5t-43 -119.5q0 -71 43.5 -121.5t114.5 -50.5t112.5 49t41.5 121t-42 120.5t-113 48.5z" />
    <glyph glyph-name="uniF731" unicode="&#xf731;" horiz-adv-x="398" 
d="M194 534h117v-534h-121v411l-121 -73l-53 88z" />
    <glyph glyph-name="uniF732" unicode="&#xf732;" horiz-adv-x="515" 
d="M50 93l197 159q53 43 71 66t18 52t-20.5 49t-57.5 20q-69 0 -101 -86l-103 43q20 70 74.5 109t129.5 39q85 0 141.5 -46.5t56.5 -121.5q0 -60 -32 -103.5t-104 -100.5l-87 -68h226v-104h-409v93z" />
    <glyph glyph-name="uniF733" unicode="&#xf733;" horiz-adv-x="510" 
d="M249 -6q-153 0 -209 138l100 49q36 -82 110 -82q37 0 61 18.5t24 41.5q0 25 -22.5 43.5t-61.5 18.5h-53v104h49q34 0 55.5 18t21.5 41t-19 39t-58 16q-65 0 -98 -79l-101 46q23 65 74 101.5t126 36.5q88 0 141.5 -43.5t53.5 -108.5q0 -78 -76 -115v-1q88 -34 88 -118
q0 -69 -59 -116.5t-147 -47.5z" />
    <glyph glyph-name="uniF734" unicode="&#xf734;" horiz-adv-x="552" 
d="M38 237l240 297h147v-322h82v-102h-82v-110h-116v110h-271v127zM309 212v205l-167 -205h167z" />
    <glyph glyph-name="uniF735" unicode="&#xf735;" horiz-adv-x="508" 
d="M196 432l-18 -111q41 34 97 34q74 0 128.5 -48.5t54.5 -129.5q0 -85 -62 -134t-150 -49q-146 0 -202 132l98 55q36 -82 106 -82q38 0 64 21t26 56q0 37 -25 58t-63 21q-52 0 -97 -47l-94 36l44 290h329v-102h-236z" />
    <glyph glyph-name="uniF736" unicode="&#xf736;" horiz-adv-x="528" 
d="M304 442q-54 0 -89.5 -37t-45.5 -103h1q20 28 52.5 43t66.5 15q84 0 139 -50t55 -130q0 -82 -62.5 -134t-148.5 -52q-93 0 -157 59q-65 62 -65 198q0 57 15 108t44.5 93t79.5 67t115 25q93 0 172 -66l-59 -85q-34 27 -58 38t-55 11zM271 260q-40 0 -68.5 -23.5
t-28.5 -57.5q0 -38 27 -60t70 -22q41 0 67.5 22t26.5 58q0 37 -26 60t-68 23z" />
    <glyph glyph-name="uniF737" unicode="&#xf737;" horiz-adv-x="471" 
d="M437 534v-103l-229 -431h-129l229 431h-271v103h400z" />
    <glyph glyph-name="uniF738" unicode="&#xf738;" horiz-adv-x="522" 
d="M458 393q0 -37 -27 -71t-63 -46q46 -16 74 -48.5t28 -78.5q0 -78 -63 -118t-146 -40q-84 0 -147 40t-63 118q0 46 28.5 78.5t74.5 48.5q-36 12 -63 46t-27 71q0 70 61.5 111t135.5 41t135.5 -41t61.5 -111zM347 384q0 30 -27.5 47t-58.5 17t-58.5 -17t-27.5 -47t27 -46.5
t59 -16.5t59 16.5t27 46.5zM358 157q0 34 -30.5 52t-66.5 18t-67 -18t-31 -52q0 -32 31 -50.5t67 -18.5t66.5 18.5t30.5 50.5z" />
    <glyph glyph-name="uniF739" unicode="&#xf739;" horiz-adv-x="529" 
d="M230 96q52 0 85.5 36.5t44.5 103.5h-1q-20 -28 -52.5 -43t-66.5 -15q-84 0 -139 49t-55 131q0 80 62.5 133t148.5 53q95 0 157 -59q65 -62 65 -198q0 -57 -14.5 -108t-43.5 -93t-78 -67t-113 -25q-57 0 -96 16t-82 53l58 85q34 -29 60 -40.5t60 -11.5zM259 278
q40 0 68 23t28 57q0 38 -26.5 60.5t-69.5 22.5q-41 0 -67.5 -22.5t-26.5 -58.5q0 -39 25.5 -60.5t68.5 -21.5z" />
    <glyph glyph-name="ff" unicode="&#xfb00;" horiz-adv-x="765" 
d="M708 711q-102 0 -102 -106v-71h142v-105h-142v-429h-120v429h-241v-429h-120v429h-98v105h98v75q0 99 56 153.5t154 54.5q27 0 55 -8v-102q-18 4 -43 4q-102 0 -102 -106v-71h241v75q0 99 56 153.5t154 54.5q27 0 55 -8v-102q-18 4 -43 4z" />
    <glyph glyph-name="fi" unicode="&#xfb01;" horiz-adv-x="686" 
d="M606 534v-534h-120v429h-241v-429h-120v429h-98v105h98v75q0 99 56 153.5t154 54.5q27 0 55 -8v-102q-18 4 -43 4q-102 0 -102 -106v-71h361zM545 629q-32 0 -54.5 23t-22.5 55t23 55.5t54 23.5q33 0 56.5 -23.5t23.5 -55.5t-23.5 -55t-56.5 -23z" />
    <glyph glyph-name="fl" unicode="&#xfb02;" horiz-adv-x="685" 
d="M605 815v-815h-119v429h-241v-429h-120v429h-98v105h98v75q0 99 56 153.5t154 54.5q27 0 55 -8v-102q-18 4 -43 4q-102 0 -102 -106v-71h241v281h119z" />
    <glyph glyph-name="ffi" unicode="&#xfb03;" horiz-adv-x="1042" 
d="M962 534v-534h-119v429h-236v-429h-120v429h-242v-429h-120v429h-98v105h98v75q0 99 56 153.5t154 54.5q27 0 55 -8v-102q-18 4 -43 4q-102 0 -102 -106v-71h242v75q0 99 56 153.5t154 54.5q27 0 55 -8v-102q-18 4 -43 4q-102 0 -102 -106v-71h355zM902 629q-32 0 -55 23
t-23 55t23 55.5t55 23.5q33 0 56 -23.5t23 -55.5t-23 -55t-56 -23z" />
    <glyph glyph-name="ffl" unicode="&#xfb04;" horiz-adv-x="1042" 
d="M962 815v-815h-119v429h-236v-429h-120v429h-242v-429h-120v429h-98v105h98v75q0 99 56 153.5t154 54.5q27 0 55 -8v-102q-18 4 -43 4q-102 0 -102 -106v-71h242v75q0 99 56 153.5t154 54.5q27 0 55 -8v-102q-18 4 -43 4q-102 0 -102 -106v-71h236v281h119z" />
    <glyph glyph-name="Aring.alt" horiz-adv-x="783" 
d="M390 851q-60 0 -102.5 40.5t-42.5 98.5q0 57 43 97.5t102 40.5q60 0 103 -40.5t43 -97.5q0 -58 -43 -98.5t-103 -40.5zM390 1054q-29 0 -48.5 -18.5t-19.5 -45.5t20 -46.5t48 -19.5q29 0 48.5 19.5t19.5 46.5q0 25 -20.5 44.5t-47.5 19.5zM319 783h145l317 -783h-128
l-71 184h-384l-72 -184h-126zM242 293h297l-149 372z" />
    <glyph glyph-name="OE.alt" horiz-adv-x="1135" 
d="M1077 0h-613q-84 0 -154 23.5t-117.5 62t-81 89.5t-48.5 105.5t-15 110.5q0 50 14 102t46.5 105t79.5 93.5t119 66t159 25.5h607v-111h-369v-218h335v-111h-335v-231h373v-112zM581 669h-113q-74 0 -132 -26t-91.5 -67.5t-50.5 -88t-17 -92.5q0 -51 17 -99.5t51 -90
t92 -66.5t132 -25h112v555z" />
    <glyph glyph-name="Q.alt" horiz-adv-x="899" 
d="M875 0h-431q-169 0 -282.5 112t-113.5 282q0 168 117 284t282 116q166 0 281.5 -114.5t115.5 -282.5q0 -94 -42 -168.5t-124 -121.5v-3h197v-104zM175 396q0 -118 78.5 -200.5t192.5 -82.5q76 0 140 39q60 38 95 103t35 141q0 119 -78.5 202t-192.5 83t-192 -82.5
t-78 -202.5z" />
    <glyph glyph-name="O.slash" horiz-adv-x="900" 
d="M451 794q168 0 284.5 -115t116.5 -286t-118 -286.5t-286 -115.5t-284 113.5t-116 285.5q0 170 118 287t285 117zM450 680q-115 0 -194 -83.5t-79 -203.5q0 -94 51 -169l362 416q-66 40 -140 40zM450 105q114 0 193.5 84t79.5 204q0 94 -53 169l-361 -416q65 -41 141 -41z
" />
    <glyph glyph-name="a.alt" horiz-adv-x="681" 
d="M43 268q0 108 73.5 192t192.5 84q43 0 93.5 -21.5t80.5 -66.5v78h118v-534h-118v81q-29 -46 -82 -67.5t-95 -21.5q-113 0 -188 82.5t-75 193.5zM484 268q0 71 -45 120t-115 49q-71 0 -115.5 -49t-44.5 -120t44.5 -119.5t115.5 -48.5t115.5 48.5t44.5 119.5z" />
    <glyph glyph-name="aacute.alt" horiz-adv-x="681" 
d="M272 625l103 172h145l-145 -172h-103zM43 268q0 108 73.5 192t192.5 84q43 0 93.5 -21.5t80.5 -66.5v78h118v-534h-118v81q-29 -46 -82 -67.5t-95 -21.5q-113 0 -188 82.5t-75 193.5zM484 268q0 71 -45 120t-115 49q-71 0 -115.5 -49t-44.5 -120t44.5 -119.5t115.5 -48.5
t115.5 48.5t44.5 119.5z" />
    <glyph glyph-name="abreve.alt" horiz-adv-x="681" 
d="M322 623q-73 0 -124.5 44t-57.5 126h101q3 -41 24 -63t57 -22t57.5 22t24.5 63h100q-7 -79 -56.5 -124.5t-125.5 -45.5zM43 268q0 108 73.5 192t192.5 84q43 0 93.5 -21.5t80.5 -66.5v78h118v-534h-118v81q-29 -46 -82 -67.5t-95 -21.5q-113 0 -188 82.5t-75 193.5z
M484 268q0 71 -45 120t-115 49q-71 0 -115.5 -49t-44.5 -120t44.5 -119.5t115.5 -48.5t115.5 48.5t44.5 119.5z" />
    <glyph glyph-name="acaron.alt" horiz-adv-x="681" 
d="M322 705l74 92h114l-144 -172h-93l-138 172h118zM43 268q0 108 73.5 192t192.5 84q43 0 93.5 -21.5t80.5 -66.5v78h118v-534h-118v81q-29 -46 -82 -67.5t-95 -21.5q-113 0 -188 82.5t-75 193.5zM484 268q0 71 -45 120t-115 49q-71 0 -115.5 -49t-44.5 -120t44.5 -119.5
t115.5 -48.5t115.5 48.5t44.5 119.5z" />
    <glyph glyph-name="acircumflex.alt" horiz-adv-x="681" 
d="M367 797l143 -172h-114l-73 92l-70 -92h-118l138 172h94zM43 268q0 108 73.5 192t192.5 84q43 0 93.5 -21.5t80.5 -66.5v78h118v-534h-118v81q-29 -46 -82 -67.5t-95 -21.5q-113 0 -188 82.5t-75 193.5zM484 268q0 71 -45 120t-115 49q-71 0 -115.5 -49t-44.5 -120
t44.5 -119.5t115.5 -48.5t115.5 48.5t44.5 119.5z" />
    <glyph glyph-name="adieresis.alt" horiz-adv-x="681" 
d="M198 621q-31 0 -52.5 22t-21.5 53t21 53t53 22q31 0 53 -22.5t22 -52.5q0 -31 -22 -53t-53 -22zM420 621q-32 0 -53.5 21.5t-21.5 53.5q0 31 21.5 53t53.5 22q31 0 53 -22.5t22 -52.5q0 -31 -22 -53t-53 -22zM43 268q0 -111 75 -193.5t188 -82.5q42 0 95 21.5t82 67.5
v-81h118v534h-118v-78q-30 45 -80.5 66.5t-93.5 21.5q-119 0 -192.5 -84t-73.5 -192zM484 268q0 -71 -44.5 -119.5t-115.5 -48.5t-115.5 48.5t-44.5 119.5t44.5 120t115.5 49q70 0 115 -49t45 -120z" />
    <glyph glyph-name="agrave.alt" horiz-adv-x="681" 
d="M271 797l103 -172h-103l-146 172h146zM43 268q0 108 73.5 192t192.5 84q43 0 93.5 -21.5t80.5 -66.5v78h118v-534h-118v81q-29 -46 -82 -67.5t-95 -21.5q-113 0 -188 82.5t-75 193.5zM484 268q0 71 -45 120t-115 49q-71 0 -115.5 -49t-44.5 -120t44.5 -119.5t115.5 -48.5
t115.5 48.5t44.5 119.5z" />
    <glyph glyph-name="amacron.alt" horiz-adv-x="681" 
d="M496 730v-95h-347v95h347zM43 268q0 108 73.5 192t192.5 84q43 0 93.5 -21.5t80.5 -66.5v78h118v-534h-118v81q-29 -46 -82 -67.5t-95 -21.5q-113 0 -188 82.5t-75 193.5zM484 268q0 71 -45 120t-115 49q-71 0 -115.5 -49t-44.5 -120t44.5 -119.5t115.5 -48.5t115.5 48.5
t44.5 119.5z" />
    <glyph glyph-name="aogonek.alt" horiz-adv-x="681" 
d="M601 534v-534q-83 -62 -83 -106q0 -54 77 -54h2v-82q-26 -2 -37 -2q-62 0 -104 28.5t-42 80.5q0 61 94 135h-25v81q-29 -46 -82 -67.5t-95 -21.5q-113 0 -188 82.5t-75 193.5q0 108 73.5 192t192.5 84q43 0 93.5 -21.5t80.5 -66.5v78h118zM324 100q71 0 115.5 48.5
t44.5 119.5t-45 120t-115 49q-71 0 -115.5 -49t-44.5 -120t44.5 -119.5t115.5 -48.5z" />
    <glyph glyph-name="aring.alt" horiz-adv-x="681" 
d="M321 603q-59 0 -102 40.5t-43 98.5q0 57 43 97.5t102 40.5q61 0 103.5 -40.5t42.5 -97.5q0 -58 -42.5 -98.5t-103.5 -40.5zM322 806q-29 0 -49 -18.5t-20 -45.5t20 -46.5t49 -19.5t48.5 19.5t19.5 46.5q0 25 -20.5 44.5t-47.5 19.5zM43 268q0 108 73.5 192t192.5 84
q43 0 93.5 -21.5t80.5 -66.5v78h118v-534h-118v81q-29 -46 -82 -67.5t-95 -21.5q-113 0 -188 82.5t-75 193.5zM484 268q0 71 -45 120t-115 49q-71 0 -115.5 -49t-44.5 -120t44.5 -119.5t115.5 -48.5t115.5 48.5t44.5 119.5z" />
    <glyph glyph-name="atilde.alt" horiz-adv-x="681" 
d="M252 693q-38 0 -39 -66h-81q-4 72 28 113.5t92 41.5q27 0 49.5 -11t35 -23.5t28 -23.5t30.5 -11q38 0 39 66h82q3 -72 -29 -113.5t-92 -41.5q-27 0 -49.5 11t-35 23.5t-28.5 23.5t-30 11zM43 268q0 108 73.5 192t192.5 84q43 0 93.5 -21.5t80.5 -66.5v78h118v-534h-118
v81q-29 -46 -82 -67.5t-95 -21.5q-113 0 -188 82.5t-75 193.5zM484 268q0 71 -45 120t-115 49q-71 0 -115.5 -49t-44.5 -120t44.5 -119.5t115.5 -48.5t115.5 48.5t44.5 119.5z" />
    <glyph glyph-name="l.alt" horiz-adv-x="325" 
d="M194 814v-615q0 -96 82 -96q19 0 38 4v-101q-29 -11 -62 -11q-84 0 -130.5 50.5t-46.5 144.5v624h119z" />
    <glyph glyph-name="lslash.alt" horiz-adv-x="418" 
d="M257 339v-140q0 -96 83 -96q19 0 38 4v-101q-29 -11 -62 -11q-84 0 -130.5 50.5t-46.5 144.5v79l-102 -60v122l102 59v424h118v-355l121 70v-120z" />
    <glyph glyph-name="y.alt" horiz-adv-x="604" 
d="M310 136l151 398h126l-251 -615q-37 -90 -90.5 -138t-133.5 -48q-41 0 -68 9v103q12 -4 43 -4q92 0 136 108l22 54l-226 531h128z" />
    <glyph glyph-name="aring.alt2" horiz-adv-x="575" 
d="M286 603q-59 0 -102 40.5t-43 98.5q0 57 43 97.5t102 40.5q61 0 103.5 -40.5t42.5 -97.5q0 -58 -42.5 -98.5t-103.5 -40.5zM287 806q-29 0 -48.5 -18.5t-19.5 -45.5t19.5 -46.5t48.5 -19.5t48.5 19.5t19.5 46.5q0 25 -20.5 44.5t-47.5 19.5zM385 362q0 33 -27.5 56.5
t-77.5 23.5q-92 0 -133 -85l-91 52q63 136 227 136q150 0 200 -109q18 -40 18 -96v-340h-117v73q-49 -82 -157 -82q-78 0 -129 44t-51 113v6q0 44 21 77.5t55.5 51t71 26t74.5 8.5h66q50 0 50 45zM384 233h-115q-38 0 -70.5 -19.5t-32.5 -54.5q0 -33 23.5 -53t61.5 -20
q61 0 97 35t36 95v17z" />
    <glyph glyph-name="i.loclTRK" horiz-adv-x="278" 
d="M61 707q0 32 23 55.5t55 23.5t55 -23.5t23 -55.5t-23 -55t-55 -23t-55 23t-23 55zM199 534h-119v-534h119v534z" />
    <glyph glyph-name="uni0414.alt" horiz-adv-x="870" 
d="M148 0v-165h-122v276h64l274 672h143l270 -672h67v-276h-123v165h-573zM435 653l-216 -542h426z" />
    <glyph glyph-name="uni041B.alt" horiz-adv-x="741" 
d="M133 0h-131l297 783h141l298 -783h-137l-233 642z" />
    <glyph glyph-name="uni0434.alt" horiz-adv-x="708" 
d="M292 534h122l210 -427h46v-272h-116v165h-401v-165h-116v272h46zM207 107h290l-145 304z" />
    <glyph glyph-name="uni0438.alt" horiz-adv-x="633" 
d="M193 534v-299q0 -60 29.5 -96.5t88.5 -36.5q56 0 89.5 37t33.5 98v297h119v-534h-116v72q-61 -83 -163 -83q-97 0 -148.5 60.5t-51.5 156.5v328h119z" />
    <glyph glyph-name="uni0439.alt" horiz-adv-x="633" 
d="M314 622q-69 0 -120.5 41t-61.5 123l81 15q14 -44 36 -67.5t65 -23.5q42 0 64.5 23.5t37.5 67.5l79 -15q-11 -82 -61 -123t-120 -41zM193 534v-299q0 -60 29.5 -96.5t88.5 -36.5q56 0 89.5 37t33.5 98v297h119v-534h-116v72q-61 -83 -163 -83q-97 0 -148.5 60.5
t-51.5 156.5v328h119z" />
    <glyph glyph-name="uni043B.alt" horiz-adv-x="606" 
d="M458 0l-157 395l-156 -395h-126l224 534h119l225 -534h-129z" />
    <glyph glyph-name="uni043F.alt" horiz-adv-x="633" 
d="M440 0v299q0 60 -29.5 96.5t-88.5 36.5q-56 0 -89.5 -37t-33.5 -98v-297h-119v534h116v-72q61 83 163 83q98 0 149 -60t51 -156v-329h-119z" />
    <glyph glyph-name="uni0446.alt" horiz-adv-x="667" 
d="M437 0v72q-61 -83 -163 -83q-98 0 -149 60.5t-51 156.5v328h119v-299q0 -60 29.5 -96.5t88.5 -36.5q56 0 89.5 37t33.5 98v297h119v-427h69v-272h-113v165h-72z" />
    <glyph glyph-name="uni0448.alt" horiz-adv-x="974" 
d="M543 534v-300q0 -61 28 -97t87 -36q54 0 85.5 37t31.5 98v298h120v-534h-117v72q-62 -84 -159 -84q-116 0 -165 87q-41 -45 -83.5 -66t-101.5 -21q-97 0 -146 60t-49 156v330h119v-302q0 -60 27.5 -95.5t86.5 -35.5q55 0 86.5 36.5t31.5 97.5v299h118z" />
    <glyph glyph-name="uni0449.alt" horiz-adv-x="1008" 
d="M778 0v72q-62 -84 -159 -84q-116 0 -165 87q-41 -45 -83.5 -66t-101.5 -21q-97 0 -146 60t-49 156v330h119v-302q0 -60 27.5 -95.5t86.5 -35.5q55 0 86.5 36.5t31.5 97.5v299h118v-300q0 -61 28 -97t87 -36q54 0 85.5 37.5t31.5 98.5v297h120v-427h68v-272h-113v165h-72z
" />
    <glyph glyph-name="zero.slash" horiz-adv-x="765" 
d="M384 794q146 0 237 -114.5t91 -285.5q0 -172 -92.5 -287.5t-238.5 -115.5q-145 0 -236.5 114.5t-91.5 286.5q0 171 92.5 286.5t238.5 115.5zM381 681q-90 0 -145 -82.5t-55 -204.5q0 -82 26 -148l280 396q-45 39 -106 39zM384 104q90 0 145 83t55 205q0 84 -27 150
l-281 -398q48 -40 108 -40z" />
    <glyph glyph-name="colon.case" horiz-adv-x="333" 
d="M79 579q0 37 26 62.5t62 25.5t61.5 -25.5t25.5 -62.5q0 -35 -25.5 -60.5t-61.5 -25.5t-62 25.5t-26 60.5zM79 207q0 37 26 62.5t62 25.5q37 0 62 -25.5t25 -62.5q0 -36 -25.5 -61.5t-61.5 -25.5t-62 26t-26 61z" />
    <glyph glyph-name="exclamdown.case" horiz-adv-x="312" 
d="M234 712q0 33 -23 55.5t-55 22.5q-33 0 -56 -22.5t-23 -55.5t23 -56t56 -23q32 0 55 23t23 56zM219 119v-119h-128v119l10 434h108z" />
    <glyph glyph-name="uni2E18.case" horiz-adv-x="537" 
d="M296 634q-32 0 -55.5 23t-23.5 56t23 55.5t56 22.5q32 0 55 -22.5t23 -55.5t-23 -56t-55 -23zM412 187l93 -57q-31 -63 -90 -101.5t-146 -38.5q-98 0 -163.5 59.5t-65.5 151.5q0 56 40 112q30 40 87 91q41 35 58.5 61.5t17.5 64.5v36h108l8 -357h-120l3 115
q-44 -39 -62 -68t-18 -64q0 -42 29.5 -68.5t78.5 -26.5q93 0 142 90z" />
    <glyph glyph-name="questiondown.case" horiz-adv-x="535" 
d="M374 714q0 33 -23 55.5t-55 22.5q-33 0 -56 -22.5t-23 -55.5t23.5 -56t55.5 -23t55 23t23 56zM269 -9q-98 0 -163.5 59.5t-65.5 151.5q0 61 30 103t97 100q41 35 58.5 61.5t17.5 64.5v24h115v-45q0 -52 -19.5 -90.5t-64.5 -77.5l-27 -23q-78 -69 -78 -124q0 -40 28.5 -66
t72.5 -26q41 0 76 24t54 71l103 -57q-25 -65 -85 -107.5t-149 -42.5z" />
    <glyph glyph-name="semicolon.case" horiz-adv-x="337" 
d="M81 578q0 37 25.5 62.5t61.5 25.5q37 0 62.5 -25.5t25.5 -62.5q0 -35 -25.5 -60.5t-62.5 -25.5q-36 0 -61.5 25.5t-25.5 60.5zM142 -38l-54 48q67 47 99 121q-14 -6 -30 -6q-31 0 -54 23.5t-23 58.5q0 37 25 62t65 25q39 0 66 -32t27 -82v-5q0 -60 -33 -117t-88 -96z" />
    <glyph glyph-name="braceleft.case" horiz-adv-x="462" 
d="M142 118l16 110q7 45 -9.5 71t-43.5 34.5t-67 8.5h-8v97h8q62 0 96 25.5t24 90.5l-16 110q-19 123 40.5 173t185.5 50h54v-95h-47q-64 0 -92.5 -20t-29 -57.5t7.5 -92.5l12 -80q3 -22 -0.5 -43t-14.5 -44t-37.5 -40t-65.5 -24v-1q51 -9 80.5 -37t36 -56t1.5 -57l-12 -81
q-8 -55 -7.5 -92.5t29 -57.5t92.5 -20h47v-95h-54q-127 0 -186 49t-40 174z" />
    <glyph glyph-name="braceright.case" horiz-adv-x="462" 
d="M304 228l16 -110q18 -126 -40.5 -174.5t-185.5 -48.5h-54v95h48q63 0 91.5 20t29 57.5t-7.5 92.5l-13 81q-4 29 2.5 57t36 56t80.5 37v1q-39 7 -66 24.5t-37.5 39t-15 45t0.5 42.5l12 80q8 55 7.5 92.5t-29 57.5t-91.5 20h-48v95h54q126 0 185 -50t41 -173l-16 -110
q-9 -65 25 -90.5t96 -25.5h7v-97h-7q-63 0 -96.5 -24.5t-24.5 -89.5z" />
    <glyph glyph-name="bracketleft.case" horiz-adv-x="435" 
d="M211 -9h185v-96h-296v993h296v-95h-185v-802z" />
    <glyph glyph-name="bracketright.case" horiz-adv-x="435" 
d="M39 888h296v-993h-296v96h184v802h-184v95z" />
    <glyph glyph-name="parenleft.case" horiz-adv-x="405" 
d="M381 -48l-51 -65q-133 75 -206 200.5t-73 288.5v27q0 164 73.5 292t205.5 203l51 -66q-102 -75 -159 -184.5t-57 -244.5v-27q0 -266 216 -424z" />
    <glyph glyph-name="parenright.case" horiz-adv-x="405" 
d="M75 -113l-51 65q217 158 217 424v27q0 135 -57.5 244.5t-159.5 184.5l51 66q133 -75 206 -203t73 -292v-27q0 -164 -73 -289t-206 -200z" />
    <glyph glyph-name="emdash.case" horiz-adv-x="1024" 
d="M76 452h872v-115h-872v115z" />
    <glyph glyph-name="endash.case" horiz-adv-x="611" 
d="M76 452h459v-115h-459v115z" />
    <glyph glyph-name="hyphen.case" horiz-adv-x="470" 
d="M72 457h325v-121h-325v121z" />
    <glyph glyph-name="guillemotleft.case" horiz-adv-x="655" 
d="M271 167l-224 221l224 221l69 -67l-156 -154l156 -153zM521 167l-224 221l224 221l69 -67l-155 -154l156 -153z" />
    <glyph glyph-name="guillemotright.case" horiz-adv-x="656" 
d="M358 388l-223 -221l-70 68l156 153l-156 154l69 67zM609 388l-224 -221l-70 68l157 153l-156 154l69 67z" />
    <glyph glyph-name="guilsinglleft.case" horiz-adv-x="405" 
d="M271 167l-224 221l224 221l69 -67l-156 -154l156 -153z" />
    <glyph glyph-name="guilsinglright.case" horiz-adv-x="405" 
d="M358 388l-224 -221l-69 68l156 153l-156 154l69 67z" />
    <glyph glyph-name="cent.alt" horiz-adv-x="601" 
d="M462 198l104 -46q-19 -54 -67 -98.5t-123 -57.5v-98h-118v100q-95 21 -154.5 95.5t-59.5 174.5q0 96 60 172t154 98v99h118v-97q69 -12 118 -54t68 -101l-102 -46q-35 98 -137 98q-66 0 -111.5 -47t-45.5 -120q0 -75 45 -123t113 -48q100 0 138 99z" />
    <glyph glyph-name="dollar.alt" horiz-adv-x="641" 
d="M593 217q0 -79 -55 -141.5t-151 -79.5v-108h-119v107q-82 13 -141.5 60.5t-87.5 123.5l104 54q25 -63 73.5 -96.5t112.5 -33.5q60 0 98.5 29t38.5 78q0 43 -36.5 71t-120.5 54q-127 40 -184 91q-60 53 -60 143q0 81 57 142t146 78v102h119v-102q74 -14 122.5 -57.5
t72.5 -103.5l-102 -55q-45 110 -158 110q-57 0 -94 -30t-37 -77q0 -44 36.5 -71t108.5 -49q145 -43 201 -99q56 -54 56 -140z" />
    <glyph glyph-name="brevecyr" horiz-adv-x="663" 
d="M330 622q-70 0 -121.5 41t-61.5 123l81 15q14 -44 36.5 -67.5t65.5 -23.5q42 0 64.5 24t36.5 67l79 -15q-11 -82 -60.5 -123t-119.5 -41z" />
    <glyph glyph-name="zero.slash.osf" horiz-adv-x="725" 
d="M364 621q141 0 226.5 -90t85.5 -225q0 -134 -87 -225t-227 -91q-136 0 -224.5 88t-88.5 228q0 135 86.5 225t228.5 90zM362 509q-92 0 -140 -58.5t-48 -144.5q0 -72 33 -124l224 316q-31 11 -69 11zM362 102q91 0 139.5 59t48.5 145q0 71 -33 122l-224 -315
q31 -11 69 -11z" />
    <glyph glyph-name="zero.osf" horiz-adv-x="725" 
d="M362 -10q-136 0 -224.5 88t-88.5 228q0 135 86.5 225t228.5 90q141 0 226.5 -90t85.5 -225q0 -134 -87 -225t-227 -91zM362 508q-91 0 -138.5 -58t-47.5 -144q0 -85 48 -143.5t138 -58.5t138.5 58.5t48.5 143.5t-48.5 143.5t-138.5 58.5z" />
    <glyph glyph-name="one.osf" horiz-adv-x="462" 
d="M246 611h117v-611h-123v479l-176 -106l-57 94z" />
    <glyph glyph-name="two.osf" horiz-adv-x="646" 
d="M64 0v98l242 132q78 43 113.5 80.5t35.5 82.5q0 52 -37 85.5t-96 33.5q-54 0 -98.5 -31.5t-65.5 -89.5l-108 42q27 86 102.5 138t168.5 52q117 0 189.5 -67.5t72.5 -161.5q0 -78 -55 -136t-155 -109l-72 -37v-1h291v-111h-528z" />
    <glyph glyph-name="three.osf" horiz-adv-x="648" 
d="M592 48q0 -96 -78.5 -162.5t-199.5 -66.5q-204 0 -274 176l106 52q51 -116 170 -116q63 0 106 35.5t43 83.5q0 50 -41.5 85.5t-105.5 35.5h-84v111h77q60 0 99.5 34.5t39.5 82.5t-36.5 79.5t-102.5 31.5q-105 0 -153 -113l-107 49q27 78 94.5 127t167.5 49q120 0 191 -61
t71 -149q0 -122 -118 -179v-1q135 -52 135 -184z" />
    <glyph glyph-name="four.osf" horiz-adv-x="712" 
d="M555 611v-500h116v-111h-116v-172h-121v172h-403v124l373 487h151zM157 111h277v361z" />
    <glyph glyph-name="five.osf" horiz-adv-x="639" 
d="M307 -181q-90 0 -160 42.5t-106 125.5l106 59q49 -114 162 -114q66 0 111.5 39t45.5 105q0 69 -44.5 107.5t-109.5 38.5q-88 0 -148 -67l-105 43l59 413h437v-111h-344l-31 -224q63 53 155 53q116 0 187 -70.5t71 -180.5q0 -119 -83 -189t-203 -70z" />
    <glyph glyph-name="six.osf" horiz-adv-x="685" 
d="M401 686q-104 0 -161.5 -80t-64.5 -197h1q33 47 88.5 73t114.5 26q113 0 186.5 -70.5t73.5 -183.5q0 -116 -83.5 -190t-201.5 -74q-128 0 -213 85q-88 88 -88 289q0 85 21 160.5t62 137t109 97t156 35.5q118 0 218 -84l-62 -90q-28 22 -45.5 33.5t-47.5 22t-63 10.5z
M352 401q-66 0 -115 -42t-49 -106q0 -69 47 -110t117 -41q69 0 114.5 41t45.5 107q0 68 -45 109.5t-115 41.5z" />
    <glyph glyph-name="seven.osf" horiz-adv-x="615" 
d="M588 611v-101l-359 -682h-142l360 672h-418v111h559z" />
    <glyph glyph-name="eight.osf" horiz-adv-x="679" 
d="M339 -9q-122 0 -204.5 62t-82.5 160q0 139 150 194v1q-60 17 -95 64t-35 110q0 96 80 154t187 58q109 0 188.5 -57.5t79.5 -154.5q0 -63 -34 -108.5t-95 -65.5v-1q149 -54 149 -189q0 -102 -82.5 -164.5t-205.5 -62.5zM194 570q0 -51 42.5 -84.5t102.5 -33.5
q63 0 104.5 33.5t41.5 84.5t-41.5 84.5t-104.5 33.5q-64 0 -104.5 -33t-40.5 -85zM175 223q0 -53 47.5 -89t116.5 -36t117.5 35.5t48.5 89.5q0 53 -48.5 88.5t-117.5 35.5q-71 0 -117.5 -34.5t-46.5 -89.5z" />
    <glyph glyph-name="nine.osf" horiz-adv-x="686" 
d="M284 -73q72 0 123.5 41.5t75.5 100.5t29 130h-2q-34 -47 -89 -73.5t-113 -26.5q-114 0 -188 71t-74 184q0 118 83.5 193.5t201.5 75.5q128 0 213 -85q88 -88 88 -289q0 -86 -20.5 -161t-61 -136.5t-109 -97t-157.5 -35.5q-124 0 -225 87l64 89q81 -68 161 -68zM333 206
q66 0 115 42.5t49 108.5q0 72 -46 113t-118 41q-70 0 -115 -41t-45 -110q0 -70 44.5 -112t115.5 -42z" />
    <glyph glyph-name="zero.slash.tosf" 
d="M342 621q134 0 218.5 -88.5t84.5 -226.5t-85.5 -227t-220.5 -89q-134 0 -218.5 89t-84.5 226q0 138 85 227t221 89zM340 510q-62 0 -104.5 -33.5t-59 -77.5t-16.5 -94q0 -64 29 -116l220 309q-30 12 -69 12zM341 101q88 0 134 62t46 141q0 65 -29 119l-220 -309
q32 -13 69 -13z" />
    <glyph glyph-name="zero.tosf" 
d="M339 -10q-134 0 -218.5 89t-84.5 226q0 138 85 227t221 89q134 0 218.5 -88.5t84.5 -226.5t-85.5 -227t-220.5 -89zM340 508q-89 0 -134 -62t-45 -141q0 -78 46 -140t134 -62t133.5 61.5t45.5 139.5q0 50 -16.5 94t-59 77t-104.5 33z" />
    <glyph glyph-name="one.tosf" 
d="M296 111v371l-188 -91l-49 97l248 122h112v-499h195v-111h-542v111h224z" />
    <glyph glyph-name="two.tosf" 
d="M78 0v98l242 132q78 43 113.5 80.5t35.5 82.5q0 52 -37 85.5t-96 33.5q-54 0 -98.5 -31.5t-65.5 -89.5l-108 42q27 86 102.5 138t168.5 52q117 0 189.5 -67.5t72.5 -161.5q0 -78 -55 -136t-155 -109l-72 -37v-1h291v-111h-528z" />
    <glyph glyph-name="three.tosf" 
d="M614 48q0 -96 -78.5 -162.5t-199.5 -66.5q-204 0 -274 176l106 52q51 -116 170 -116q63 0 106 35.5t43 83.5q0 50 -41.5 85.5t-105.5 35.5h-84v111h77q60 0 99.5 34.5t39.5 82.5t-36.5 79.5t-102.5 31.5q-105 0 -153 -113l-107 49q27 78 94.5 127t167.5 49q120 0 191 -61
t71 -149q0 -122 -118 -179v-1q135 -52 135 -184z" />
    <glyph glyph-name="four.tosf" 
d="M556 611v-500h90v-111h-90v-172h-121v172h-399v124l369 487h151zM161 111h274v361z" />
    <glyph glyph-name="five.tosf" 
d="M332 -181q-90 0 -160 42.5t-106 125.5l106 59q49 -114 162 -114q66 0 111.5 39t45.5 105q0 69 -44.5 107.5t-109.5 38.5q-88 0 -148 -67l-105 43l59 413h437v-111h-344l-31 -224q63 53 155 53q116 0 187 -70.5t71 -180.5q0 -119 -83 -189t-203 -70z" />
    <glyph glyph-name="six.tosf" 
d="M394 686q-104 0 -161.5 -80t-64.5 -197h1q33 47 88.5 73t114.5 26q113 0 186.5 -70.5t73.5 -183.5q0 -116 -83.5 -190t-201.5 -74q-128 0 -213 85q-88 88 -88 289q0 85 21 160.5t62 137t109 97t156 35.5q118 0 218 -84l-62 -90q-28 22 -45.5 33.5t-47.5 22t-63 10.5z
M345 401q-66 0 -115 -42t-49 -106q0 -69 47 -110t117 -41q69 0 114.5 41t45.5 107q0 68 -45 109.5t-115 41.5z" />
    <glyph glyph-name="seven.tosf" 
d="M620 611v-101l-359 -682h-142l360 672h-418v111h559z" />
    <glyph glyph-name="eight.tosf" 
d="M340 -9q-122 0 -204.5 62t-82.5 160q0 139 150 194v1q-60 17 -95 64t-35 110q0 96 80 154t187 58q109 0 188.5 -57.5t79.5 -154.5q0 -63 -34 -108.5t-95 -65.5v-1q149 -54 149 -189q0 -102 -82.5 -164.5t-205.5 -62.5zM195 570q0 -51 42.5 -84.5t102.5 -33.5
q63 0 104.5 33.5t41.5 84.5t-41.5 84.5t-104.5 33.5q-64 0 -104.5 -33t-40.5 -85zM176 223q0 -53 47.5 -89t116.5 -36t117.5 35.5t48.5 89.5q0 53 -48.5 88.5t-117.5 35.5q-71 0 -117.5 -34.5t-46.5 -89.5z" />
    <glyph glyph-name="nine.tosf" 
d="M284 -73q72 0 123.5 41.5t75.5 100.5t29 130h-2q-34 -47 -89 -73.5t-113 -26.5q-114 0 -188 71t-74 184q0 118 83.5 193.5t201.5 75.5q128 0 213 -85q88 -88 88 -289q0 -86 -20.5 -161t-61 -136.5t-109 -97t-157.5 -35.5q-124 0 -225 87l64 89q81 -68 161 -68zM333 206
q66 0 115 42.5t49 108.5q0 72 -46 113t-118 41q-70 0 -115 -41t-45 -110q0 -70 44.5 -112t115.5 -42z" />
    <glyph glyph-name="zero.slash.tf" 
d="M342 794q79 0 138.5 -31.5t94.5 -87t52.5 -125.5t17.5 -154t-17.5 -155t-52.5 -128t-95.5 -89.5t-140.5 -32.5q-65 0 -116.5 21t-86 57.5t-57.5 88t-33 109.5t-10 125q0 84 17 154.5t52 127t95.5 88.5t141.5 32zM341 684q-45 0 -78.5 -19t-52.5 -48t-31 -69.5
t-15.5 -76.5t-3.5 -77q0 -80 14 -139l275 387q-42 42 -108 42zM341 101q44 0 77.5 19.5t52.5 48.5t30.5 70.5t15 77.5t3.5 77q0 78 -14 137l-275 -387q43 -43 110 -43z" />
    <glyph glyph-name="zero.tf" 
d="M339 -9q-65 0 -116.5 21t-86 57.5t-57.5 88t-33 109.5t-10 125q0 84 17 154.5t52 127t95.5 88.5t141.5 32q79 0 138.5 -31.5t94.5 -87t52.5 -125.5t17.5 -154t-17.5 -155t-52.5 -128t-95.5 -89.5t-140.5 -32.5zM341 682q-55 0 -92.5 -27t-55 -73.5t-24.5 -91t-7 -96.5
q0 -290 179 -290q54 0 91.5 27.5t55 74t24.5 91.5t7 97t-7 96.5t-24.5 91t-55 73.5t-91.5 27z" />
    <glyph glyph-name="one.tf" 
d="M295 111v543l-188 -92l-48 98l247 123h112v-672h196v-111h-542v111h223z" />
    <glyph glyph-name="two.tf" 
d="M66 107l280 239q80 68 110 109.5t30 93.5q0 56 -37.5 94t-102.5 38q-112 0 -159 -123l-110 46q24 86 96.5 138t173.5 52q116 0 191 -65.5t75 -170.5q0 -86 -44 -148.5t-147 -147.5l-182 -151h377v-111h-551v107z" />
    </font>
</defs>
</svg>
